{"glyphs":{"0":{"ha":772,"x_min":69,"x_max":704,"o":"m 378 -18 q 151 115 233 -18 q 69 503 69 248 q 155 926 69 783 q 401 1068 241 1068 q 704 530 704 1068 q 618 122 704 262 q 378 -18 532 -18 m 395 1006 q 207 883 274 1006 q 139 511 139 759 q 203 164 139 286 q 387 43 268 43 q 568 167 503 43 q 633 519 633 290 q 395 1006 633 1006 z "},"1":{"ha":534,"x_min":61,"x_max":385,"o":"m 385 1074 l 385 0 l 318 0 l 318 968 q 202 884 267 919 q 61 822 138 849 l 61 883 q 146 918 107 899 q 222 961 186 937 q 293 1013 258 985 q 362 1074 327 1041 l 385 1074 z "},"2":{"ha":772,"x_min":71,"x_max":665,"o":"m 71 0 l 71 49 q 78 137 71 98 q 103 209 86 176 q 144 271 119 242 q 201 329 168 300 q 275 389 234 358 q 366 455 317 419 q 454 523 413 489 q 527 595 496 557 q 575 681 557 634 q 593 787 593 727 q 536 949 593 891 q 374 1006 478 1006 q 239 976 304 1006 q 111 890 174 945 l 111 969 q 241 1042 172 1015 q 386 1068 311 1068 q 500 1049 449 1068 q 588 995 551 1029 q 644 910 624 960 q 663 798 663 860 q 643 670 663 726 q 586 568 622 614 q 502 484 550 522 q 401 407 454 446 q 280 317 330 357 q 201 241 231 278 q 157 164 170 203 q 143 73 143 125 l 143 62 l 665 62 l 665 0 l 71 0 z "},"3":{"ha":772,"x_min":84,"x_max":651,"o":"m 84 37 l 84 114 q 311 43 204 43 q 509 108 437 43 q 581 277 581 173 q 498 454 581 394 q 264 514 416 514 l 183 514 l 183 576 l 255 576 q 469 635 395 576 q 543 804 543 695 q 489 952 543 899 q 333 1006 436 1006 q 126 937 235 1006 l 126 1009 q 344 1068 245 1068 q 541 1001 468 1068 q 614 822 614 933 q 410 551 614 608 l 410 548 q 585 466 519 537 q 651 288 651 395 q 556 66 651 150 q 309 -18 460 -18 q 84 37 192 -18 z "},"4":{"ha":796,"x_min":37,"x_max":769,"o":"m 605 1050 l 605 336 l 769 336 l 769 275 l 605 275 l 605 0 l 538 0 l 538 275 l 37 275 l 37 340 q 180 512 107 420 q 318 698 252 604 q 440 882 385 791 q 533 1050 496 973 l 605 1050 m 114 336 l 538 336 l 538 930 q 427 752 484 838 q 313 589 369 665 q 206 448 257 512 q 114 336 155 383 z "},"5":{"ha":772,"x_min":117,"x_max":662,"o":"m 117 21 l 117 99 q 318 43 218 43 q 519 114 447 43 q 592 303 592 185 q 300 559 592 559 q 149 551 234 559 l 180 1050 l 617 1050 l 617 989 l 240 989 l 216 615 q 324 621 292 621 q 576 539 491 621 q 662 312 662 458 q 571 73 662 165 q 312 -18 480 -18 q 117 21 201 -18 z "},"6":{"ha":772,"x_min":90,"x_max":711,"o":"m 651 1042 l 651 970 q 496 1006 576 1006 q 356 968 418 1006 q 250 860 294 930 q 182 694 205 790 q 159 481 159 597 l 162 481 q 425 657 239 657 q 542 632 489 657 q 632 563 595 607 q 691 460 670 519 q 711 333 711 401 q 688 193 711 257 q 624 81 665 128 q 524 8 582 35 q 397 -18 467 -18 q 268 13 326 -18 q 171 104 211 44 q 111 255 132 165 q 90 460 90 345 q 117 710 90 598 q 197 902 144 823 q 325 1025 249 981 q 498 1068 401 1068 q 651 1042 585 1068 m 410 595 q 313 574 357 595 q 236 517 269 552 q 186 436 204 481 q 168 344 168 391 q 184 229 168 283 q 232 133 201 174 q 307 68 263 92 q 404 43 350 43 q 498 64 454 43 q 573 122 541 85 q 622 209 604 159 q 640 319 640 260 q 624 432 640 381 q 578 519 608 483 q 506 575 549 555 q 410 595 463 595 z "},"7":{"ha":749,"x_min":52,"x_max":697,"o":"m 214 0 q 276 261 237 136 q 366 509 315 387 q 478 749 418 630 q 606 989 539 868 l 52 989 l 52 1050 l 697 1050 l 697 1025 q 559 764 623 890 q 442 515 494 639 q 351 265 390 391 q 290 0 312 138 l 214 0 z "},"8":{"ha":772,"x_min":79,"x_max":696,"o":"m 79 293 q 91 375 79 335 q 127 452 102 416 q 189 516 152 488 q 275 562 225 545 q 208 605 238 580 q 157 660 178 630 q 124 726 136 690 q 113 800 113 762 q 134 907 113 858 q 191 991 155 956 q 278 1048 228 1027 q 387 1068 329 1068 q 497 1047 447 1068 q 585 991 548 1027 q 642 906 621 955 q 662 800 662 857 q 651 726 662 761 q 619 660 640 690 q 569 605 598 629 q 504 562 540 580 q 588 516 552 545 q 648 452 624 488 q 684 375 672 416 q 696 293 696 335 q 673 162 696 220 q 610 65 650 104 q 512 4 569 25 q 387 -17 456 -17 q 263 4 319 -17 q 166 64 207 25 q 102 161 125 104 q 79 293 79 219 m 148 286 q 165 186 148 231 q 214 109 183 141 q 289 60 245 77 q 385 43 332 43 q 481 60 437 43 q 557 109 525 77 q 606 186 589 141 q 624 286 624 231 q 607 379 624 335 q 559 455 590 422 q 484 508 528 488 q 385 528 439 528 q 291 510 335 528 q 216 460 248 492 q 166 383 184 428 q 148 286 148 338 m 184 798 q 200 716 184 753 q 244 650 216 678 q 308 606 271 623 q 387 590 345 590 q 466 606 429 590 q 531 651 503 623 q 574 716 558 679 q 590 798 590 754 q 574 880 590 842 q 531 946 559 918 q 467 990 504 975 q 387 1006 430 1006 q 304 990 341 1006 q 240 945 267 973 q 199 879 214 917 q 184 798 184 841 z "},"9":{"ha":772,"x_min":75,"x_max":696,"o":"m 130 9 l 130 83 q 285 43 214 43 q 538 176 451 43 q 625 568 625 309 l 623 568 q 365 399 550 399 q 247 424 300 399 q 155 490 193 448 q 96 592 117 533 q 75 722 75 651 q 98 863 75 799 q 165 972 122 926 q 266 1043 208 1017 q 392 1068 323 1068 q 518 1038 461 1068 q 614 949 574 1008 q 674 800 653 889 q 696 593 696 711 q 669 333 696 446 q 590 141 642 219 q 461 22 538 63 q 283 -18 385 -18 q 130 9 205 -18 m 382 1006 q 288 986 331 1006 q 213 929 244 965 q 163 843 181 893 q 146 735 146 793 q 163 621 146 671 q 211 534 180 570 q 285 479 241 498 q 381 460 328 460 q 472 480 429 460 q 547 532 515 500 q 598 608 579 565 q 616 700 616 652 q 600 823 616 767 q 551 920 583 880 q 477 984 520 961 q 382 1006 433 1006 z "},"￿":{"ha":507,"x_min":46,"x_max":415,"o":"m 46 0 l 46 926 l 415 926 l 415 0 l 46 0 m 92 46 l 369 46 l 369 880 l 92 880 l 92 46 z "},"\"":{"ha":503,"x_min":130,"x_max":374,"o":"m 374 722 l 311 722 l 311 1050 l 374 1050 l 374 722 m 193 722 l 130 722 l 130 1050 l 193 1050 l 193 722 z "},"(":{"ha":423,"x_min":110,"x_max":406,"o":"m 332 -239 q 110 399 110 20 q 335 1050 110 795 l 406 1050 q 177 401 177 787 q 404 -239 177 37 l 332 -239 z "},")":{"ha":423,"x_min":17,"x_max":313,"o":"m 92 -239 l 20 -239 q 246 401 246 37 q 17 1050 246 787 l 89 1050 q 313 399 313 793 q 92 -239 313 19 z "},"*":{"ha":608,"x_min":52,"x_max":558,"o":"m 558 825 l 344 770 l 489 574 l 433 537 l 306 740 l 176 537 l 121 574 l 267 770 l 52 825 l 71 888 l 282 813 l 271 1050 l 339 1050 l 329 813 l 538 888 l 558 825 z "},",":{"ha":333,"x_min":35,"x_max":219,"o":"m 92 -182 l 35 -182 l 144 166 l 219 166 l 92 -182 z "},"-":{"ha":597,"x_min":106,"x_max":507,"o":"m 106 406 l 106 473 l 507 473 l 507 406 l 106 406 z "},".":{"ha":333,"x_min":108,"x_max":227,"o":"m 166 -13 q 124 4 141 -13 q 108 46 108 21 q 124 88 108 72 q 166 104 141 104 q 209 88 191 104 q 227 46 227 72 q 209 4 227 21 q 166 -13 191 -13 z "},"/":{"ha":549,"x_min":-21,"x_max":557,"o":"m 46 -174 l -21 -174 l 486 1050 l 557 1050 l 46 -174 z "},":":{"ha":333,"x_min":108,"x_max":227,"o":"m 166 645 q 124 663 141 645 q 108 705 108 680 q 124 747 108 730 q 166 763 141 763 q 209 747 191 763 q 227 705 227 730 q 209 663 227 680 q 166 645 191 645 m 166 -13 q 124 4 141 -13 q 108 46 108 21 q 124 88 108 72 q 166 104 141 104 q 209 88 191 104 q 227 46 227 72 q 209 4 227 21 q 166 -13 191 -13 z "},";":{"ha":333,"x_min":35,"x_max":232,"o":"m 173 645 q 131 663 147 645 q 114 705 114 680 q 131 747 114 730 q 173 763 147 763 q 215 747 198 763 q 232 705 232 730 q 215 663 232 680 q 173 645 198 645 m 92 -182 l 35 -182 l 144 166 l 219 166 l 92 -182 z "},"<":{"ha":975,"x_min":183,"x_max":793,"o":"m 183 425 l 183 438 l 793 780 l 793 711 l 297 433 l 297 431 l 793 186 l 793 116 l 183 425 z "},">":{"ha":975,"x_min":183,"x_max":793,"o":"m 183 116 l 183 186 l 680 431 l 680 433 l 183 711 l 183 780 l 793 438 l 793 425 l 183 116 z "},"?":{"ha":645,"x_min":87,"x_max":578,"o":"m 276 292 q 263 339 269 310 q 258 399 258 369 q 267 461 258 433 q 293 514 276 489 q 332 563 309 539 q 383 610 355 586 q 429 654 406 631 q 469 704 452 677 q 498 762 487 730 q 509 830 509 793 q 495 902 509 870 q 457 956 481 934 q 399 990 433 979 q 323 1002 365 1002 q 197 978 255 1002 q 87 912 138 954 l 87 990 q 197 1049 139 1029 q 324 1068 254 1068 q 425 1053 378 1068 q 506 1007 472 1037 q 559 935 540 978 q 578 837 578 892 q 567 761 578 795 q 537 697 555 726 q 494 642 518 668 q 445 593 469 616 q 381 531 406 556 q 343 485 357 505 q 323 445 329 465 q 318 399 318 425 q 324 338 318 366 q 336 292 330 311 l 276 292 m 302 -13 q 260 4 277 -13 q 244 46 244 21 q 260 88 244 72 q 302 104 277 104 q 345 88 328 104 q 362 46 362 72 q 345 4 362 21 q 302 -13 328 -13 z "},"A":{"ha":943,"x_min":43,"x_max":900,"o":"m 819 0 l 699 327 l 243 327 l 123 0 l 43 0 l 439 1050 l 509 1050 l 900 0 l 819 0 m 496 879 q 484 922 488 901 q 473 959 478 941 l 469 959 q 446 880 457 910 l 269 393 l 674 393 l 496 879 z "},"B":{"ha":816,"x_min":135,"x_max":732,"o":"m 135 0 l 135 1050 l 411 1050 q 608 984 534 1050 q 681 807 681 917 q 632 649 681 715 q 496 553 584 582 l 496 551 q 669 473 606 541 q 732 300 732 405 q 646 84 732 168 q 417 0 560 0 l 135 0 m 208 983 l 208 577 l 354 577 q 537 636 468 577 q 606 795 606 694 q 382 983 606 983 l 208 983 m 208 511 l 208 66 l 402 66 q 591 125 526 66 q 657 294 657 184 q 362 511 657 511 l 208 511 z "},"C":{"ha":932,"x_min":80,"x_max":833,"o":"m 833 35 q 567 -18 705 -18 q 216 126 351 -18 q 80 504 80 271 q 227 914 80 760 q 602 1068 374 1068 q 833 1029 722 1068 l 833 952 q 600 1002 722 1002 q 278 868 402 1002 q 155 511 155 734 q 273 172 155 296 q 573 48 391 48 q 833 104 718 48 l 833 35 z "},"D":{"ha":1010,"x_min":135,"x_max":932,"o":"m 135 0 l 135 1050 l 397 1050 q 795 920 659 1050 q 932 540 932 789 q 786 150 932 300 q 382 0 640 0 l 135 0 m 208 983 l 208 66 l 372 66 q 731 187 606 66 q 857 537 857 309 q 387 983 857 983 l 208 983 z "},"E":{"ha":750,"x_min":135,"x_max":650,"o":"m 135 0 l 135 1050 l 625 1050 l 625 983 l 208 983 l 208 562 l 595 562 l 595 496 l 208 496 l 208 66 l 650 66 l 650 0 l 135 0 z "},"F":{"ha":697,"x_min":135,"x_max":625,"o":"m 208 983 l 208 555 l 595 555 l 595 489 l 208 489 l 208 0 l 135 0 l 135 1050 l 625 1050 l 625 983 l 208 983 z "},"G":{"ha":1002,"x_min":80,"x_max":895,"o":"m 895 73 q 559 -18 732 -18 q 213 127 345 -18 q 80 510 80 273 q 223 908 80 749 q 604 1068 366 1068 q 873 1013 743 1068 l 873 933 q 594 1002 730 1002 q 275 866 395 1002 q 155 521 155 731 q 268 174 155 300 q 573 48 381 48 q 822 110 715 48 l 822 456 l 574 456 l 574 522 l 895 522 l 895 73 z "},"H":{"ha":1015,"x_min":135,"x_max":880,"o":"m 808 0 l 808 504 l 208 504 l 208 0 l 135 0 l 135 1050 l 208 1050 l 208 570 l 808 570 l 808 1050 l 880 1050 l 880 0 l 808 0 z "},"I":{"ha":342,"x_min":135,"x_max":208,"o":"m 135 0 l 135 1050 l 208 1050 l 208 0 l 135 0 z "},"J":{"ha":486,"x_min":13,"x_max":357,"o":"m 357 362 q 93 -18 357 -18 q 13 -7 52 -18 l 13 63 q 94 48 56 48 q 240 125 195 48 q 285 363 285 201 l 285 1050 l 357 1050 l 357 362 z "},"K":{"ha":790,"x_min":135,"x_max":777,"o":"m 675 0 l 228 503 q 210 527 216 516 l 208 527 l 208 0 l 135 0 l 135 1050 l 208 1050 l 208 555 l 210 555 q 229 581 219 570 l 654 1050 l 749 1050 l 288 541 l 777 0 l 675 0 z "},"L":{"ha":687,"x_min":135,"x_max":629,"o":"m 135 0 l 135 1050 l 208 1050 l 208 66 l 629 66 l 629 0 l 135 0 z "},"M":{"ha":1249,"x_min":135,"x_max":1115,"o":"m 1045 0 l 1045 745 q 1053 900 1045 772 l 1050 900 q 1013 808 1027 841 l 639 0 l 615 0 l 240 804 q 205 903 222 843 l 202 903 q 208 763 208 833 l 208 0 l 135 0 l 135 1050 l 202 1050 l 594 204 q 602 184 597 197 q 612 159 606 172 q 627 117 619 140 l 631 117 l 640 140 q 665 210 640 144 l 1050 1050 l 1115 1050 l 1115 0 l 1045 0 z "},"N":{"ha":1063,"x_min":135,"x_max":928,"o":"m 878 0 l 252 849 q 218 900 233 875 l 209 915 l 205 915 q 208 869 208 896 l 208 0 l 135 0 l 135 1050 l 191 1050 l 812 209 q 857 141 832 181 l 860 141 q 857 229 857 193 l 857 1050 l 928 1050 l 928 0 l 878 0 z "},"O":{"ha":1142,"x_min":80,"x_max":1062,"o":"m 567 -18 q 212 130 345 -18 q 80 514 80 277 q 216 917 80 766 q 587 1068 351 1068 q 930 923 799 1068 q 1062 541 1062 777 q 927 131 1062 281 q 567 -18 793 -18 m 574 1002 q 273 869 391 1002 q 155 522 155 736 q 267 177 155 305 q 566 48 378 48 q 874 175 760 48 q 987 530 987 302 q 877 877 987 752 q 574 1002 766 1002 z "},"P":{"ha":816,"x_min":135,"x_max":722,"o":"m 208 421 l 208 0 l 135 0 l 135 1050 l 388 1050 q 636 975 550 1050 q 722 756 722 900 q 626 515 722 610 q 358 421 530 421 l 208 421 m 208 983 l 208 488 l 357 488 q 573 555 498 488 q 647 747 647 623 q 375 983 647 983 l 208 983 z "},"Q":{"ha":1131,"x_min":80,"x_max":1089,"o":"m 567 -18 q 212 130 345 -18 q 80 514 80 277 q 216 917 80 766 q 587 1068 351 1068 q 930 923 799 1068 q 1062 541 1062 777 q 927 131 1062 281 q 834 53 886 84 l 1089 -141 l 967 -141 l 768 18 q 567 -18 679 -18 m 574 1002 q 273 869 391 1002 q 155 522 155 736 q 267 177 155 305 q 566 48 378 48 q 874 175 760 48 q 987 530 987 302 q 877 877 987 752 q 574 1002 766 1002 z "},"R":{"ha":833,"x_min":135,"x_max":754,"o":"m 672 0 l 532 308 q 446 435 489 403 q 338 468 403 468 l 208 468 l 208 0 l 135 0 l 135 1050 l 427 1050 q 645 975 566 1050 q 724 777 724 900 q 659 587 724 663 q 477 489 594 511 l 477 486 q 598 335 539 461 l 754 0 l 672 0 m 208 983 l 208 534 l 388 534 q 579 597 509 534 q 650 770 650 660 q 586 927 650 870 q 404 983 522 983 l 208 983 z "},"S":{"ha":745,"x_min":102,"x_max":656,"o":"m 102 37 l 102 120 q 330 48 214 48 q 517 99 454 48 q 581 241 581 150 q 538 370 581 322 q 352 501 495 418 q 150 657 193 594 q 108 802 108 720 q 194 990 108 913 q 425 1068 281 1068 q 612 1036 519 1068 l 612 960 q 415 1002 520 1002 q 246 948 309 1002 q 183 810 183 894 q 226 682 183 730 q 411 552 269 634 q 607 404 558 469 q 656 255 656 339 q 572 58 656 134 q 335 -18 488 -18 q 210 -1 281 -18 q 102 37 139 16 z "},"T":{"ha":767,"x_min":45,"x_max":723,"o":"m 420 983 l 420 0 l 348 0 l 348 983 l 45 983 l 45 1050 l 723 1050 l 723 983 l 420 983 z "},"U":{"ha":972,"x_min":121,"x_max":850,"o":"m 850 420 q 477 -18 850 -18 q 121 404 121 -18 l 121 1050 l 193 1050 l 193 414 q 491 48 193 48 q 779 404 779 48 l 779 1050 l 850 1050 l 850 420 z "},"V":{"ha":906,"x_min":30,"x_max":876,"o":"m 468 0 l 414 0 l 30 1050 l 111 1050 l 415 204 q 442 104 434 152 l 446 104 q 475 205 452 142 l 798 1050 l 876 1050 l 468 0 z "},"W":{"ha":1343,"x_min":37,"x_max":1305,"o":"m 998 0 l 937 0 l 704 790 q 684 889 686 851 l 681 889 q 659 791 679 857 l 410 0 l 349 0 l 37 1050 l 119 1050 l 358 209 q 381 116 374 152 l 384 116 q 410 209 388 143 l 669 1050 l 705 1050 l 943 209 q 966 116 960 150 l 969 116 q 981 163 972 136 l 1227 1050 l 1305 1050 l 998 0 z "},"X":{"ha":844,"x_min":45,"x_max":791,"o":"m 704 0 l 462 401 q 423 474 439 438 l 420 474 q 378 401 400 433 l 132 0 l 45 0 l 376 530 l 64 1050 l 152 1050 l 387 656 q 425 585 405 625 l 428 585 l 467 656 l 700 1050 l 785 1050 l 469 531 l 791 0 l 704 0 z "},"Y":{"ha":810,"x_min":45,"x_max":777,"o":"m 438 399 l 438 0 l 366 0 l 366 397 l 45 1050 l 126 1050 l 370 544 q 404 467 384 518 l 406 467 q 442 543 417 494 l 699 1050 l 777 1050 l 438 399 z "},"Z":{"ha":854,"x_min":48,"x_max":796,"o":"m 157 66 l 786 66 l 786 0 l 48 0 l 48 22 l 684 983 l 99 983 l 99 1050 l 796 1050 l 796 1031 l 157 66 z "},"[":{"ha":423,"x_min":153,"x_max":385,"o":"m 153 -239 l 153 1050 l 385 1050 l 385 989 l 220 989 l 220 -177 l 385 -177 l 385 -239 l 153 -239 z "},"\\":{"ha":549,"x_min":-21,"x_max":557,"o":"m 489 -174 l -21 1050 l 50 1050 l 557 -174 l 489 -174 z "},"]":{"ha":423,"x_min":37,"x_max":271,"o":"m 37 -239 l 37 -177 l 202 -177 l 202 989 l 37 989 l 37 1050 l 271 1050 l 271 -239 l 37 -239 z "},"_":{"ha":623,"x_min":0,"x_max":623,"o":"m 0 -363 l 0 -298 l 623 -298 l 623 -363 l 0 -363 z "},"`":{"ha":372,"x_min":56,"x_max":303,"o":"m 237 870 l 56 1110 l 132 1110 l 303 870 l 237 870 z "},"a":{"ha":741,"x_min":77,"x_max":635,"o":"m 568 0 l 568 150 l 566 150 q 461 27 530 73 q 309 -18 393 -18 q 140 42 202 -18 q 77 193 77 102 q 338 431 77 390 l 568 465 q 387 707 568 707 q 146 607 263 707 l 146 688 q 259 745 187 722 q 393 768 330 768 q 572 696 509 768 q 635 488 635 625 l 635 0 l 568 0 m 362 374 q 196 319 244 357 q 149 196 149 281 q 193 86 149 130 q 317 43 237 43 q 496 123 425 43 q 568 330 568 203 l 568 404 l 362 374 z "},"b":{"ha":840,"x_min":120,"x_max":774,"o":"m 191 134 l 187 134 l 187 0 l 120 0 l 120 1110 l 187 1110 l 187 595 l 191 595 q 306 723 231 678 q 471 768 381 768 q 694 670 614 768 q 774 402 774 571 q 681 98 774 214 q 439 -18 588 -18 q 191 134 271 -18 m 187 412 l 187 318 q 258 124 187 205 q 446 43 330 43 q 632 142 560 43 q 704 401 704 240 q 638 624 704 541 q 462 707 572 707 q 259 619 331 707 q 187 412 187 531 z "},"c":{"ha":666,"x_min":66,"x_max":608,"o":"m 606 33 q 406 -18 522 -18 q 160 87 254 -18 q 66 362 66 192 q 171 654 66 541 q 442 768 277 768 q 608 733 528 768 l 608 657 q 432 707 528 707 q 218 612 300 707 q 136 366 136 517 q 211 132 136 220 q 410 43 286 43 q 606 103 522 43 l 606 33 z "},"d":{"ha":840,"x_min":66,"x_max":720,"o":"m 652 0 l 652 136 l 650 136 q 541 23 613 65 q 379 -18 469 -18 q 153 83 241 -18 q 66 362 66 184 q 161 656 66 543 q 410 768 257 768 q 650 630 578 768 l 652 630 l 652 1110 l 720 1110 l 720 0 l 652 0 m 652 456 q 586 634 652 561 q 408 707 520 707 q 213 616 290 707 q 136 368 136 526 q 205 128 136 212 q 384 43 275 43 q 582 123 512 43 q 652 317 652 202 l 652 456 z "},"e":{"ha":758,"x_min":66,"x_max":692,"o":"m 136 372 q 208 131 136 218 q 404 43 279 43 q 650 136 530 43 l 650 64 q 390 -18 533 -18 q 155 86 245 -18 q 66 379 66 190 q 159 656 66 543 q 402 768 253 768 q 617 670 542 768 q 692 402 692 572 l 692 372 l 136 372 m 621 433 q 559 635 616 564 q 399 707 501 707 q 224 636 294 707 q 139 433 155 566 l 621 433 z "},"f":{"ha":414,"x_min":26,"x_max":448,"o":"m 448 1040 q 366 1061 421 1061 q 228 875 228 1061 l 228 750 l 427 750 l 427 688 l 228 688 l 228 0 l 161 0 l 161 688 l 26 688 l 26 750 l 161 750 l 161 880 q 220 1061 161 999 q 369 1122 280 1122 q 448 1108 417 1122 l 448 1040 z "},"g":{"ha":840,"x_min":66,"x_max":720,"o":"m 720 56 q 628 -254 720 -156 q 340 -352 535 -352 q 117 -295 232 -352 l 117 -225 q 342 -291 236 -291 q 652 37 652 -291 l 652 135 l 650 135 q 379 -18 561 -18 q 153 82 241 -18 q 66 362 66 182 q 160 655 66 541 q 410 768 255 768 q 650 631 575 768 l 652 631 l 652 750 l 720 750 l 720 56 m 652 462 q 586 634 652 562 q 411 707 519 707 q 212 614 287 707 q 136 368 136 521 q 205 129 136 214 q 388 43 275 43 q 581 122 509 43 q 652 313 652 200 l 652 462 z "},"h":{"ha":803,"x_min":120,"x_max":697,"o":"m 630 0 l 630 450 q 582 645 630 583 q 431 707 533 707 q 260 631 334 707 q 187 415 187 556 l 187 0 l 120 0 l 120 1110 l 187 1110 l 187 615 l 191 615 q 448 768 279 768 q 633 690 570 768 q 697 465 697 612 l 697 0 l 630 0 z "},"i":{"ha":308,"x_min":98,"x_max":210,"o":"m 153 939 q 114 955 131 939 q 98 996 98 971 q 115 1035 98 1020 q 153 1050 132 1050 q 193 1036 176 1050 q 210 996 210 1021 q 193 956 210 972 q 153 939 176 939 m 120 0 l 120 750 l 187 750 l 187 0 l 120 0 z "},"j":{"ha":308,"x_min":-184,"x_max":210,"o":"m 153 939 q 114 955 131 939 q 98 996 98 971 q 115 1035 98 1020 q 153 1050 132 1050 q 193 1036 176 1050 q 210 996 210 1021 q 193 956 210 972 q 153 939 176 939 m 187 21 q -77 -352 187 -352 q -184 -327 -130 -352 l -184 -256 q -71 -291 -126 -291 q 120 9 120 -291 l 120 750 l 187 750 l 187 21 z "},"k":{"ha":666,"x_min":120,"x_max":647,"o":"m 549 0 l 191 370 l 187 370 l 187 0 l 120 0 l 120 1110 l 187 1110 l 187 395 l 191 395 l 531 750 l 618 750 l 262 387 l 647 0 l 549 0 z "},"l":{"ha":308,"x_min":120,"x_max":187,"o":"m 120 0 l 120 1110 l 187 1110 l 187 0 l 120 0 z "},"m":{"ha":1233,"x_min":120,"x_max":1128,"o":"m 1061 0 l 1061 451 q 1016 650 1061 593 q 876 707 972 707 q 723 631 787 707 q 659 439 659 555 l 659 0 l 591 0 l 591 456 q 401 707 591 707 q 248 630 309 707 q 187 432 187 553 l 187 0 l 120 0 l 120 750 l 187 750 l 187 625 l 191 625 q 420 768 269 768 q 560 721 502 768 q 639 597 618 674 q 740 723 674 678 q 882 768 805 768 q 1128 464 1128 768 l 1128 0 l 1061 0 z "},"n":{"ha":803,"x_min":120,"x_max":697,"o":"m 630 0 l 630 437 q 435 707 630 707 q 257 627 327 707 q 187 431 187 548 l 187 0 l 120 0 l 120 750 l 187 750 l 187 614 l 191 614 q 447 768 273 768 q 633 687 568 768 q 697 456 697 606 l 697 0 l 630 0 z "},"o":{"ha":842,"x_min":66,"x_max":776,"o":"m 421 -18 q 161 90 257 -18 q 66 370 66 198 q 166 663 66 557 q 429 768 266 768 q 683 664 589 768 q 776 374 776 559 q 681 90 776 199 q 421 -18 586 -18 m 427 707 q 215 617 294 707 q 136 369 136 528 q 213 133 136 222 q 423 43 290 43 q 632 131 559 43 q 705 375 705 219 q 632 621 705 535 q 427 707 559 707 z "},"p":{"ha":840,"x_min":120,"x_max":774,"o":"m 191 134 l 187 134 l 187 -345 l 120 -345 l 120 750 l 187 750 l 187 595 l 191 595 q 306 723 231 678 q 471 768 381 768 q 694 670 614 768 q 774 402 774 571 q 682 98 774 214 q 439 -18 590 -18 q 191 134 271 -18 m 187 412 l 187 318 q 258 124 187 205 q 446 43 330 43 q 632 142 560 43 q 704 401 704 240 q 638 624 704 541 q 462 707 572 707 q 259 619 331 707 q 187 412 187 531 z "},"q":{"ha":840,"x_min":66,"x_max":720,"o":"m 652 -345 l 652 138 l 650 138 q 378 -18 566 -18 q 152 85 237 -18 q 66 363 66 189 q 163 659 66 550 q 411 768 260 768 q 650 629 578 768 l 652 629 l 652 750 l 720 750 l 720 -345 l 652 -345 m 652 450 q 587 634 652 562 q 406 707 522 707 q 213 617 290 707 q 136 366 136 528 q 205 130 136 216 q 382 43 273 43 q 583 124 513 43 q 652 321 652 204 l 652 450 z "},"r":{"ha":495,"x_min":120,"x_max":474,"o":"m 474 680 q 395 704 440 704 q 246 612 306 704 q 186 352 186 521 l 186 0 l 120 0 l 120 750 l 186 750 l 186 584 l 189 584 q 270 717 214 669 q 399 765 326 765 q 474 751 441 765 l 474 680 z "},"s":{"ha":583,"x_min":81,"x_max":514,"o":"m 81 33 l 81 114 q 174 62 119 81 q 267 43 228 43 q 444 187 444 43 q 405 273 444 237 q 279 345 366 308 q 128 442 172 392 q 84 564 84 492 q 154 712 84 656 q 327 768 224 768 q 492 729 423 768 l 492 652 q 319 707 409 707 q 200 668 245 707 q 155 568 155 630 q 183 481 155 515 q 309 405 212 448 q 470 307 427 352 q 514 187 514 262 q 447 40 514 98 q 262 -18 380 -18 q 81 33 154 -18 z "},"t":{"ha":446,"x_min":17,"x_max":417,"o":"m 417 10 q 318 -15 364 -15 q 152 184 152 -15 l 152 688 l 17 688 l 17 750 l 152 750 l 152 945 q 185 956 168 951 q 219 968 203 962 l 219 750 l 417 750 l 417 688 l 219 688 l 219 193 q 243 81 219 116 q 327 46 268 46 q 417 73 368 46 l 417 10 z "},"u":{"ha":803,"x_min":104,"x_max":683,"o":"m 615 0 l 615 136 l 612 136 q 370 -18 534 -18 q 104 317 104 -18 l 104 750 l 173 750 l 173 333 q 223 112 173 181 q 381 43 273 43 q 550 120 486 43 q 615 326 615 197 l 615 750 l 683 750 l 683 0 l 615 0 z "},"v":{"ha":680,"x_min":15,"x_max":665,"o":"m 366 0 l 304 0 l 15 750 l 90 750 l 313 153 q 336 75 330 110 l 339 75 q 360 150 349 121 l 591 750 l 665 750 l 366 0 z "},"w":{"ha":1015,"x_min":27,"x_max":989,"o":"m 756 0 l 693 0 l 530 566 q 518 629 523 589 l 514 629 q 500 567 513 612 l 317 0 l 254 0 l 27 750 l 102 750 l 276 152 q 286 89 283 128 l 292 89 q 306 152 294 110 l 496 750 l 543 750 l 713 152 q 723 89 718 130 l 729 89 q 741 152 729 110 l 919 750 l 989 750 l 756 0 z "},"x":{"ha":631,"x_min":24,"x_max":607,"o":"m 352 368 l 597 0 l 511 0 l 313 317 l 311 317 l 284 275 q 272 255 279 266 l 106 0 l 24 0 l 275 366 l 28 750 l 108 750 l 275 481 q 313 417 307 429 l 317 417 l 354 478 l 528 750 l 607 750 l 352 368 z "},"y":{"ha":680,"x_min":15,"x_max":669,"o":"m 303 -153 q 213 -303 262 -254 q 84 -352 163 -352 q 26 -342 52 -352 l 26 -275 q 87 -285 52 -285 q 229 -161 177 -285 l 299 6 l 15 750 l 90 750 l 317 139 q 327 109 323 119 q 333 84 330 95 l 336 84 l 354 135 l 595 750 l 669 750 l 303 -153 z "},"z":{"ha":696,"x_min":42,"x_max":654,"o":"m 152 62 l 635 62 l 635 0 l 42 0 l 42 26 l 540 688 l 77 688 l 77 750 l 654 750 l 654 732 l 152 62 z "},"{":{"ha":423,"x_min":69,"x_max":370,"o":"m 370 -239 q 230 -186 277 -235 q 183 -26 183 -137 l 183 192 q 69 382 183 366 l 69 429 q 183 607 183 446 l 183 837 q 230 998 183 949 q 370 1050 277 1046 l 370 989 q 280 947 306 985 q 254 816 254 909 l 254 602 q 147 406 254 439 l 147 404 q 254 198 254 370 l 254 -4 q 280 -136 254 -98 q 370 -177 306 -174 l 370 -239 z "},"|":{"ha":339,"x_min":135,"x_max":204,"o":"m 135 -352 l 135 1147 l 204 1147 l 204 -352 l 135 -352 z "},"}":{"ha":423,"x_min":53,"x_max":354,"o":"m 354 382 q 240 192 240 366 l 240 -26 q 193 -186 240 -138 q 53 -239 146 -235 l 53 -177 q 141 -138 113 -174 q 169 -4 169 -103 l 169 198 q 276 404 169 370 l 276 406 q 169 602 169 439 l 169 816 q 141 950 169 915 q 53 989 113 985 l 53 1050 q 193 998 146 1046 q 240 837 240 949 l 240 607 q 354 429 240 446 l 354 382 z "},"§":{"ha":672,"x_min":121,"x_max":566,"o":"m 452 295 q 522 149 522 243 q 457 8 522 65 q 288 -48 392 -48 q 129 -12 210 -48 l 129 60 q 290 13 216 13 q 410 50 369 13 q 451 147 451 87 q 429 222 451 186 q 326 296 406 257 q 159 413 196 357 q 121 540 121 469 q 240 727 121 666 q 150 888 150 788 q 210 1036 150 979 q 376 1092 271 1092 q 519 1065 457 1092 l 519 995 q 375 1031 456 1031 q 220 893 220 1031 q 261 796 220 834 q 417 707 302 758 q 566 503 566 638 q 452 295 566 384 m 297 693 q 192 544 192 645 q 235 430 192 473 q 399 335 278 388 q 472 408 450 372 q 495 503 495 444 q 460 598 495 559 q 297 693 425 637 z "},"±":{"ha":975,"x_min":156,"x_max":821,"o":"m 519 464 l 519 162 l 458 162 l 458 464 l 156 464 l 156 525 l 458 525 l 458 826 l 519 826 l 519 525 l 821 525 l 821 464 l 519 464 m 156 0 l 156 62 l 821 62 l 821 0 l 156 0 z "},"×":{"ha":975,"x_min":199,"x_max":776,"o":"m 732 149 l 488 395 l 243 149 l 199 192 l 444 437 l 199 683 l 243 726 l 488 479 l 732 726 l 776 683 l 531 437 l 776 192 l 732 149 z "},"÷":{"ha":975,"x_min":156,"x_max":821,"o":"m 489 634 q 449 651 466 634 q 432 692 432 668 q 449 731 432 715 q 489 747 466 747 q 528 731 513 747 q 544 692 544 715 q 528 651 544 668 q 489 634 513 634 m 156 406 l 156 468 l 821 468 l 821 406 l 156 406 m 489 127 q 449 144 466 127 q 432 184 432 161 q 449 224 432 208 q 489 240 466 240 q 528 224 513 240 q 544 184 544 208 q 528 144 544 161 q 489 127 513 127 z "},"—":{"ha":1500,"x_min":0,"x_max":1500,"o":"m 0 406 l 0 473 l 1500 473 l 1500 406 l 0 406 z "},"‘":{"ha":321,"x_min":83,"x_max":250,"o":"m 161 722 l 83 722 l 195 1050 l 250 1050 l 161 722 z "},"’":{"ha":321,"x_min":83,"x_max":250,"o":"m 136 722 l 83 722 l 174 1050 l 250 1050 l 136 722 z "},"‰":{"ha":1791,"x_min":60,"x_max":1727,"o":"m 303 534 q 125 608 191 534 q 60 800 60 682 q 130 999 60 928 q 311 1071 199 1071 q 485 1000 420 1071 q 549 802 549 928 q 482 610 549 687 q 303 534 415 534 m 309 1010 q 176 955 225 1010 q 127 798 127 899 q 175 648 127 704 q 304 593 222 593 q 435 650 388 593 q 483 803 483 707 q 436 958 483 906 q 309 1010 389 1010 m 304 -24 l 232 -24 l 864 1049 l 935 1049 l 304 -24 m 1480 -18 q 1302 56 1367 -18 q 1238 248 1238 130 q 1308 448 1238 377 q 1489 519 1379 519 q 1663 447 1598 519 q 1727 249 1727 375 q 1659 58 1727 135 q 1480 -18 1592 -18 m 1487 459 q 1355 403 1404 459 q 1305 246 1305 347 q 1352 96 1305 153 q 1482 40 1399 40 q 1613 97 1566 40 q 1660 250 1660 154 q 1613 407 1660 355 q 1487 459 1567 459 m 878 -18 q 700 56 766 -18 q 634 248 634 130 q 705 448 634 377 q 885 519 775 519 q 1059 448 995 519 q 1124 249 1124 376 q 1057 58 1124 135 q 878 -18 989 -18 m 883 459 q 751 402 800 459 q 702 246 702 345 q 749 96 702 152 q 879 40 796 40 q 1010 97 963 40 q 1058 250 1058 154 q 1011 407 1058 354 q 883 459 964 459 z "},"℃":{"ha":1389,"x_min":85,"x_max":1290,"o":"m 271 681 q 140 736 195 681 q 85 867 85 791 q 139 996 85 942 q 268 1050 193 1050 q 400 997 345 1050 q 454 867 454 943 q 400 735 454 790 q 271 681 347 681 m 271 995 q 182 957 219 995 q 145 867 145 919 q 181 775 145 814 q 268 736 218 736 q 356 775 319 736 q 393 867 393 814 q 357 958 393 922 q 271 995 322 995 m 1290 35 q 1024 -18 1162 -18 q 673 126 808 -18 q 537 504 537 271 q 684 914 537 760 q 1059 1068 831 1068 q 1290 1029 1179 1068 l 1290 952 q 1057 1002 1179 1002 q 735 868 859 1002 q 612 511 612 734 q 730 172 612 296 q 1030 48 848 48 q 1290 104 1175 48 l 1290 35 z "},"→":{"ha":1294,"x_min":169,"x_max":1185,"o":"m 169 486 l 1041 486 l 951 574 l 951 683 l 1185 439 l 1185 437 l 951 193 l 951 302 l 1040 388 l 169 388 l 169 486 z "},"≈":{"ha":975,"x_min":180,"x_max":796,"o":"m 796 665 q 746 535 791 582 q 625 488 701 488 q 478 549 553 488 q 349 611 401 611 q 237 495 246 611 l 180 495 q 230 625 184 578 q 351 672 275 672 q 494 614 420 672 q 571 561 545 574 q 629 548 596 548 q 740 665 726 548 l 796 665 m 796 379 q 746 249 791 296 q 625 202 701 202 q 478 264 556 202 q 349 326 401 326 q 237 210 246 326 l 180 210 q 230 340 184 293 q 351 387 276 387 q 430 369 393 387 q 527 302 467 351 q 629 262 576 262 q 740 379 726 262 l 796 379 z "},"≌":{"ha":975,"x_min":156,"x_max":821,"o":"m 156 284 l 156 346 l 821 346 l 821 284 l 156 284 m 156 0 l 156 62 l 821 62 l 821 0 l 156 0 m 642 841 q 759 793 713 841 q 804 680 804 745 q 782 598 804 635 q 724 541 760 562 q 642 519 688 519 q 564 542 604 519 q 464 663 525 565 q 394 757 422 734 q 334 780 365 780 q 264 750 294 780 q 234 680 234 721 q 264 610 234 640 q 334 580 294 580 l 334 519 q 220 566 267 519 q 172 680 172 613 q 219 795 172 748 q 334 842 267 842 q 413 819 374 842 q 513 695 452 795 q 583 603 555 625 q 642 581 611 581 q 713 610 683 581 q 743 680 743 640 q 715 749 743 718 q 642 780 686 780 l 642 841 z "},"≠":{"ha":975,"x_min":156,"x_max":821,"o":"m 429 265 l 292 0 l 225 0 l 363 265 l 156 265 l 156 327 l 395 327 l 509 549 l 156 549 l 156 611 l 541 611 l 675 870 l 741 870 l 607 611 l 821 611 l 821 549 l 576 549 l 460 327 l 821 327 l 821 265 l 429 265 z "},"≡":{"ha":975,"x_min":156,"x_max":821,"o":"m 156 667 l 156 728 l 821 728 l 821 667 l 156 667 m 156 140 l 156 202 l 821 202 l 821 140 l 156 140 m 156 406 l 156 468 l 821 468 l 821 406 l 156 406 z "},"≤":{"ha":975,"x_min":156,"x_max":821,"o":"m 183 492 l 183 505 l 793 848 l 793 779 l 297 501 l 297 498 l 793 254 l 793 183 l 183 492 m 156 46 l 156 108 l 821 108 l 821 46 l 156 46 z "},"≥":{"ha":975,"x_min":156,"x_max":821,"o":"m 183 183 l 183 254 l 680 498 l 680 501 l 183 779 l 183 848 l 793 505 l 793 492 l 183 183 m 156 46 l 156 108 l 821 108 l 821 46 l 156 46 z "},"≮":{"ha":975,"x_min":183,"x_max":793,"o":"m 793 116 l 519 254 l 462 0 l 401 0 l 465 281 l 183 425 l 183 438 l 547 642 l 605 896 l 665 896 l 615 680 l 793 780 l 793 711 l 597 602 l 533 314 l 793 186 l 793 116 m 530 564 l 297 433 l 297 431 l 479 340 l 530 564 z "},"≯":{"ha":975,"x_min":183,"x_max":793,"o":"m 183 116 l 183 186 l 345 265 l 416 581 l 183 711 l 183 780 l 430 642 l 488 896 l 547 896 l 483 612 l 793 438 l 793 425 l 395 223 l 345 0 l 284 0 l 327 189 l 183 116 m 680 431 l 680 433 l 469 551 l 412 299 l 680 431 z "},"、":{"ha":1389,"x_min":98,"x_max":410,"o":"m 353 -159 q 231 -34 294 -94 q 98 83 168 26 l 144 132 q 410 -102 314 -4 l 353 -159 z "},"。":{"ha":1389,"x_min":85,"x_max":433,"o":"m 258 193 q 325 179 294 193 q 381 141 357 165 q 419 85 405 117 q 433 16 433 52 q 420 -50 433 -18 q 384 -106 408 -82 q 329 -146 361 -131 q 260 -161 297 -161 q 192 -147 223 -161 q 136 -109 160 -133 q 99 -53 113 -85 q 85 16 85 -20 q 99 84 85 52 q 136 140 113 116 q 191 178 159 164 q 258 193 222 193 m 258 -98 q 298 -90 278 -98 q 334 -67 318 -81 q 360 -33 350 -52 q 370 10 370 -13 q 361 60 370 38 q 335 98 351 83 q 299 121 319 113 q 256 130 278 130 q 214 119 234 130 q 180 92 195 109 q 157 56 165 76 q 149 18 149 36 q 157 -23 149 -3 q 181 -60 166 -44 q 216 -87 196 -77 q 258 -98 236 -98 z "},"《":{"ha":1389,"x_min":749,"x_max":1289,"o":"m 1031 1153 l 1099 1153 l 819 486 l 1100 -182 l 1031 -182 l 749 486 l 1031 1153 m 1221 1153 l 1289 1153 l 1008 486 l 1289 -182 l 1221 -182 l 939 486 l 1221 1153 z "},"》":{"ha":1389,"x_min":106,"x_max":646,"o":"m 365 -182 l 296 -182 l 576 485 l 295 1153 l 363 1153 l 646 485 l 365 -182 m 175 -182 l 106 -182 l 387 485 l 106 1153 l 174 1153 l 456 485 l 175 -182 z "},"「":{"ha":1389,"x_min":964,"x_max":1280,"o":"m 1280 1091 l 1280 1029 l 1033 1029 l 1033 -119 l 964 -119 l 964 1091 l 1280 1091 z "},"」":{"ha":1389,"x_min":110,"x_max":426,"o":"m 110 -119 l 110 -57 l 357 -57 l 357 1090 l 426 1090 l 426 -119 l 110 -119 z "},"一":{"ha":1389,"x_min":36,"x_max":1353,"o":"m 36 566 l 1353 566 l 1353 485 l 36 485 l 36 566 z "},"丁":{"ha":1389,"x_min":52,"x_max":1331,"o":"m 52 1022 l 1331 1022 l 1331 947 l 786 947 l 786 56 q 600 -135 794 -135 q 498 -137 554 -136 q 438 -138 471 -138 q 354 -138 410 -138 q 330 -49 349 -102 q 564 -54 436 -54 q 675 -27 646 -55 q 704 75 705 -1 l 704 947 l 52 947 l 52 1022 z "},"七":{"ha":1389,"x_min":49,"x_max":1335,"o":"m 49 608 l 511 660 l 511 1129 l 590 1129 l 590 668 l 1325 750 l 1335 677 l 590 591 l 590 125 q 625 9 589 39 q 755 -22 660 -23 l 1040 -22 q 1202 87 1183 -29 q 1232 279 1219 168 q 1308 248 1265 263 q 1274 53 1295 142 q 1057 -100 1241 -104 l 725 -100 q 511 98 507 -104 l 511 583 l 58 532 l 49 608 z "},"万":{"ha":1389,"x_min":49,"x_max":1333,"o":"m 66 1026 l 1333 1026 l 1333 951 l 557 951 q 538 639 552 797 l 1171 639 q 1140 127 1159 360 q 889 -126 1127 -134 q 789 -127 846 -127 q 729 -127 762 -127 q 652 -127 701 -127 q 636 -45 646 -79 q 764 -49 720 -48 q 880 -50 812 -50 q 1063 134 1052 -61 q 1088 566 1079 310 l 529 566 q 107 -170 495 104 q 49 -110 97 -157 q 458 616 444 160 q 478 951 472 781 l 66 951 l 66 1026 z "},"丈":{"ha":1389,"x_min":40,"x_max":1348,"o":"m 89 -170 q 40 -97 73 -138 q 616 172 469 38 q 272 684 422 336 l 340 711 q 672 227 485 386 q 832 783 832 393 l 50 783 l 50 856 l 832 856 l 832 1133 l 908 1133 l 908 856 l 1337 856 l 1337 783 l 907 783 q 732 179 905 363 q 1348 -57 935 26 q 1304 -134 1324 -93 q 677 123 886 -34 q 89 -170 513 -30 z "},"三":{"ha":1389,"x_min":54,"x_max":1336,"o":"m 139 999 l 1246 999 l 1246 922 l 139 922 l 139 999 m 54 16 l 1336 16 l 1336 -60 l 54 -60 l 54 16 m 201 532 l 1183 532 l 1183 457 l 201 457 l 201 532 z "},"上":{"ha":1389,"x_min":49,"x_max":1340,"o":"m 589 1116 l 669 1116 l 669 704 l 1232 704 l 1232 629 l 669 629 l 669 -9 l 1340 -9 l 1340 -86 l 49 -86 l 49 -9 l 589 -9 l 589 1116 z "},"下":{"ha":1389,"x_min":49,"x_max":1339,"o":"m 49 1031 l 1339 1031 l 1339 956 l 671 956 l 671 -157 l 590 -157 l 590 956 l 49 956 l 49 1031 m 1202 311 q 697 597 931 474 l 743 665 q 1254 393 1024 521 l 1202 311 z "},"不":{"ha":1389,"x_min":36,"x_max":1340,"o":"m 78 1023 l 1328 1023 l 1328 950 l 828 950 q 90 203 554 507 q 36 264 68 231 q 734 950 509 574 l 78 950 l 78 1023 m 648 686 l 726 686 l 726 -171 l 648 -171 l 648 686 m 1291 240 q 832 545 1047 410 l 879 602 q 1340 302 1086 473 l 1291 240 z "},"与":{"ha":1389,"x_min":37,"x_max":1344,"o":"m 257 528 l 321 1141 l 397 1141 l 375 925 l 1344 925 l 1344 851 l 368 851 l 343 602 l 1247 602 q 1210 83 1232 302 q 935 -140 1197 -144 l 795 -142 l 802 -142 q 731 -142 768 -142 q 643 -142 699 -142 q 628 -54 638 -98 q 921 -62 748 -62 q 1132 94 1123 -70 q 1164 528 1154 298 l 257 528 m 37 289 l 1011 289 l 1011 215 l 37 215 l 37 289 z "},"丐":{"ha":1389,"x_min":72,"x_max":1320,"o":"m 72 1055 l 1320 1055 l 1320 985 l 721 985 l 721 758 l 1213 758 l 1213 689 l 721 689 l 721 446 l 1247 446 q 1225 85 1240 258 q 971 -146 1216 -152 q 689 -149 870 -149 q 675 -61 687 -115 q 787 -64 727 -64 q 853 -65 816 -65 q 957 -65 884 -65 q 981 -66 967 -66 q 1146 89 1140 -66 q 1164 375 1159 227 l 171 375 l 218 876 l 296 876 l 256 446 l 643 446 l 643 985 l 72 985 l 72 1055 z "},"丑":{"ha":1389,"x_min":43,"x_max":1344,"o":"m 129 1050 l 1152 1050 l 1086 -7 l 1344 -7 l 1344 -79 l 43 -79 l 43 -7 l 395 -7 l 441 468 l 139 468 l 139 539 l 449 539 l 493 978 l 129 978 l 129 1050 m 519 468 l 472 -7 l 1007 -7 l 1038 468 l 519 468 m 1069 978 l 570 978 l 526 539 l 1042 539 l 1069 978 z "},"专":{"ha":1389,"x_min":47,"x_max":1349,"o":"m 306 335 l 306 411 q 393 602 350 499 l 47 602 l 47 672 l 424 672 q 494 848 447 729 q 507 884 503 872 l 131 884 l 131 954 l 533 954 q 599 1145 562 1030 l 675 1131 q 627 994 660 1086 q 612 954 617 968 l 1263 954 l 1263 884 l 586 884 q 565 827 578 865 q 504 672 526 724 l 1349 672 l 1349 602 l 473 602 q 386 406 424 481 l 1189 406 l 1189 328 l 821 -4 q 979 -82 874 -30 q 1032 -109 1015 -100 l 986 -174 q 292 165 672 -11 l 334 225 q 747 29 511 144 l 1090 335 l 306 335 z "},"且":{"ha":1389,"x_min":36,"x_max":1349,"o":"m 36 -26 l 243 -26 l 243 1060 l 1146 1060 l 1146 -26 l 1349 -26 l 1349 -96 l 36 -96 l 36 -26 m 318 271 l 318 -26 l 1071 -26 l 1071 271 l 318 271 m 318 990 l 318 696 l 1071 696 l 1071 990 l 318 990 m 318 629 l 318 338 l 1071 338 l 1071 629 l 318 629 z "},"世":{"ha":1389,"x_min":50,"x_max":1336,"o":"m 50 786 l 231 786 l 231 1061 l 306 1061 l 306 786 l 596 786 l 596 1122 l 671 1122 l 671 786 l 1063 786 l 1063 1122 l 1137 1122 l 1137 786 l 1336 786 l 1336 715 l 1137 715 l 1137 227 l 596 227 l 596 715 l 306 715 l 306 -40 l 1303 -40 l 1303 -111 l 231 -111 l 231 715 l 50 715 l 50 786 m 671 715 l 671 296 l 1063 296 l 1063 715 l 671 715 z "},"丘":{"ha":1389,"x_min":49,"x_max":1337,"o":"m 49 5 l 271 5 l 271 1002 q 1173 1071 694 1017 l 1197 997 q 347 932 688 949 l 347 599 l 1270 599 l 1270 529 l 946 529 l 946 5 l 1337 5 l 1337 -65 l 49 -65 l 49 5 m 347 529 l 347 5 l 869 5 l 869 529 l 347 529 z "},"丙":{"ha":1389,"x_min":49,"x_max":1339,"o":"m 49 1047 l 1339 1047 l 1339 977 l 741 977 q 734 749 741 903 l 1232 749 l 1232 24 q 1078 -139 1236 -135 q 984 -141 1031 -140 q 935 -142 960 -142 q 872 -142 912 -142 q 857 -61 867 -94 q 1053 -65 922 -65 q 1134 -43 1112 -66 q 1157 35 1158 -22 l 1157 679 l 730 679 q 692 473 720 552 l 730 503 q 1076 175 835 407 l 1013 122 q 970 165 1001 134 q 685 456 765 378 q 353 100 625 273 q 298 161 335 125 q 654 679 655 354 l 229 679 l 229 -154 l 154 -154 l 154 749 l 660 749 q 664 977 664 837 l 49 977 l 49 1047 z "},"业":{"ha":1389,"x_min":40,"x_max":1350,"o":"m 828 1116 l 903 1116 l 903 -7 l 1350 -7 l 1350 -78 l 40 -78 l 40 -7 l 481 -7 l 481 1116 l 555 1116 l 555 -7 l 828 -7 l 828 1116 m 1064 286 l 994 318 q 1219 844 1105 541 l 1293 819 q 1064 286 1176 520 m 302 290 q 104 821 224 525 l 174 844 q 379 317 274 604 l 302 290 z "},"丛":{"ha":1389,"x_min":53,"x_max":1340,"o":"m 899 1122 l 974 1122 q 970 908 974 1013 q 1337 113 1015 347 q 1279 50 1305 81 q 936 700 976 318 q 585 32 911 317 q 525 92 556 66 q 890 856 876 372 q 899 1122 899 970 m 392 1124 l 467 1124 q 431 668 461 831 l 461 690 q 694 465 609 553 l 632 411 q 618 426 627 416 q 424 631 498 558 q 126 57 374 339 q 64 109 100 82 q 320 530 259 330 q 392 1124 387 723 m 53 -29 l 1340 -29 l 1340 -98 l 53 -98 l 53 -29 z "},"东":{"ha":1389,"x_min":36,"x_max":1350,"o":"m 167 422 l 167 509 q 371 863 273 672 l 56 863 l 56 933 l 407 933 q 503 1140 457 1034 l 583 1120 q 493 933 538 1021 l 1332 933 l 1332 863 l 457 863 q 250 493 354 663 l 705 493 l 705 768 l 782 768 l 782 493 l 1267 493 l 1267 422 l 782 422 l 782 40 q 597 -147 793 -149 q 529 -149 572 -149 q 481 -150 508 -150 q 415 -150 458 -150 q 401 -69 412 -104 q 480 -73 442 -72 q 521 -74 498 -74 q 579 -74 539 -74 q 677 -46 650 -75 q 705 50 706 -20 l 705 422 l 167 422 m 364 296 l 431 253 q 96 -98 282 81 q 36 -46 66 -66 q 364 296 220 123 m 946 244 l 999 293 q 1350 -8 1167 157 l 1292 -65 q 946 244 1124 91 z "},"丝":{"ha":1389,"x_min":47,"x_max":1340,"o":"m 1274 224 q 857 211 1067 224 q 734 200 764 205 l 700 279 q 822 385 766 321 q 1035 628 933 507 q 783 619 933 626 q 699 611 720 616 l 667 684 q 762 764 717 713 q 1017 1117 901 929 l 1092 1080 q 783 685 937 864 q 842 686 802 685 q 1086 690 1002 688 q 1206 848 1151 772 l 1278 808 q 818 278 1051 532 q 966 283 865 279 q 1278 293 1211 291 q 1274 224 1274 260 m 591 286 q 587 220 587 249 q 225 204 420 218 q 156 195 199 202 q 147 193 150 194 l 113 272 q 222 364 174 307 q 429 625 310 464 q 207 618 267 623 q 111 607 121 612 l 78 679 q 168 764 130 715 q 410 1121 306 938 l 486 1089 q 186 684 340 873 q 237 685 203 684 q 475 690 399 689 q 495 720 481 700 q 595 865 562 815 l 668 831 q 235 272 436 510 q 591 286 374 280 m 47 -25 l 1340 -25 l 1340 -94 l 47 -94 l 47 -25 z "},"丢":{"ha":1389,"x_min":50,"x_max":1339,"o":"m 1202 -171 q 1166 -132 1190 -159 q 1099 -61 1122 -85 q 298 -92 742 -70 q 193 -104 238 -94 l 154 -22 q 267 43 217 3 q 559 326 426 178 l 50 326 l 50 395 l 657 395 l 657 653 l 139 653 l 139 721 l 657 721 l 657 978 q 570 975 629 977 q 157 958 302 963 q 142 1029 153 998 q 1223 1074 785 1045 l 1238 1006 q 730 981 994 991 l 730 721 l 1249 721 l 1249 653 l 730 653 l 730 395 l 1339 395 l 1339 326 l 664 326 q 302 -20 507 156 q 391 -17 330 -19 q 1035 1 783 -6 q 978 58 1016 20 q 842 192 886 150 l 900 235 q 1265 -121 1080 66 l 1202 -171 z "},"两":{"ha":1389,"x_min":49,"x_max":1339,"o":"m 49 1051 l 1339 1051 l 1339 982 l 928 982 q 921 770 926 846 l 1255 770 l 1255 14 q 1101 -142 1260 -140 q 1021 -144 1061 -143 q 977 -144 1000 -144 q 920 -144 958 -144 q 904 -66 915 -111 q 1069 -73 1009 -73 q 1159 -52 1135 -73 q 1183 20 1184 -33 l 1183 701 l 917 701 q 882 472 905 570 q 1137 204 973 382 l 1082 150 q 890 372 1006 243 q 863 403 872 393 q 665 53 806 221 q 606 104 633 85 q 844 701 828 336 l 542 701 q 515 511 534 597 q 707 336 601 436 l 656 281 q 498 439 553 389 q 306 93 447 257 q 245 142 278 119 q 469 701 456 355 l 201 701 l 201 -151 l 129 -151 l 129 770 l 473 770 q 478 982 478 888 l 49 982 l 49 1051 m 551 982 q 546 770 549 844 l 848 770 q 853 937 850 817 q 854 982 854 966 l 551 982 z "},"严":{"ha":1389,"x_min":28,"x_max":1336,"o":"m 241 404 q 242 361 242 382 q 92 -164 242 41 q 28 -110 66 -138 q 139 109 111 2 q 168 406 169 214 l 168 578 l 513 578 l 513 985 l 66 985 l 66 1054 l 1336 1054 l 1336 985 l 901 985 l 901 578 l 1333 578 l 1333 510 l 241 510 l 241 404 m 586 985 l 586 578 l 828 578 l 828 985 l 586 985 m 1051 650 l 997 699 q 1179 909 1092 798 l 1239 865 q 1051 650 1152 758 m 183 875 l 241 916 q 406 708 329 810 l 343 663 q 183 875 263 777 z "},"丧":{"ha":1389,"x_min":47,"x_max":1352,"o":"m 657 1145 l 730 1145 l 730 972 l 1300 972 l 1300 905 l 730 905 l 730 526 l 1340 526 l 1340 460 l 643 460 q 817 203 722 296 q 1174 395 1026 303 l 1219 334 q 875 153 1045 235 q 1352 -54 1019 37 q 1311 -122 1334 -79 q 566 460 716 29 l 351 460 l 351 -50 q 692 71 493 -6 q 693 -8 690 45 q 408 -113 541 -59 q 294 -174 323 -147 l 235 -98 q 278 1 279 -64 l 278 460 l 47 460 l 47 526 l 657 526 l 657 905 l 89 905 l 89 972 l 657 972 l 657 1145 m 954 589 l 901 640 q 1132 851 1028 746 l 1190 806 q 954 589 1098 711 m 205 808 l 262 852 q 277 838 267 848 q 475 639 404 714 l 414 590 q 205 808 349 665 z "},"个":{"ha":1389,"x_min":36,"x_max":1348,"o":"m 1293 503 q 703 1006 901 710 q 92 479 484 687 q 36 543 45 536 q 697 1135 496 783 l 778 1120 l 745 1065 q 1348 570 962 755 q 1293 503 1310 528 m 654 647 l 734 647 l 734 -168 l 654 -168 l 654 647 z "},"中":{"ha":1389,"x_min":126,"x_max":1263,"o":"m 126 846 l 656 846 l 656 1143 l 732 1143 l 732 846 l 1263 846 l 1263 256 l 1187 256 l 1187 329 l 732 329 l 732 -176 l 656 -176 l 656 329 l 201 329 l 201 256 l 126 256 l 126 846 m 1187 775 l 732 775 l 732 401 l 1187 401 l 1187 775 m 201 775 l 201 401 l 656 401 l 656 775 l 201 775 z "},"丰":{"ha":1389,"x_min":47,"x_max":1340,"o":"m 654 1140 l 732 1140 l 732 921 l 1299 921 l 1299 848 l 732 848 l 732 595 l 1211 595 l 1211 524 l 732 524 l 732 267 l 1340 267 l 1340 195 l 732 195 l 732 -174 l 654 -174 l 654 195 l 47 195 l 47 267 l 654 267 l 654 524 l 175 524 l 175 595 l 654 595 l 654 848 l 89 848 l 89 921 l 654 921 l 654 1140 z "},"串":{"ha":1389,"x_min":131,"x_max":1258,"o":"m 131 464 l 657 464 l 657 623 l 189 623 l 189 978 l 657 978 l 657 1137 l 730 1137 l 730 978 l 1200 978 l 1200 623 l 730 623 l 730 464 l 1258 464 l 1258 41 l 1183 41 l 1183 104 l 730 104 l 730 -168 l 657 -168 l 657 104 l 205 104 l 205 41 l 131 41 l 131 464 m 1183 399 l 730 399 l 730 170 l 1183 170 l 1183 399 m 205 399 l 205 170 l 657 170 l 657 399 l 205 399 m 1126 911 l 730 911 l 730 689 l 1126 689 l 1126 911 m 262 911 l 262 689 l 657 689 l 657 911 l 262 911 z "},"临":{"ha":1389,"x_min":111,"x_max":1346,"o":"m 593 521 l 1286 521 l 1286 -161 l 1217 -161 l 1217 -58 l 663 -58 l 663 -161 l 593 -161 l 593 521 m 1217 453 l 974 453 l 974 8 l 1217 8 l 1217 453 m 663 453 l 663 8 l 904 8 l 904 453 l 663 453 m 350 1131 l 421 1131 l 421 -168 l 350 -168 l 350 1131 m 551 618 q 492 669 520 648 q 789 1139 685 866 l 863 1117 q 771 929 814 1007 l 1346 929 l 1346 860 l 730 860 q 551 618 650 729 m 111 1000 l 182 1000 l 182 -39 l 111 -39 l 111 1000 m 1023 586 q 831 766 921 688 l 880 814 q 1078 637 1004 708 l 1023 586 z "},"丸":{"ha":1389,"x_min":47,"x_max":1353,"o":"m 489 1133 l 567 1133 q 558 860 566 1048 l 986 860 l 986 61 q 1006 -27 985 -5 q 1082 -50 1024 -51 l 1143 -50 q 1255 43 1241 -52 q 1278 244 1266 101 q 1353 220 1328 227 q 1328 9 1344 107 q 1158 -126 1307 -130 l 1064 -126 q 943 -87 976 -127 q 908 52 907 -49 l 908 785 l 554 785 q 545 640 552 738 q 543 607 544 618 q 511 389 533 484 q 677 290 568 355 q 789 224 754 244 l 739 160 q 684 195 721 171 q 490 314 559 272 q 107 -160 415 60 q 47 -98 80 -130 q 422 355 363 119 q 98 543 293 433 l 146 600 q 441 429 271 529 q 467 625 458 515 q 476 785 471 677 l 78 785 l 78 860 l 481 860 q 489 1133 486 958 z "},"丹":{"ha":1389,"x_min":39,"x_max":1352,"o":"m 39 488 l 273 488 q 274 544 273 505 q 275 611 275 588 l 275 1071 l 1129 1071 l 1129 488 l 1352 488 l 1352 415 l 1129 415 l 1129 14 q 965 -139 1135 -136 q 883 -141 920 -141 q 844 -142 865 -142 q 789 -142 827 -142 q 777 -74 787 -117 q 774 -58 775 -64 q 856 -62 822 -61 q 892 -62 872 -62 q 945 -62 908 -62 q 1053 37 1058 -67 l 1053 415 l 347 415 q 149 -171 339 59 q 79 -122 105 -136 q 269 415 264 85 l 39 415 l 39 488 m 351 1000 l 351 608 q 351 544 351 586 q 350 488 350 506 l 1053 488 l 1053 1000 l 351 1000 m 561 840 l 618 882 q 833 637 727 766 l 770 591 q 561 840 652 739 z "},"为":{"ha":1389,"x_min":68,"x_max":1265,"o":"m 628 1141 l 707 1141 q 686 779 703 925 l 1265 779 q 1243 136 1261 456 q 987 -135 1239 -141 q 747 -138 869 -138 q 726 -47 741 -90 q 975 -52 800 -51 q 1118 -13 1080 -53 q 1165 135 1158 24 q 1187 705 1183 391 l 676 705 q 129 -175 633 138 q 68 -110 103 -144 q 602 705 571 197 l 92 705 l 92 779 l 610 779 q 628 1141 628 937 m 739 449 l 798 493 q 1015 277 922 376 l 950 222 q 739 449 875 313 m 197 1063 l 253 1109 q 456 921 342 1034 l 395 865 q 197 1063 303 965 z "},"主":{"ha":1389,"x_min":46,"x_max":1341,"o":"m 102 892 l 1282 892 l 1282 821 l 732 821 l 732 461 l 1234 461 l 1234 390 l 732 390 l 732 -17 l 1341 -17 l 1341 -87 l 46 -87 l 46 -17 l 656 -17 l 656 390 l 155 390 l 155 461 l 656 461 l 656 821 l 102 821 l 102 892 m 612 1112 l 682 1139 q 781 940 746 1015 l 705 913 q 612 1112 675 993 z "},"丽":{"ha":1389,"x_min":49,"x_max":1339,"o":"m 203 -170 l 131 -170 l 131 814 l 600 814 l 600 0 q 452 -149 604 -146 q 393 -150 422 -149 q 363 -150 379 -150 q 319 -150 349 -150 q 302 -75 314 -113 q 440 -79 376 -79 q 528 3 532 -83 l 528 746 l 203 746 l 203 -170 m 843 746 l 843 -170 l 771 -170 l 771 814 l 1261 814 l 1261 0 q 1112 -147 1268 -147 q 1053 -149 1086 -148 q 1017 -149 1037 -149 q 966 -149 1000 -149 q 950 -74 961 -113 q 1103 -78 1050 -79 q 1189 3 1194 -79 l 1189 746 l 843 746 m 49 1053 l 1339 1053 l 1339 983 l 49 983 l 49 1053 m 252 539 l 310 571 q 478 273 381 453 l 414 237 q 252 539 333 399 m 905 557 l 965 587 q 1133 289 1043 457 l 1068 253 q 905 557 984 423 z "},"举":{"ha":1389,"x_min":35,"x_max":1350,"o":"m 354 441 l 657 441 l 657 648 l 732 648 l 732 441 l 1036 441 l 1036 376 l 732 376 l 732 178 l 1284 178 l 1284 111 l 732 111 l 732 -171 l 657 -171 l 657 111 l 104 111 l 104 178 l 657 178 l 657 376 l 354 376 l 354 441 m 1304 345 q 850 743 987 482 l 533 743 q 85 322 408 492 q 35 390 58 363 q 452 743 324 519 l 57 743 l 57 810 l 1336 810 l 1336 743 l 929 743 q 1350 414 1067 518 q 1304 345 1329 388 m 991 846 l 930 888 q 1105 1139 1029 1008 l 1173 1100 q 991 846 1084 965 m 564 1105 l 625 1141 q 774 926 694 1050 l 707 888 q 564 1105 637 1005 m 196 1068 l 254 1109 q 415 918 344 1009 l 351 871 q 196 1068 273 977 z "},"乃":{"ha":1389,"x_min":58,"x_max":1304,"o":"m 58 -93 q 333 302 264 85 q 412 970 407 515 l 113 970 l 113 1044 l 1126 1044 l 1126 960 l 940 627 l 1304 627 q 1284 149 1297 332 q 1003 -125 1278 -132 q 890 -126 946 -125 q 833 -126 863 -126 q 754 -126 806 -126 q 736 -37 748 -79 q 994 -45 869 -45 q 1206 157 1198 -54 q 1222 553 1218 351 l 856 553 l 856 639 l 1038 970 l 493 970 q 122 -155 509 133 q 58 -93 79 -110 z "},"久":{"ha":1389,"x_min":41,"x_max":1344,"o":"m 1282 -155 q 766 410 917 55 q 104 -164 559 81 q 41 -89 75 -125 q 878 867 722 239 l 436 867 q 191 513 344 688 q 126 568 156 546 q 464 1128 360 813 l 543 1104 q 473 940 503 1001 l 961 940 l 961 857 q 810 482 906 654 q 1344 -74 975 102 q 1282 -155 1302 -124 z "},"么":{"ha":1389,"x_min":36,"x_max":1308,"o":"m 323 -5 q 1109 36 839 24 q 857 371 1010 178 l 922 414 q 1308 -92 1124 157 l 1239 -143 q 1232 -133 1236 -140 q 1164 -36 1200 -87 q 361 -82 686 -58 q 207 -103 270 -89 l 165 -12 q 313 96 239 20 q 953 873 663 439 l 1031 829 q 323 -5 684 354 m 93 368 q 36 435 73 396 q 652 1135 404 711 l 728 1096 q 93 368 441 639 z "},"义":{"ha":1389,"x_min":46,"x_max":1336,"o":"m 46 -81 q 636 208 449 39 q 231 1017 364 476 l 307 1040 q 696 268 425 533 q 1067 1043 988 572 l 1147 1026 q 755 212 1046 511 q 1336 -62 962 31 q 1286 -150 1310 -104 q 696 153 884 -16 q 97 -165 511 -17 q 46 -81 74 -122 m 571 1111 l 639 1140 q 787 835 703 1017 l 714 802 q 571 1111 642 972 z "},"之":{"ha":1389,"x_min":25,"x_max":1352,"o":"m 131 884 l 1214 884 l 1214 804 q 363 122 863 425 q 368 117 365 119 q 743 -28 486 -21 q 1017 -34 872 -34 q 1352 -28 1158 -34 q 1325 -110 1333 -75 q 966 -109 1076 -110 q 741 -104 836 -108 q 294 81 438 -99 q 267 92 281 92 q 233 79 251 92 q 71 -96 144 -4 l 25 -24 q 160 114 96 52 q 261 172 220 172 q 290 168 276 172 q 1117 811 804 483 l 131 811 l 131 884 m 596 1103 l 665 1135 q 791 933 754 998 l 717 897 q 596 1103 673 982 z "},"乌":{"ha":1389,"x_min":40,"x_max":1274,"o":"m 330 468 l 1274 468 q 1257 129 1267 262 q 983 -146 1257 -155 q 865 -148 920 -147 q 812 -149 839 -149 q 746 -149 788 -149 q 733 -75 743 -122 q 732 -68 732 -70 q 939 -74 797 -73 q 968 -74 958 -74 q 1127 -31 1084 -76 q 1182 136 1173 12 q 1194 399 1193 278 l 256 399 l 256 994 l 550 994 q 603 1140 583 1082 l 681 1125 q 631 1008 667 1088 q 625 994 627 999 l 1145 994 q 1131 764 1141 888 q 916 593 1129 591 q 711 591 850 591 q 699 668 705 641 q 909 664 775 664 q 1059 768 1055 659 q 1067 925 1065 847 l 330 925 l 330 468 m 40 211 l 1013 211 l 1013 142 l 40 142 l 40 211 z "},"乍":{"ha":1389,"x_min":45,"x_max":1325,"o":"m 460 1141 l 536 1121 q 432 937 472 1000 l 1325 937 l 1325 867 l 644 867 l 644 615 l 1246 615 l 1246 545 l 644 545 l 644 281 l 1295 281 l 1295 210 l 644 210 l 644 -168 l 568 -168 l 568 867 l 387 867 q 104 519 271 688 q 45 576 83 543 q 460 1141 313 829 z "},"乎":{"ha":1389,"x_min":36,"x_max":1352,"o":"m 1267 1008 q 734 978 1081 995 l 734 476 l 1352 476 l 1352 404 l 734 404 l 734 40 q 550 -147 746 -149 q 482 -149 525 -149 q 434 -150 461 -150 q 368 -150 411 -150 q 354 -69 362 -104 q 433 -73 395 -72 q 473 -74 452 -74 q 532 -74 492 -74 q 631 -46 604 -75 q 659 50 659 -20 l 659 404 l 36 404 l 36 476 l 659 476 l 659 975 q 125 953 478 966 l 110 1026 q 1249 1080 724 1041 l 1267 1008 m 982 559 l 920 603 q 1126 872 1049 758 l 1194 833 q 982 559 1116 726 m 197 823 l 258 861 q 461 600 372 722 l 393 557 q 197 823 304 685 z "},"乏":{"ha":1389,"x_min":25,"x_max":1350,"o":"m 700 -43 q 1031 -47 830 -47 q 1350 -41 1234 -46 q 1322 -121 1333 -77 q 968 -120 1095 -121 q 700 -117 823 -119 q 313 36 438 -123 q 277 56 294 56 q 249 43 263 56 q 75 -138 160 -35 l 25 -71 q 235 121 150 57 q 282 138 259 138 q 294 136 287 138 q 1095 567 798 382 l 160 567 l 160 639 l 1219 639 l 1219 557 q 358 83 850 326 q 700 -43 482 -47 m 1261 983 q 114 939 762 952 q 97 1014 109 981 q 1242 1057 675 1017 l 1261 983 m 558 876 l 619 913 q 791 701 715 803 l 725 661 q 558 876 661 752 z "},"乐":{"ha":1389,"x_min":45,"x_max":1352,"o":"m 1276 454 l 745 454 l 745 25 q 590 -143 752 -142 q 522 -145 560 -144 q 481 -146 503 -146 q 425 -146 461 -146 q 406 -66 420 -108 q 482 -70 444 -68 q 521 -71 500 -71 q 571 -71 538 -71 q 648 -48 628 -71 q 669 33 670 -26 l 669 454 l 149 454 l 221 1015 q 1207 1065 658 1017 l 1229 994 q 288 946 717 955 l 232 524 l 669 524 l 669 833 l 745 833 l 745 524 l 1276 524 l 1276 454 m 1287 -87 q 950 304 1122 115 l 1008 349 q 1352 -39 1191 150 l 1287 -87 m 371 343 l 437 302 q 104 -90 267 73 q 45 -39 73 -58 q 371 343 235 149 z "},"乒":{"ha":1389,"x_min":45,"x_max":1343,"o":"m 45 307 l 281 307 l 281 1038 q 1143 1093 661 1042 l 1171 1019 q 357 968 750 981 l 357 720 l 1270 720 l 1270 650 l 965 650 l 965 307 l 1343 307 l 1343 237 l 45 237 l 45 307 m 357 650 l 357 307 l 890 307 l 890 650 l 357 650 m 528 183 l 583 126 q 149 -165 394 -19 q 98 -98 127 -132 q 528 183 338 33 z "},"乓":{"ha":1389,"x_min":45,"x_max":1343,"o":"m 45 307 l 281 307 l 281 1038 q 1143 1093 684 1045 l 1171 1019 q 357 968 757 981 l 357 720 l 1270 720 l 1270 650 l 965 650 l 965 307 l 1343 307 l 1343 237 l 45 237 l 45 307 m 357 650 l 357 307 l 890 307 l 890 650 l 357 650 m 807 111 l 857 168 q 1258 -100 1049 45 l 1206 -165 q 807 111 986 -6 z "},"乔":{"ha":1389,"x_min":35,"x_max":1349,"o":"m 1310 261 q 771 654 923 368 l 644 654 q 79 250 530 424 q 35 323 54 296 q 557 654 428 452 l 66 654 l 66 724 l 597 724 q 667 970 648 827 q 157 958 391 962 q 140 1031 152 991 q 1229 1065 673 1032 l 1242 993 q 743 972 971 980 q 677 724 719 817 l 1324 724 l 1324 654 l 848 654 q 1349 336 1015 401 q 1310 261 1329 304 m 428 378 l 501 378 q 432 29 503 139 q 158 -180 366 -85 q 110 -115 132 -142 q 366 65 309 -30 q 428 378 429 156 m 897 378 l 971 378 l 971 -170 l 897 -170 l 897 378 z "},"乖":{"ha":1389,"x_min":47,"x_max":1344,"o":"m 1244 1011 q 730 987 1055 998 l 730 789 l 1343 789 l 1343 722 l 730 722 l 730 -168 l 660 -168 l 660 722 l 56 722 l 56 789 l 660 789 l 660 985 q 153 972 397 975 q 139 1040 149 995 q 1223 1078 746 1047 l 1244 1011 m 928 635 l 999 635 l 999 429 q 1270 538 1183 494 l 1308 476 q 999 361 1169 418 l 999 208 q 1018 140 998 158 q 1088 122 1036 121 l 1160 122 q 1261 195 1246 119 q 1278 282 1274 250 q 1344 256 1307 268 q 1325 163 1337 212 q 1171 54 1300 51 l 1071 54 q 928 199 923 50 l 928 635 m 82 484 l 392 484 l 392 635 l 463 635 l 463 29 l 392 29 l 392 179 q 71 96 247 144 l 47 168 q 392 248 233 208 l 392 416 l 82 416 l 82 484 z "},"乘":{"ha":1389,"x_min":45,"x_max":1344,"o":"m 94 -104 q 45 -41 79 -78 q 661 465 482 127 l 661 778 l 53 778 l 53 839 l 661 839 l 661 990 q 155 978 397 981 q 142 1044 150 1020 q 1226 1082 821 1051 l 1247 1017 q 730 993 1093 1006 l 730 839 l 1340 839 l 1340 778 l 730 778 l 730 467 q 1344 -26 928 104 q 1299 -93 1316 -57 q 730 353 891 59 l 730 -170 l 661 -170 l 661 354 q 94 -104 505 69 m 929 700 l 999 700 l 999 562 q 1276 646 1144 597 l 1305 589 q 999 500 1163 539 l 999 414 q 1018 346 998 363 q 1088 328 1036 327 l 1162 328 q 1261 392 1246 323 q 1280 485 1273 428 q 1344 460 1311 471 q 1322 359 1336 404 q 1175 264 1295 260 l 1069 264 q 929 408 925 260 l 929 700 m 82 595 l 393 595 l 393 700 l 463 700 l 463 258 l 393 258 l 393 351 q 180 303 316 334 q 74 279 113 288 l 53 347 q 393 412 218 374 l 393 533 l 82 533 l 82 595 z "},"乙":{"ha":1389,"x_min":109,"x_max":1299,"o":"m 1187 115 q 1219 347 1206 208 q 1299 319 1277 324 q 1260 71 1278 140 q 950 -94 1228 -99 l 358 -94 q 113 83 109 -96 q 233 315 113 195 q 1008 958 476 549 l 160 958 l 160 1034 l 1112 1034 l 1112 943 q 300 269 585 543 q 196 90 194 166 q 385 -17 191 -20 l 920 -17 q 1187 115 1166 -23 z "},"九":{"ha":1389,"x_min":41,"x_max":1353,"o":"m 478 1136 l 557 1136 q 550 860 557 991 l 986 860 l 986 61 q 1005 -26 985 -5 q 1082 -49 1023 -50 l 1143 -49 q 1255 43 1242 -51 q 1276 244 1267 106 q 1353 220 1320 229 q 1328 9 1342 85 q 1158 -126 1306 -131 l 1064 -126 q 941 -87 976 -127 q 907 52 906 -48 l 907 785 l 547 785 q 538 655 545 743 q 534 603 536 621 q 100 -160 524 109 q 41 -98 65 -120 q 457 621 455 155 q 467 785 463 702 l 78 785 l 78 860 l 471 860 q 478 1136 478 1040 z "},"乞":{"ha":1389,"x_min":65,"x_max":1300,"o":"m 1192 92 q 1214 273 1204 156 q 1295 252 1257 259 q 1263 45 1281 134 q 947 -121 1236 -125 l 443 -121 q 216 32 229 -115 q 322 207 220 127 q 940 587 541 368 l 273 587 l 273 660 l 1084 660 l 1084 578 q 385 154 640 340 q 301 36 301 91 q 471 -46 307 -44 l 942 -46 q 1192 92 1181 -53 m 123 611 q 65 667 102 635 q 392 1136 261 874 l 465 1107 q 382 962 430 1040 l 1300 962 l 1300 889 l 335 889 q 123 611 232 732 z "},"也":{"ha":1389,"x_min":37,"x_max":1354,"o":"m 37 610 l 233 659 l 233 981 l 310 981 l 310 676 l 663 765 l 663 1136 l 741 1136 l 741 785 l 1214 903 q 1194 465 1209 665 q 1003 267 1190 260 q 943 265 976 266 q 907 265 926 265 q 863 265 891 265 q 847 349 857 308 q 993 345 914 345 q 1120 473 1115 335 q 1136 812 1133 640 l 741 711 l 741 127 l 663 127 l 663 692 l 310 603 l 310 94 q 450 -41 304 -47 l 1069 -41 q 1247 68 1236 -48 q 1272 258 1264 157 q 1354 232 1320 241 q 1321 33 1340 124 q 1088 -115 1296 -122 l 428 -115 q 233 71 224 -123 l 233 583 l 50 538 l 37 610 z "},"习":{"ha":1389,"x_min":97,"x_max":1226,"o":"m 123 1022 l 1226 1022 q 1203 176 1219 580 q 904 -123 1209 -131 q 802 -125 859 -125 q 668 -126 750 -126 q 646 -35 659 -73 q 895 -40 772 -42 q 1074 9 1031 -39 q 1125 196 1120 53 q 1146 950 1145 618 l 123 950 l 123 1022 m 131 82 l 97 171 q 999 464 500 291 q 1007 376 1001 419 q 131 82 558 231 m 268 734 l 311 799 q 750 586 538 694 l 704 515 q 268 734 452 654 z "},"乡":{"ha":1389,"x_min":86,"x_max":1225,"o":"m 1149 633 l 1225 611 q 121 -175 1055 -32 q 86 -98 109 -140 q 997 334 783 17 q 357 290 677 315 q 222 273 280 285 l 191 358 q 310 410 264 378 q 733 703 581 587 q 328 682 473 692 q 208 669 258 677 l 179 749 q 278 799 229 765 q 711 1153 503 952 l 790 1114 q 334 754 585 934 q 766 773 483 759 q 828 777 808 775 q 1072 990 959 883 l 1149 947 q 363 364 773 614 q 1044 406 684 380 q 1149 633 1107 509 z "},"书":{"ha":1389,"x_min":50,"x_max":1314,"o":"m 562 1133 l 639 1133 l 639 882 l 1112 882 l 1084 493 l 1282 493 q 1261 170 1274 296 q 1043 -8 1250 -9 q 962 -9 1003 -9 q 918 -9 942 -9 q 854 -9 898 -9 q 836 68 848 28 q 1026 62 928 62 q 1186 178 1181 57 q 1203 422 1196 283 l 639 422 l 639 -167 l 562 -167 l 562 422 l 50 422 l 50 493 l 562 493 l 562 811 l 139 811 l 139 882 l 562 882 l 562 1133 m 1032 811 l 639 811 l 639 493 l 1010 493 l 1032 811 m 977 1046 l 1025 1100 q 1314 900 1171 1004 l 1263 839 q 977 1046 1120 950 z "},"买":{"ha":1389,"x_min":52,"x_max":1337,"o":"m 139 -174 q 90 -102 115 -134 q 728 275 655 45 l 52 275 l 52 346 l 749 346 q 790 901 792 509 l 867 901 q 827 346 869 528 l 1337 346 l 1337 275 l 808 275 q 783 214 800 249 q 1320 -74 1138 25 l 1268 -144 q 747 151 985 24 q 139 -174 621 -35 m 109 987 l 109 1057 l 1287 1057 l 1287 985 l 1150 701 q 1075 733 1115 719 l 1206 987 l 109 987 m 168 627 l 211 679 q 510 489 355 591 l 461 429 q 168 627 313 534 m 321 835 l 364 888 q 648 707 513 799 l 600 647 q 321 835 452 753 z "},"乱":{"ha":1389,"x_min":41,"x_max":1353,"o":"m 704 997 q 432 979 528 983 l 432 724 l 754 724 l 754 657 l 432 657 l 432 410 l 676 410 l 676 -167 l 606 -167 l 606 -61 l 184 -61 l 184 -167 l 114 -167 l 114 410 l 361 410 l 361 657 l 41 657 l 41 724 l 361 724 l 361 975 q 281 972 334 974 q 89 964 153 966 q 75 1034 85 998 q 692 1067 382 1038 l 704 997 m 184 345 l 184 3 l 606 3 l 606 345 l 184 345 m 871 1109 l 945 1109 l 945 16 q 1044 -79 941 -82 l 1147 -79 q 1257 12 1245 -83 q 1280 245 1272 102 q 1353 225 1318 233 q 1325 -12 1344 107 q 1168 -149 1303 -149 l 1025 -149 q 871 1 871 -149 l 871 1109 z "},"乳":{"ha":1389,"x_min":39,"x_max":1354,"o":"m 386 396 l 640 576 l 92 576 l 92 642 l 509 642 q 665 954 589 795 l 733 928 q 665 800 715 894 q 581 642 610 696 l 736 642 l 736 564 l 458 363 l 458 290 q 765 335 612 312 q 762 260 762 288 q 529 229 685 250 q 458 220 482 223 l 458 12 q 296 -144 465 -146 q 233 -146 264 -145 q 202 -146 218 -146 q 161 -146 188 -146 q 146 -71 155 -106 q 290 -75 210 -75 q 386 18 391 -80 l 386 210 q 248 189 340 203 q 53 160 119 170 l 39 237 q 87 243 55 239 q 386 281 284 267 l 386 396 m 872 1124 l 946 1124 l 946 29 q 969 -40 945 -22 q 1055 -60 992 -60 l 1147 -60 q 1258 33 1246 -62 q 1280 268 1274 134 q 1354 241 1310 256 q 1328 12 1343 113 q 1156 -131 1305 -133 l 1040 -131 q 872 24 866 -136 l 872 1124 m 754 1034 q 85 993 475 1011 q 68 1063 79 1029 q 742 1101 439 1072 l 754 1034 m 94 889 l 155 916 q 257 718 203 829 l 193 689 q 94 889 137 811 m 326 936 l 390 954 q 469 747 432 854 l 404 725 q 326 936 366 842 z "},"乾":{"ha":1389,"x_min":46,"x_max":1356,"o":"m 46 149 l 297 149 l 297 307 l 97 307 l 97 789 l 297 789 l 297 929 l 58 929 l 58 990 l 297 990 l 297 1133 l 367 1133 l 367 990 l 602 990 l 602 929 l 367 929 l 367 789 l 567 789 l 567 307 l 367 307 l 367 149 l 616 149 l 616 87 l 367 87 l 367 -163 l 297 -163 l 297 87 l 46 87 l 46 149 m 1284 249 q 1356 225 1322 233 q 1325 26 1344 117 q 1118 -131 1292 -131 l 857 -131 q 694 0 703 -125 q 739 131 694 68 q 1141 568 867 309 l 736 568 l 736 637 l 1235 637 l 1235 558 q 804 100 971 319 q 771 17 772 56 q 880 -61 773 -60 l 1105 -61 q 1257 47 1235 -62 q 1284 249 1274 132 m 667 618 q 604 657 640 638 q 823 1131 741 873 l 896 1111 q 831 946 856 1001 l 1333 946 l 1333 873 l 799 873 q 667 618 738 742 m 165 521 l 165 367 l 498 367 l 498 521 l 165 521 m 165 729 l 165 579 l 498 579 l 498 729 l 165 729 z "},"了":{"ha":1389,"x_min":87,"x_max":1265,"o":"m 682 643 l 1158 957 l 87 957 l 87 1032 l 1265 1032 l 1265 939 l 762 602 l 762 89 q 547 -135 771 -140 q 452 -136 496 -136 q 405 -136 430 -136 q 338 -136 383 -136 q 322 -45 332 -91 q 534 -50 417 -50 q 650 -20 618 -51 q 682 89 683 9 l 682 643 z "},"予":{"ha":1389,"x_min":72,"x_max":1275,"o":"m 72 581 l 1275 581 l 1275 500 l 1189 245 q 1105 267 1145 258 l 1192 507 l 745 507 l 745 77 q 543 -149 756 -153 q 334 -151 468 -151 q 315 -64 324 -96 q 530 -68 377 -68 q 634 -36 606 -68 q 664 78 665 -4 l 664 507 l 72 507 l 72 581 m 357 852 l 411 903 q 669 728 579 792 l 1063 978 l 193 978 l 193 1050 l 1175 1050 l 1175 964 l 736 681 q 750 671 741 677 q 793 639 779 650 l 733 583 q 357 852 543 729 z "},"争":{"ha":1389,"x_min":46,"x_max":1349,"o":"m 100 667 q 47 726 79 694 q 457 1149 297 909 l 526 1120 q 444 1009 499 1080 q 437 1002 439 1004 l 1003 1002 l 1003 930 l 852 770 l 1157 770 l 1157 518 l 1349 518 l 1349 453 l 1157 453 l 1157 123 l 1083 123 l 1083 199 l 700 199 l 700 36 q 513 -144 708 -144 q 437 -146 478 -146 q 393 -147 416 -147 q 339 -147 373 -147 q 325 -69 338 -121 q 395 -73 357 -72 q 437 -74 414 -73 q 498 -74 456 -74 q 598 -47 572 -75 q 625 50 626 -22 l 625 199 l 184 199 l 184 262 l 625 262 l 625 453 l 46 453 l 46 518 l 625 518 l 625 705 l 225 705 l 225 770 l 757 770 l 917 937 l 383 937 q 100 667 264 800 m 700 453 l 700 262 l 1083 262 l 1083 453 l 700 453 m 1083 705 l 700 705 l 700 518 l 1083 518 l 1083 705 z "},"事":{"ha":1389,"x_min":43,"x_max":1350,"o":"m 129 146 l 656 146 l 656 273 l 43 273 l 43 332 l 656 332 l 656 458 l 134 458 l 134 517 l 656 517 l 656 619 l 214 619 l 214 859 l 656 859 l 656 960 l 49 960 l 49 1018 l 656 1018 l 656 1143 l 726 1143 l 726 1018 l 1340 1018 l 1340 960 l 726 960 l 726 859 l 1173 859 l 1173 619 l 726 619 l 726 517 l 1197 517 l 1197 332 l 1350 332 l 1350 273 l 1197 273 l 1197 18 l 1128 18 l 1128 87 l 726 87 l 726 18 q 561 -146 736 -149 q 386 -149 471 -148 q 371 -74 382 -109 q 549 -78 412 -77 q 634 -56 613 -79 q 656 26 656 -36 l 656 87 l 129 87 l 129 146 m 726 273 l 726 146 l 1128 146 l 1128 273 l 726 273 m 1128 458 l 726 458 l 726 332 l 1128 332 l 1128 458 m 1103 803 l 726 803 l 726 675 l 1103 675 l 1103 803 m 283 803 l 283 675 l 656 675 l 656 803 l 283 803 z "},"二":{"ha":1389,"x_min":57,"x_max":1331,"o":"m 157 953 l 1232 953 l 1232 875 l 157 875 l 157 953 m 57 71 l 1331 71 l 1331 -5 l 57 -5 l 57 71 z "},"于":{"ha":1389,"x_min":41,"x_max":1346,"o":"m 151 1038 l 1243 1038 l 1243 964 l 753 964 l 753 581 l 1346 581 l 1346 505 l 753 505 l 753 49 q 574 -144 759 -144 q 380 -147 467 -147 q 364 -61 374 -103 q 545 -65 445 -65 q 644 -37 618 -66 q 672 61 673 -11 l 672 505 l 41 505 l 41 581 l 672 581 l 672 964 l 151 964 l 151 1038 z "},"亏":{"ha":1389,"x_min":45,"x_max":1346,"o":"m 262 330 l 350 653 l 45 653 l 45 725 l 1346 725 l 1346 653 l 429 653 l 361 401 l 1181 401 q 1154 81 1170 225 q 873 -139 1145 -148 q 751 -140 810 -140 q 690 -140 722 -140 q 612 -140 663 -140 q 596 -54 606 -96 q 865 -60 705 -60 q 1020 -28 978 -60 q 1075 94 1065 3 q 1096 330 1091 227 l 262 330 m 170 1039 l 1221 1039 l 1221 968 l 170 968 l 170 1039 z "},"云":{"ha":1389,"x_min":50,"x_max":1348,"o":"m 1198 -122 q 1172 -86 1190 -111 q 1105 0 1130 -30 q 301 -33 719 -11 q 182 -49 222 -39 l 139 43 q 262 144 196 72 q 567 550 450 353 l 50 550 l 50 624 l 1348 624 l 1348 550 l 595 550 l 659 526 q 273 45 484 280 q 1050 71 699 57 q 835 343 944 208 l 900 383 q 1271 -75 1057 196 l 1198 -122 m 176 1040 l 1221 1040 l 1221 966 l 176 966 l 176 1040 z "},"互":{"ha":1389,"x_min":66,"x_max":1328,"o":"m 227 260 l 340 954 l 115 954 l 115 1025 l 1276 1025 l 1276 954 l 418 954 l 380 726 l 1118 726 l 1067 1 l 1328 1 l 1328 -68 l 66 -68 l 66 1 l 989 1 l 1007 260 l 227 260 m 1036 659 l 370 659 l 315 329 l 1013 329 l 1036 659 z "},"五":{"ha":1389,"x_min":41,"x_max":1353,"o":"m 90 1051 l 1289 1051 l 1289 979 l 600 979 l 534 602 l 1124 602 l 1124 -21 l 1353 -21 l 1353 -93 l 41 -93 l 41 -21 l 350 -21 l 444 530 l 126 530 l 126 602 l 456 602 l 521 979 l 90 979 l 90 1051 m 1047 530 l 524 530 l 429 -21 l 1047 -21 l 1047 530 z "},"井":{"ha":1389,"x_min":45,"x_max":1346,"o":"m 935 1137 l 1011 1137 l 1011 842 l 1303 842 l 1303 768 l 1011 768 l 1011 408 l 1346 408 l 1346 335 l 1011 335 l 1011 -161 l 935 -161 l 935 335 l 472 335 q 139 -171 479 13 q 87 -106 112 -132 q 397 335 406 55 l 45 335 l 45 408 l 399 408 l 399 768 l 83 768 l 83 842 l 399 842 l 399 1137 l 475 1137 l 475 842 l 935 842 l 935 1137 m 475 408 l 935 408 l 935 768 l 475 768 l 475 408 z "},"亚":{"ha":1389,"x_min":37,"x_max":1350,"o":"m 89 1039 l 1299 1039 l 1299 966 l 903 966 l 903 -5 l 1350 -5 l 1350 -78 l 37 -78 l 37 -5 l 481 -5 l 481 966 l 89 966 l 89 1039 m 555 966 l 555 -5 l 828 -5 l 828 966 l 555 966 m 302 229 q 104 760 224 464 l 174 783 q 379 256 274 543 l 302 229 m 1064 225 l 996 256 q 1222 783 1114 498 l 1293 758 q 1064 225 1176 459 z "},"些":{"ha":1389,"x_min":46,"x_max":1343,"o":"m 171 991 l 239 991 l 239 468 q 333 483 269 473 q 435 498 401 493 l 435 1129 l 504 1129 l 504 872 l 736 872 l 736 808 l 504 808 l 504 510 q 743 551 672 538 q 743 513 743 528 q 745 482 744 497 q 61 366 446 437 l 46 440 q 117 450 67 443 q 171 458 152 456 l 171 991 m 829 1133 l 899 1133 l 899 787 q 1244 1002 1080 875 l 1289 947 q 899 718 1105 817 l 899 562 q 922 484 898 504 q 1013 463 946 462 l 1136 463 q 1258 546 1248 457 q 1279 700 1270 604 q 1343 679 1306 690 q 1318 518 1332 591 q 1149 399 1295 397 l 985 399 q 864 434 898 398 q 829 555 829 468 l 829 1133 m 75 -32 l 1315 -32 l 1315 -100 l 75 -100 l 75 -32 m 215 237 l 1157 237 l 1157 171 l 215 171 l 215 237 z "},"亡":{"ha":1389,"x_min":41,"x_max":1344,"o":"m 41 863 l 1344 863 l 1344 790 l 326 790 l 326 -11 l 1282 -11 l 1282 -83 l 249 -83 l 249 790 l 41 790 l 41 863 m 608 1093 l 673 1129 q 831 909 761 1013 l 761 869 q 608 1093 703 963 z "},"交":{"ha":1389,"x_min":53,"x_max":1329,"o":"m 461 541 q 694 207 564 330 q 922 551 815 319 l 993 521 q 753 157 884 284 q 1326 -78 937 9 q 1284 -157 1309 -106 q 694 103 876 -47 q 94 -168 522 -43 l 53 -90 q 636 155 471 20 q 395 505 509 276 l 461 541 m 62 936 l 697 936 q 603 1107 661 1016 l 675 1141 q 775 970 732 1048 l 710 936 l 1329 936 l 1329 864 l 62 864 l 62 936 m 479 783 l 539 724 q 127 415 353 568 q 78 485 109 446 q 479 783 288 610 m 1257 443 q 851 725 1075 579 l 900 782 q 1310 510 1090 659 l 1257 443 z "},"亥":{"ha":1389,"x_min":57,"x_max":1325,"o":"m 110 81 q 64 153 87 123 q 710 509 486 300 q 301 488 493 503 q 205 472 252 484 l 171 546 q 258 600 222 568 q 529 884 397 720 l 57 884 l 57 954 l 690 954 q 628 1095 674 989 q 616 1121 620 1113 l 692 1147 q 768 981 713 1097 l 703 954 l 1325 954 l 1325 884 l 627 884 q 318 557 508 742 q 777 575 504 567 q 928 779 865 672 l 999 742 q 110 81 739 309 m 216 -179 q 170 -109 193 -139 q 1125 583 826 91 l 1193 545 q 875 175 1057 328 q 1220 -44 987 107 q 1291 -90 1266 -75 l 1234 -159 q 815 127 1012 3 q 216 -179 578 -56 z "},"亦":{"ha":1389,"x_min":33,"x_max":1348,"o":"m 611 1117 l 686 1149 q 791 939 747 1035 l 718 907 l 1341 907 l 1341 835 l 925 835 l 925 41 q 778 -139 929 -140 q 698 -140 740 -140 q 654 -140 677 -140 q 596 -140 633 -140 q 579 -56 588 -90 q 750 -61 675 -60 q 829 -39 810 -62 q 848 47 849 -19 l 848 835 l 572 835 q 567 648 570 715 q 136 -172 583 55 q 82 -110 113 -141 q 397 182 323 36 q 490 647 477 322 q 492 686 490 659 q 494 835 494 783 l 52 835 l 52 907 l 711 907 q 611 1117 669 1004 m 1067 619 l 1135 654 q 1348 265 1238 476 l 1272 227 q 1067 619 1159 457 m 212 650 l 289 623 q 110 225 199 395 q 33 260 67 248 q 212 650 137 437 z "},"产":{"ha":1389,"x_min":29,"x_max":1343,"o":"m 175 595 l 831 595 q 991 856 911 716 l 1064 818 q 913 595 995 710 l 1307 595 l 1307 525 l 250 525 l 250 418 q 90 -164 261 54 q 29 -111 57 -131 q 143 108 111 -9 q 175 418 176 224 l 175 595 m 656 1118 l 729 1139 q 785 982 763 1049 l 1343 982 l 1343 911 l 65 911 l 65 982 l 704 982 q 660 1108 690 1026 q 656 1118 657 1115 m 370 819 l 432 860 q 586 659 492 785 l 519 614 q 370 819 444 724 z "},"亩":{"ha":1389,"x_min":58,"x_max":1331,"o":"m 168 701 l 1218 701 l 1218 -151 l 1145 -151 l 1145 -53 l 241 -53 l 241 -151 l 168 -151 l 168 701 m 241 292 l 241 12 l 657 12 l 657 292 l 241 292 m 729 292 l 729 12 l 1145 12 l 1145 292 l 729 292 m 241 635 l 241 357 l 657 357 l 657 635 l 241 635 m 1145 635 l 729 635 l 729 357 l 1145 357 l 1145 635 m 58 947 l 699 947 q 615 1124 657 1043 l 681 1150 q 770 974 724 1073 l 710 947 l 1331 947 l 1331 879 l 58 879 l 58 947 z "},"享":{"ha":1389,"x_min":39,"x_max":1346,"o":"m 237 802 l 1139 802 l 1139 547 l 237 547 l 237 802 m 669 258 l 997 364 l 160 364 l 160 428 l 1157 428 l 1157 357 l 743 212 l 743 179 l 1346 179 l 1346 114 l 743 114 l 743 -5 q 586 -160 749 -160 q 511 -161 551 -161 q 469 -161 492 -161 q 410 -161 450 -161 q 395 -85 406 -125 q 566 -90 471 -90 q 647 -71 626 -91 q 669 1 670 -52 l 669 114 l 39 114 l 39 179 l 669 179 l 669 258 m 54 979 l 677 979 q 625 1124 654 1053 l 699 1145 q 755 979 728 1063 l 1335 979 l 1335 914 l 54 914 l 54 979 m 310 737 l 310 611 l 1067 611 l 1067 737 l 310 737 z "},"京":{"ha":1389,"x_min":41,"x_max":1344,"o":"m 222 715 l 1162 715 l 1162 339 l 745 339 l 745 -9 q 607 -149 747 -145 q 535 -151 572 -150 q 497 -151 517 -151 q 444 -151 479 -151 q 428 -74 438 -112 q 579 -81 502 -81 q 671 -4 675 -84 l 671 339 l 222 339 l 222 715 m 294 648 l 294 406 l 1090 406 l 1090 648 l 294 648 m 607 1121 l 679 1147 q 757 966 720 1058 l 690 940 l 1344 940 l 1344 872 l 46 872 l 46 940 l 682 940 q 607 1121 654 1013 m 399 215 l 450 160 q 86 -82 292 41 q 41 -20 66 -48 q 399 215 227 79 m 916 155 l 958 211 q 1320 -7 1111 123 l 1274 -71 q 916 155 1090 53 z "},"亭":{"ha":1389,"x_min":68,"x_max":1320,"o":"m 262 833 l 1125 833 l 1125 581 l 262 581 l 262 833 m 74 457 l 1315 457 l 1315 236 l 1243 236 l 1243 392 l 146 392 l 146 236 l 74 236 l 74 457 m 240 249 l 1141 249 l 1141 184 l 765 184 l 765 -1 q 618 -150 768 -151 q 538 -151 578 -151 q 494 -151 518 -151 q 436 -151 475 -151 q 421 -74 432 -117 q 589 -81 511 -81 q 669 -63 648 -81 q 692 0 692 -46 l 692 184 l 240 184 l 240 249 m 627 1129 l 700 1146 q 737 1017 719 1084 l 1320 1017 l 1320 951 l 68 951 l 68 1017 l 661 1017 q 627 1129 648 1069 m 335 770 l 335 644 l 1053 644 l 1053 770 l 335 770 z "},"亮":{"ha":1389,"x_min":56,"x_max":1350,"o":"m 277 827 l 1103 827 l 1103 571 l 277 571 l 277 827 m 935 267 l 935 18 q 1019 -61 929 -66 l 1158 -61 q 1263 17 1251 -65 q 1279 158 1273 74 q 1350 136 1310 146 q 1331 0 1341 52 q 1169 -126 1311 -132 l 1004 -126 q 863 12 855 -133 l 863 203 l 467 203 l 467 180 q 469 138 469 156 q 87 -174 469 -119 q 56 -104 76 -141 q 328 -10 261 -69 q 395 179 397 43 l 395 267 l 935 267 m 92 453 l 1296 453 l 1296 262 l 1223 262 l 1223 387 l 164 387 l 164 262 l 92 262 l 92 453 m 68 1007 l 667 1007 q 636 1107 658 1040 q 629 1129 631 1122 l 703 1147 q 743 1007 718 1099 l 1320 1007 l 1320 942 l 68 942 l 68 1007 m 349 762 l 349 635 l 1031 635 l 1031 762 l 349 762 z "},"亲":{"ha":1389,"x_min":45,"x_max":1343,"o":"m 118 359 l 672 359 l 672 566 l 45 566 l 45 632 l 819 632 q 990 885 911 758 l 1059 848 q 904 632 984 737 l 1343 632 l 1343 566 l 746 566 l 746 359 l 1270 359 l 1270 293 l 746 293 l 746 36 q 566 -144 755 -145 q 435 -147 507 -148 q 406 -147 416 -147 q 390 -69 400 -104 q 465 -75 428 -73 q 555 -77 501 -77 q 646 -52 623 -77 q 672 39 673 -27 l 672 293 l 118 293 l 118 359 m 635 1124 l 707 1146 q 772 971 736 1071 l 1275 971 l 1275 904 l 113 904 l 113 971 l 690 971 q 667 1035 684 989 q 635 1124 644 1101 m 908 150 l 958 205 q 1291 -20 1095 115 l 1238 -81 q 908 150 1074 41 m 378 210 l 439 158 q 125 -81 293 35 q 71 -20 107 -55 q 378 210 244 88 m 353 850 l 416 885 q 555 684 487 787 l 489 646 q 353 850 441 725 z "},"人":{"ha":1389,"x_min":49,"x_max":1340,"o":"m 1286 -136 q 699 729 765 136 q 106 -153 625 147 q 49 -90 69 -112 q 637 782 569 209 q 653 926 649 852 q 657 1118 657 994 l 737 1118 q 735 1056 736 1097 q 729 911 732 958 q 1340 -68 812 160 q 1286 -136 1312 -98 z "},"亿":{"ha":1389,"x_min":32,"x_max":1352,"o":"m 1255 104 q 1278 336 1270 213 q 1352 310 1324 317 q 1349 276 1351 299 q 1328 68 1335 112 q 1084 -107 1300 -113 l 693 -107 q 478 53 484 -104 q 570 271 477 134 q 1149 953 742 508 l 547 953 l 547 1026 l 1238 1026 l 1238 940 q 659 262 833 496 q 559 58 558 125 q 732 -33 558 -34 l 1065 -33 q 1089 -34 1077 -34 q 1255 104 1246 -34 m 78 387 q 32 465 57 428 q 361 1131 253 758 l 437 1111 q 319 808 373 928 l 319 -164 l 244 -164 l 244 654 q 78 387 170 516 z "},"什":{"ha":1389,"x_min":25,"x_max":1354,"o":"m 471 635 l 879 635 l 879 1124 l 957 1124 l 957 635 l 1354 635 l 1354 561 l 957 561 l 957 -165 l 879 -165 l 879 561 l 471 561 l 471 635 m 77 390 q 25 454 50 425 q 403 1124 270 735 l 482 1101 q 332 772 409 918 l 332 -167 l 256 -167 l 256 637 q 77 390 170 498 z "},"仁":{"ha":1389,"x_min":29,"x_max":1357,"o":"m 83 385 q 29 454 71 405 q 351 1133 252 764 l 431 1111 q 318 814 374 943 l 318 -170 l 241 -170 l 241 652 q 83 385 169 507 m 467 35 l 1357 35 l 1357 -39 l 467 -39 l 467 35 m 550 951 l 1287 951 l 1287 876 l 550 876 l 550 951 z "},"仅":{"ha":1389,"x_min":29,"x_max":1356,"o":"m 469 970 l 469 1038 l 1261 1038 l 1261 965 q 935 229 1155 483 q 1356 -82 1082 66 q 1300 -154 1334 -104 q 880 170 1025 8 q 427 -165 718 -1 q 372 -96 389 -115 q 829 229 668 62 q 545 970 627 481 l 469 970 m 1185 970 l 619 970 q 884 289 697 515 q 1185 970 1085 520 m 62 429 q 29 510 50 466 q 354 1136 227 766 l 428 1114 q 294 804 359 935 l 294 -165 l 220 -165 l 220 661 q 62 429 144 530 z "},"仆":{"ha":1389,"x_min":37,"x_max":1337,"o":"m 79 419 q 37 493 60 457 q 392 1128 256 770 l 467 1101 q 339 825 414 974 l 339 -167 l 262 -167 l 262 688 q 79 419 179 549 m 782 -167 l 782 1128 l 860 1128 l 860 -167 l 782 -167 m 876 711 l 928 764 q 1337 407 1107 614 l 1279 346 q 876 711 1049 566 z "},"仇":{"ha":1389,"x_min":37,"x_max":1353,"o":"m 450 833 l 661 833 q 669 1129 667 974 l 746 1129 q 737 833 746 991 l 1089 833 l 1089 25 q 1154 -49 1085 -54 l 1187 -49 q 1260 33 1249 -52 q 1280 254 1274 121 q 1353 235 1318 242 q 1332 12 1346 116 q 1190 -122 1316 -125 l 1139 -122 q 1014 20 1010 -127 l 1014 760 l 734 760 q 728 631 729 673 q 432 -155 724 121 q 368 -103 395 -121 q 653 646 652 152 q 656 698 654 663 q 659 760 658 739 l 450 760 l 450 833 m 75 386 q 37 471 60 431 q 325 1118 224 732 l 401 1099 q 296 794 352 931 l 296 -164 l 222 -164 l 222 631 q 75 386 156 496 z "},"今":{"ha":1389,"x_min":22,"x_max":1353,"o":"m 1303 532 q 694 1034 926 717 q 75 513 482 748 q 22 582 46 553 q 684 1150 456 804 l 770 1136 q 753 1114 764 1128 q 737 1090 743 1098 q 1353 604 969 772 q 1303 532 1331 576 m 189 319 l 189 392 l 1140 392 l 1140 313 l 771 -170 q 704 -121 744 -146 l 1048 319 l 189 319 m 576 710 l 640 749 q 802 522 717 647 l 732 481 q 576 710 649 610 z "},"介":{"ha":1389,"x_min":32,"x_max":1353,"o":"m 1300 500 q 694 1015 912 711 q 83 481 466 711 q 32 554 55 526 q 685 1133 453 779 l 772 1121 q 752 1091 766 1111 q 739 1074 743 1080 q 1353 575 979 747 q 1300 500 1331 547 m 396 596 l 473 596 q 469 397 473 505 q 195 -179 477 -1 q 136 -119 174 -156 q 393 400 400 30 q 395 479 395 437 q 396 526 396 499 q 396 596 396 547 m 896 599 l 974 599 l 974 -164 l 896 -164 l 896 599 z "},"仍":{"ha":1389,"x_min":33,"x_max":1305,"o":"m 960 627 l 1111 958 l 734 958 q 675 251 734 464 q 444 -159 624 36 q 380 -103 405 -120 q 604 280 556 80 q 659 958 659 476 l 504 958 l 504 1032 l 1190 1032 l 1190 949 l 1038 615 l 1305 615 q 1289 107 1301 317 q 1074 -130 1286 -134 q 988 -132 1032 -131 q 943 -132 967 -132 q 884 -132 922 -132 q 869 -47 878 -87 q 1061 -53 954 -53 q 1214 117 1209 -62 q 1227 543 1226 332 l 960 543 l 960 627 m 78 393 q 33 457 51 435 q 335 1121 229 746 q 375 1109 351 1116 q 411 1097 397 1101 q 310 821 369 960 l 310 -163 l 235 -163 l 235 659 q 78 393 149 492 z "},"从":{"ha":1389,"x_min":31,"x_max":1353,"o":"m 848 1125 l 925 1125 q 925 990 925 1038 q 924 886 924 935 q 1353 -79 960 171 q 1297 -144 1313 -121 q 890 631 942 117 q 475 -161 861 174 q 415 -100 444 -124 q 842 787 836 236 q 848 1125 848 930 m 319 1125 l 396 1125 q 379 742 393 942 q 374 674 378 718 q 370 625 371 642 l 419 664 q 694 339 537 530 l 632 288 q 445 517 572 363 q 368 610 394 578 q 96 -144 336 176 q 31 -92 70 -120 q 306 783 290 215 q 319 1125 318 988 z "},"仑":{"ha":1389,"x_min":43,"x_max":1343,"o":"m 1095 533 q 380 236 772 368 l 380 81 q 529 -46 382 -45 l 950 -46 q 1101 71 1086 -50 q 1121 241 1115 159 q 1197 224 1160 231 q 1173 47 1187 129 q 961 -121 1145 -126 l 507 -121 q 302 72 299 -123 l 302 611 l 380 611 l 380 315 q 1046 600 784 445 l 1095 533 m 1296 572 q 693 1032 897 760 q 90 555 482 767 q 43 625 72 586 q 686 1150 464 827 l 770 1133 l 736 1088 q 1343 646 966 796 q 1296 572 1318 612 z "},"仓":{"ha":1389,"x_min":37,"x_max":1346,"o":"m 297 650 l 1054 650 q 1038 350 1048 467 q 833 179 1031 174 q 765 178 802 178 q 726 178 747 178 q 679 178 708 178 q 665 258 674 218 q 825 253 734 253 q 965 363 964 246 q 977 579 974 458 l 374 579 l 374 79 q 519 -47 367 -53 l 993 -47 q 1166 64 1147 -52 q 1196 243 1182 130 q 1270 222 1234 231 q 1232 28 1251 104 q 1003 -121 1199 -124 l 500 -121 q 297 65 294 -123 l 297 650 m 1299 575 q 700 1026 897 767 q 85 557 489 767 q 37 629 58 602 q 697 1150 481 840 l 781 1133 q 757 1100 773 1122 q 743 1082 748 1088 q 1346 652 973 799 q 1299 575 1317 611 z "},"仔":{"ha":1389,"x_min":31,"x_max":1357,"o":"m 447 528 l 905 528 l 905 663 l 1178 970 l 562 970 l 562 1043 l 1271 1043 l 1271 957 l 982 636 l 982 528 l 1357 528 l 1357 453 l 982 453 l 982 43 q 945 -99 983 -62 q 808 -142 911 -138 q 727 -144 770 -143 q 682 -144 707 -144 q 619 -144 660 -144 q 603 -60 613 -99 q 796 -65 687 -65 q 882 -41 859 -66 q 905 47 906 -18 l 905 453 l 447 453 l 447 528 m 75 429 q 31 504 60 460 q 353 1126 235 763 l 429 1104 q 300 802 363 928 l 300 -160 l 224 -160 l 224 657 q 75 429 153 532 z "},"他":{"ha":1389,"x_min":29,"x_max":1357,"o":"m 380 595 l 515 635 l 515 968 l 589 968 l 589 657 l 852 737 l 852 1126 l 926 1126 l 926 760 l 1279 867 q 1264 468 1273 595 q 1223 319 1255 357 q 1109 277 1192 279 q 1017 275 1078 275 q 1002 347 1014 306 q 1043 345 1021 346 q 1066 345 1053 345 q 1099 345 1076 345 q 1192 463 1189 337 q 1204 774 1202 661 l 926 688 l 926 114 l 852 114 l 852 665 l 589 585 l 589 79 q 618 -29 588 -3 q 736 -56 646 -57 l 1079 -56 q 1257 56 1242 -62 q 1286 240 1276 146 q 1357 216 1323 223 q 1326 28 1344 107 q 1258 -91 1308 -58 q 1100 -125 1208 -125 l 713 -125 q 515 57 505 -135 l 515 562 l 392 525 l 380 595 m 65 397 q 33 471 53 429 q 29 479 31 477 q 354 1129 235 763 l 428 1108 q 290 781 368 945 l 290 -167 l 216 -167 l 216 637 q 65 397 140 498 z "},"仗":{"ha":1389,"x_min":35,"x_max":1349,"o":"m 519 682 l 590 703 q 812 240 663 397 q 954 807 953 422 l 424 807 l 424 876 l 954 876 l 954 1133 l 1029 1133 l 1029 876 l 1344 876 l 1344 807 l 1029 807 q 868 184 1029 390 q 1349 -66 1031 40 q 1303 -143 1324 -104 q 821 126 979 -16 q 432 -168 701 -10 q 375 -98 407 -132 q 764 180 649 50 q 519 682 593 359 m 66 416 q 35 501 54 460 q 350 1128 243 780 l 427 1105 q 285 770 365 929 l 285 -167 l 212 -167 l 212 635 q 66 416 142 513 z "},"付":{"ha":1389,"x_min":37,"x_max":1328,"o":"m 429 807 l 1054 807 l 1054 1128 l 1131 1128 l 1131 807 l 1328 807 l 1328 734 l 1131 734 l 1131 41 q 943 -147 1138 -149 q 755 -150 853 -150 q 737 -65 749 -103 q 924 -71 846 -71 q 1054 46 1060 -75 l 1054 734 l 429 734 l 429 807 m 69 410 q 37 500 54 459 q 361 1135 245 776 l 441 1112 q 309 800 385 958 l 309 -168 l 233 -168 l 233 659 q 69 410 152 517 m 490 534 l 551 581 q 827 249 676 438 l 760 197 q 490 534 604 404 z "},"仙":{"ha":1389,"x_min":29,"x_max":1280,"o":"m 517 -58 l 517 848 l 591 848 l 591 12 l 860 12 l 860 1129 l 935 1129 l 935 12 l 1206 12 l 1206 847 l 1280 847 l 1280 -150 l 1206 -150 l 1206 -58 l 517 -58 m 65 397 q 33 471 53 429 q 29 479 31 477 q 354 1129 235 763 l 428 1108 q 290 781 368 945 l 290 -167 l 216 -167 l 216 637 q 65 397 140 498 z "},"代":{"ha":1389,"x_min":25,"x_max":1353,"o":"m 418 667 l 741 701 q 724 1135 728 879 l 800 1135 q 814 710 802 880 l 1318 765 l 1328 696 l 819 639 q 947 98 847 296 q 1146 -82 1035 -83 q 1246 14 1221 -83 q 1282 187 1265 85 q 1353 161 1317 173 q 1317 -8 1339 75 q 1150 -159 1276 -158 q 880 61 989 -159 q 746 631 775 265 l 431 596 l 418 667 m 58 415 q 25 496 48 449 q 357 1129 231 764 l 431 1107 q 304 814 369 946 l 304 -171 l 229 -171 l 229 672 q 58 415 150 534 m 949 1022 l 1000 1069 q 1232 873 1114 977 l 1175 821 q 949 1022 1083 908 z "},"令":{"ha":1389,"x_min":24,"x_max":1353,"o":"m 869 -179 q 350 174 608 8 l 400 231 q 683 47 472 184 q 701 35 695 39 l 1050 380 l 191 380 l 191 453 l 1147 453 l 1147 372 l 768 -8 q 830 -50 788 -22 q 925 -114 892 -92 l 869 -179 m 1301 538 q 696 1031 917 722 q 77 519 486 753 q 24 589 49 559 q 688 1149 473 821 l 772 1135 q 762 1120 769 1130 q 739 1088 755 1110 q 1353 612 975 772 q 1301 538 1331 583 m 570 724 l 629 768 q 810 572 722 671 l 746 524 q 570 724 661 629 z "},"以":{"ha":1389,"x_min":98,"x_max":1357,"o":"m 1289 -126 q 999 212 1147 43 q 538 -174 880 5 q 485 -102 511 -134 q 1057 760 1064 137 q 1067 1107 1067 906 l 1143 1107 q 1133 761 1143 962 q 1035 282 1118 460 q 1357 -66 1206 104 l 1289 -126 m 222 96 q 608 342 414 215 q 628 253 614 294 q 228 3 469 159 q 157 -53 194 -18 l 98 16 q 136 73 126 47 q 146 139 146 98 l 146 1088 l 222 1088 l 222 96 m 672 774 q 493 1100 581 955 l 558 1133 q 746 814 645 996 l 672 774 z "},"仪":{"ha":1389,"x_min":24,"x_max":1343,"o":"m 389 -96 q 829 203 672 44 q 515 964 602 446 l 591 981 q 885 262 665 499 q 1183 996 1103 507 l 1261 982 q 940 203 1171 465 q 1343 -77 1084 62 q 1287 -153 1308 -120 q 885 143 1019 8 q 441 -171 723 -23 q 389 -96 420 -134 m 65 410 q 24 481 47 444 q 351 1124 245 780 l 428 1100 q 292 778 370 935 l 292 -170 l 220 -170 l 220 642 q 65 410 144 509 m 757 1093 l 823 1121 q 965 835 890 994 l 896 802 q 757 1093 825 962 z "},"们":{"ha":1389,"x_min":33,"x_max":1289,"o":"m 1282 36 q 1104 -149 1289 -150 q 1023 -150 1070 -149 q 911 -150 980 -150 q 896 -71 904 -104 q 1082 -77 989 -77 q 1181 -50 1154 -77 q 1208 46 1209 -23 l 1208 946 l 852 946 l 852 1018 l 1282 1018 l 1282 36 m 65 400 q 33 490 51 448 q 332 1122 243 804 l 407 1099 q 289 802 356 951 l 289 -167 l 216 -167 l 216 654 q 65 400 154 534 m 519 -151 l 519 819 l 593 819 l 593 -151 l 519 -151 m 538 1078 l 597 1120 q 762 925 671 1036 l 699 879 q 538 1078 627 974 z "},"仰":{"ha":1389,"x_min":36,"x_max":1288,"o":"m 865 989 l 1283 989 l 1283 218 q 1150 54 1288 56 q 1006 52 1097 52 q 994 126 1002 89 q 1116 122 1053 122 q 1192 144 1171 121 q 1213 222 1213 165 l 1213 922 l 937 922 l 937 -168 l 865 -168 l 865 989 m 36 484 q 306 1140 212 781 l 375 1124 q 275 819 332 964 l 275 -168 l 204 -168 l 204 654 q 74 410 152 542 q 36 484 55 452 m 555 962 l 555 114 q 796 237 690 186 q 800 182 796 220 q 802 164 801 169 q 568 45 715 124 q 501 0 534 26 l 454 56 q 485 139 485 91 l 485 1017 q 815 1101 646 1045 l 846 1038 q 555 962 710 996 z "},"仲":{"ha":1389,"x_min":29,"x_max":1300,"o":"m 492 847 l 859 847 l 859 1131 l 932 1131 l 932 847 l 1300 847 l 1300 205 l 1227 205 l 1227 285 l 932 285 l 932 -171 l 859 -171 l 859 285 l 564 285 l 564 205 l 492 205 l 492 847 m 1227 777 l 932 777 l 932 355 l 1227 355 l 1227 777 m 564 777 l 564 355 l 859 355 l 859 777 l 564 777 m 66 406 q 31 486 52 446 q 29 490 30 489 q 347 1139 235 767 l 425 1118 q 294 802 357 930 l 294 -171 l 221 -171 l 221 654 q 66 406 146 515 z "},"件":{"ha":1389,"x_min":32,"x_max":1356,"o":"m 913 1133 l 986 1133 l 986 818 l 1310 818 l 1310 749 l 986 749 l 986 380 l 1356 380 l 1356 310 l 986 310 l 986 -167 l 913 -167 l 913 310 l 415 310 l 415 380 l 913 380 l 913 749 l 623 749 q 510 497 574 621 q 437 536 483 515 q 631 1034 562 749 l 707 1015 q 647 818 677 903 l 913 818 l 913 1133 m 68 387 q 32 469 55 422 q 329 1125 226 753 l 407 1104 q 300 812 367 973 l 300 -168 l 227 -168 l 227 654 q 68 387 148 499 z "},"价":{"ha":1389,"x_min":32,"x_max":1356,"o":"m 32 473 q 323 1135 226 782 l 400 1114 q 290 811 351 954 l 290 -168 l 216 -168 l 216 648 q 74 395 151 515 q 32 473 55 437 m 1305 600 q 875 1014 1017 782 q 437 583 724 777 q 385 646 414 617 q 868 1146 724 856 l 950 1136 q 930 1103 943 1125 q 914 1075 920 1084 q 1356 668 1074 820 q 1305 600 1327 635 m 703 604 l 703 436 q 704 385 704 402 q 481 -171 704 14 q 418 -118 456 -145 q 585 107 543 -7 q 628 437 629 221 l 628 604 l 703 604 m 1019 604 l 1095 604 l 1095 -159 l 1019 -159 l 1019 604 z "},"任":{"ha":1389,"x_min":33,"x_max":1356,"o":"m 478 -20 l 879 -20 l 879 441 l 454 441 l 454 513 l 879 513 l 879 951 q 518 929 710 939 q 507 1000 515 967 q 1282 1059 937 1020 l 1297 986 q 954 957 1109 967 l 954 513 l 1356 513 l 1356 441 l 954 441 l 954 -20 l 1336 -20 l 1336 -89 l 478 -89 l 478 -20 m 66 408 q 33 492 51 452 q 359 1129 237 770 l 435 1105 q 309 808 372 939 l 309 -170 l 236 -170 l 236 669 q 66 408 149 515 z "},"份":{"ha":1389,"x_min":32,"x_max":1350,"o":"m 507 543 l 1156 543 q 1135 58 1149 271 q 918 -140 1129 -138 q 848 -142 885 -142 q 808 -143 830 -143 q 754 -143 790 -143 q 733 -65 748 -107 q 908 -69 815 -69 q 1061 71 1055 -73 q 1079 476 1075 271 l 746 476 q 432 -168 752 66 q 376 -107 406 -134 q 672 476 683 106 l 507 476 l 507 543 m 72 425 q 32 504 51 473 q 346 1125 231 770 l 422 1103 q 277 760 357 920 l 277 -167 l 205 -167 l 205 631 q 72 425 151 536 m 913 1101 l 979 1126 q 1350 635 1101 804 q 1293 568 1321 606 q 913 1101 1022 780 m 425 538 q 368 595 397 569 q 711 1074 601 794 l 783 1046 q 425 538 663 754 z "},"仿":{"ha":1389,"x_min":36,"x_max":1348,"o":"m 815 1109 l 885 1137 q 897 1110 888 1128 q 971 929 951 981 l 908 904 l 1348 904 l 1348 835 l 746 835 l 737 593 l 1254 593 q 1232 106 1246 302 q 1177 -77 1223 -28 q 1014 -131 1133 -127 q 939 -133 975 -132 q 902 -134 921 -134 q 856 -134 886 -134 q 835 -54 845 -81 q 1010 -57 899 -57 q 1157 100 1152 -65 q 1177 526 1173 331 l 734 526 q 439 -170 739 100 q 374 -114 409 -142 q 599 187 549 58 q 663 585 654 311 l 671 835 l 439 835 l 439 904 l 897 904 q 815 1109 871 974 m 75 397 q 36 479 64 430 q 346 1121 235 746 l 421 1097 q 307 807 365 941 l 307 -168 l 233 -168 l 233 656 q 75 397 159 514 z "},"企":{"ha":1389,"x_min":35,"x_max":1350,"o":"m 677 726 l 753 726 l 753 425 l 1168 425 l 1168 354 l 753 354 l 753 -28 l 1308 -28 l 1308 -100 l 58 -100 l 58 -28 l 279 -28 l 279 494 l 354 494 l 354 -28 l 677 -28 l 677 726 m 1299 575 q 701 1038 901 777 q 87 558 489 773 q 35 625 72 581 q 689 1141 486 848 l 775 1131 q 751 1099 766 1120 q 747 1095 748 1096 q 1350 644 961 819 q 1299 575 1318 607 z "},"伊":{"ha":1389,"x_min":32,"x_max":1352,"o":"m 435 355 l 684 355 q 704 633 700 455 l 393 633 l 393 701 l 704 701 q 705 816 705 749 q 705 975 705 879 l 485 975 l 485 1042 l 1217 1042 l 1217 701 l 1352 701 l 1352 633 l 1217 633 l 1217 193 l 1141 193 l 1141 289 l 745 289 q 435 -168 704 40 q 378 -109 418 -147 q 669 289 628 77 l 435 289 l 435 355 m 65 428 q 32 513 58 452 q 342 1131 241 793 l 416 1109 q 281 781 355 935 l 281 -168 l 207 -168 l 207 642 q 65 428 142 532 m 778 633 q 757 355 774 470 l 1141 355 l 1141 633 l 778 633 m 1141 975 l 781 975 q 781 816 781 875 q 779 701 780 751 l 1141 701 l 1141 975 z "},"伍":{"ha":1389,"x_min":36,"x_max":1350,"o":"m 476 587 l 688 587 l 746 971 l 468 971 l 468 1040 l 1305 1040 l 1305 971 l 821 971 l 764 587 l 1202 587 l 1202 -18 l 1350 -18 l 1350 -87 l 382 -87 l 382 -18 l 596 -18 l 677 519 l 476 519 l 476 587 m 1128 519 l 753 519 l 672 -18 l 1128 -18 l 1128 519 m 69 412 q 36 500 53 460 q 321 1126 220 786 l 395 1107 q 292 832 353 979 l 292 -168 l 218 -168 l 218 669 q 69 412 149 530 z "},"伏":{"ha":1389,"x_min":35,"x_max":1344,"o":"m 825 1139 l 901 1139 q 893 725 901 882 l 1344 725 l 1344 656 l 904 656 q 1341 -87 962 159 q 1283 -150 1322 -106 q 863 536 916 124 q 427 -165 809 110 q 366 -107 405 -142 q 812 656 777 167 l 415 656 l 415 725 l 819 725 q 825 1072 827 832 q 825 1139 825 1118 m 66 412 q 35 497 52 466 q 354 1129 235 753 l 431 1109 q 304 802 377 959 l 304 -167 l 231 -167 l 231 660 q 66 412 152 519 m 1202 838 q 1032 1022 1096 958 l 1086 1067 q 1263 889 1197 958 l 1202 838 z "},"伐":{"ha":1389,"x_min":37,"x_max":1354,"o":"m 736 1136 l 812 1136 q 827 760 814 940 l 1307 815 l 1317 746 l 832 689 q 900 296 853 460 q 1236 603 1078 421 l 1299 558 q 924 221 1115 357 q 1168 -85 1029 -84 q 1249 1 1227 -88 q 1284 189 1267 73 q 1354 161 1324 170 q 1314 -36 1335 39 q 1171 -160 1281 -160 q 860 178 977 -161 q 464 -29 683 62 q 418 39 447 5 q 836 252 661 136 q 758 681 783 435 l 437 644 l 427 714 l 753 751 q 736 1136 737 962 m 74 395 q 37 479 54 444 q 392 1128 248 741 l 464 1105 q 322 789 402 947 l 322 -164 l 248 -164 l 248 652 q 74 395 159 500 m 942 1035 l 990 1086 q 1213 922 1131 989 l 1161 867 q 942 1035 1052 957 z "},"休":{"ha":1389,"x_min":35,"x_max":1352,"o":"m 414 29 q 351 85 386 58 q 815 770 691 384 l 421 770 l 421 838 l 822 838 l 822 1136 l 895 1136 l 895 838 l 1311 838 l 1311 770 l 901 770 q 1352 102 1035 359 q 1291 41 1318 73 q 895 648 990 331 l 895 -168 l 822 -168 l 822 647 q 414 29 700 302 m 68 427 q 35 510 52 475 q 359 1139 253 791 l 433 1120 q 297 793 370 940 l 297 -168 l 224 -168 l 224 657 q 68 427 153 536 z "},"众":{"ha":1389,"x_min":36,"x_max":1352,"o":"m 1300 606 q 697 1025 880 782 q 93 578 490 758 q 56 635 82 600 q 45 650 48 645 q 696 1149 503 846 l 777 1132 q 767 1118 773 1127 q 741 1082 750 1094 q 1350 677 945 827 q 1300 606 1325 648 m 895 648 l 971 648 q 967 601 969 632 q 964 566 965 577 q 1352 -85 1005 142 q 1295 -151 1329 -106 q 936 374 985 82 q 564 -171 886 55 q 523 -125 553 -155 q 507 -109 512 -114 q 895 648 910 136 m 399 648 l 475 648 q 454 461 467 549 q 715 191 597 321 l 656 138 q 440 379 545 264 q 94 -151 387 69 q 36 -93 73 -125 q 399 648 400 154 z "},"优":{"ha":1389,"x_min":35,"x_max":1350,"o":"m 726 1126 l 802 1126 q 793 760 802 918 l 1324 760 l 1324 689 l 951 689 l 951 33 q 1047 -47 946 -52 l 1143 -47 q 1257 58 1242 -52 q 1275 252 1268 136 q 1350 228 1308 238 q 1324 22 1338 104 q 1147 -118 1299 -120 l 1036 -118 q 878 35 873 -122 l 878 689 l 789 689 q 786 649 788 675 q 783 612 784 625 q 424 -164 758 166 q 363 -109 390 -130 q 708 619 691 208 q 713 689 710 646 l 412 689 l 412 760 l 718 760 q 726 1126 726 928 m 71 415 q 35 500 56 459 q 350 1128 252 790 l 428 1101 q 293 778 370 934 l 293 -167 l 220 -167 l 220 639 q 71 415 157 528 m 1156 863 q 949 1031 1057 948 l 994 1082 q 1207 920 1087 1017 l 1156 863 z "},"伙":{"ha":1389,"x_min":33,"x_max":1358,"o":"m 827 1139 l 901 1139 q 893 772 901 932 q 1358 -85 956 175 q 1303 -153 1326 -119 q 863 589 913 135 q 427 -164 820 114 q 368 -100 408 -140 q 819 815 819 201 q 827 1139 827 961 m 69 400 q 33 478 56 437 q 364 1139 267 784 l 439 1118 q 310 798 386 958 l 310 -168 l 237 -168 l 237 657 q 69 400 151 501 m 1095 492 l 1032 538 q 1247 843 1140 671 l 1314 803 q 1095 492 1221 663 m 404 796 l 467 833 q 654 530 541 720 l 583 489 q 404 796 500 646 z "},"会":{"ha":1389,"x_min":32,"x_max":1349,"o":"m 1156 -168 q 1067 -74 1097 -107 q 357 -109 652 -85 q 244 -123 288 -113 l 195 -43 q 292 20 243 -19 q 558 306 420 130 l 86 306 l 86 378 l 1301 378 l 1301 306 l 664 306 q 339 -36 518 130 q 1000 -7 562 -25 q 947 45 983 9 q 839 150 879 112 l 900 195 q 1222 -117 1062 42 l 1156 -168 m 1295 595 q 703 1035 901 774 q 89 572 469 764 q 32 637 62 606 q 701 1149 467 842 l 789 1136 q 764 1105 781 1126 q 750 1089 754 1095 q 1349 664 942 832 q 1295 595 1314 625 m 334 656 l 1050 656 l 1050 585 l 334 585 l 334 656 z "},"伞":{"ha":1389,"x_min":36,"x_max":1348,"o":"m 656 786 l 733 786 l 733 222 l 1315 222 l 1315 150 l 733 150 l 733 -168 l 656 -168 l 656 150 l 77 150 l 77 222 l 656 222 l 656 786 m 1297 595 q 703 1035 916 768 q 92 575 472 770 q 36 640 67 609 q 699 1149 488 855 l 786 1136 q 768 1114 780 1128 q 750 1090 756 1098 q 1348 664 972 813 q 1297 595 1311 623 m 940 345 l 878 396 q 1080 596 992 498 l 1147 553 q 940 345 1016 414 m 244 554 l 302 596 q 492 396 389 513 l 425 346 q 244 554 353 435 z "},"伟":{"ha":1389,"x_min":35,"x_max":1283,"o":"m 437 960 l 783 960 l 783 1135 l 859 1135 l 859 960 l 1279 960 l 1279 890 l 859 890 l 859 711 l 1222 711 l 1222 643 l 859 643 l 859 457 l 1283 457 q 1276 164 1282 302 q 1096 11 1276 12 q 1038 9 1071 10 q 1001 9 1021 9 q 950 9 984 9 q 935 87 945 50 q 1084 83 1010 83 q 1203 170 1203 79 q 1208 387 1208 263 l 859 387 l 859 -167 l 783 -167 l 783 387 l 395 387 l 395 457 l 783 457 l 783 643 l 479 643 l 479 711 l 783 711 l 783 890 l 437 890 l 437 960 m 71 390 q 35 472 54 437 q 335 1126 227 760 l 410 1108 q 300 812 353 935 l 300 -168 l 227 -168 l 227 653 q 71 390 151 503 z "},"传":{"ha":1389,"x_min":36,"x_max":1352,"o":"m 581 406 q 621 538 594 449 q 639 596 633 576 l 414 596 l 414 663 l 659 663 q 669 701 662 675 q 714 869 700 812 l 485 869 l 485 936 l 730 936 q 762 1062 741 979 q 778 1131 772 1107 l 857 1118 q 846 1078 854 1105 q 810 936 822 985 l 1297 936 l 1297 869 l 791 869 q 734 663 770 783 l 1352 663 l 1352 596 l 717 596 q 659 397 687 493 l 1265 397 l 1265 319 l 951 0 q 1139 -109 1039 -48 l 1086 -174 q 513 172 788 16 l 555 228 q 884 40 766 109 l 1177 332 l 581 332 l 581 406 m 72 399 q 36 481 52 449 q 334 1131 230 768 l 410 1111 q 301 817 366 970 l 301 -165 l 228 -165 l 228 660 q 72 399 148 502 z "},"伤":{"ha":1389,"x_min":32,"x_max":1346,"o":"m 775 794 l 851 794 q 844 579 851 721 l 1276 579 q 1260 114 1270 301 q 1029 -132 1256 -135 q 941 -134 982 -134 q 899 -135 921 -135 q 843 -135 880 -135 q 825 -52 836 -91 q 1017 -57 907 -57 q 1142 -18 1107 -58 q 1186 123 1180 20 q 1202 511 1196 283 l 840 511 q 457 -161 835 90 q 396 -98 427 -126 q 765 511 763 125 l 475 511 l 475 579 l 770 579 q 775 794 775 686 m 74 395 q 32 471 52 441 q 332 1126 224 760 l 408 1107 q 301 823 359 959 l 301 -168 l 227 -168 l 227 660 q 74 395 157 519 m 471 633 q 414 684 444 660 q 697 1132 600 880 l 772 1111 q 694 951 730 1016 l 1346 951 l 1346 880 l 654 880 q 471 633 576 749 z "},"伦":{"ha":1389,"x_min":37,"x_max":1352,"o":"m 585 612 l 660 612 l 660 311 q 1137 586 939 425 l 1190 529 q 660 235 960 359 l 660 69 q 688 -24 659 0 q 796 -49 716 -50 l 1039 -49 q 1178 57 1161 -52 q 1202 248 1191 126 q 1278 225 1233 235 q 1249 25 1265 105 q 1053 -121 1220 -122 l 771 -121 q 585 62 575 -130 l 585 612 m 72 414 q 37 500 55 464 q 350 1136 243 787 l 428 1114 q 297 794 366 943 l 297 -168 l 224 -168 l 224 650 q 72 414 150 515 m 1301 612 q 885 1004 1044 770 q 468 600 739 787 q 415 663 449 626 q 879 1137 727 857 l 960 1121 q 926 1068 943 1094 q 1352 679 1088 822 q 1301 612 1326 648 z "},"伪":{"ha":1389,"x_min":29,"x_max":1289,"o":"m 768 1135 l 844 1135 q 828 772 840 941 l 1289 772 q 1271 81 1280 301 q 1059 -135 1270 -138 q 868 -136 1001 -136 q 852 -54 864 -102 q 939 -59 896 -58 q 984 -60 960 -59 q 1046 -60 1004 -60 q 1197 102 1197 -68 q 1211 700 1208 340 l 821 700 q 440 -164 793 160 q 375 -109 408 -134 q 745 700 728 204 l 427 700 l 427 772 l 751 772 q 768 1135 762 920 m 66 406 q 29 490 42 467 q 347 1139 248 793 l 425 1118 q 294 793 360 932 l 294 -171 l 221 -171 l 221 647 q 66 406 150 516 m 1046 241 q 848 473 962 349 l 905 515 q 1107 289 1020 392 l 1046 241 m 614 831 q 478 1023 563 911 l 538 1057 q 681 871 591 992 l 614 831 z "},"伯":{"ha":1389,"x_min":28,"x_max":1272,"o":"m 542 922 l 771 922 q 823 1095 793 987 q 836 1139 832 1124 l 914 1122 q 847 922 881 1014 l 1272 922 l 1272 -153 l 1197 -153 l 1197 -39 l 616 -39 l 616 -155 l 542 -155 l 542 922 m 616 412 l 616 29 l 1197 29 l 1197 412 l 616 412 m 616 852 l 616 481 l 1197 481 l 1197 852 l 616 852 m 64 418 q 28 500 51 453 q 340 1137 234 801 l 414 1114 q 293 818 353 945 l 293 -168 l 220 -168 l 220 671 q 64 418 140 526 z "},"估":{"ha":1389,"x_min":31,"x_max":1350,"o":"m 507 481 l 840 481 l 840 785 l 411 785 l 411 856 l 840 856 l 840 1139 l 916 1139 l 916 856 l 1350 856 l 1350 785 l 916 785 l 916 481 l 1249 481 l 1249 -167 l 1174 -167 l 1174 -60 l 582 -60 l 582 -167 l 507 -167 l 507 481 m 582 411 l 582 8 l 1174 8 l 1174 411 l 582 411 m 68 410 q 31 488 52 449 q 345 1140 233 779 l 416 1120 q 296 807 363 956 l 296 -168 l 222 -168 l 222 659 q 68 410 157 538 z "},"伴":{"ha":1389,"x_min":35,"x_max":1349,"o":"m 842 1133 l 918 1133 l 918 624 l 1295 624 l 1295 553 l 918 553 l 918 302 l 1349 302 l 1349 231 l 918 231 l 918 -168 l 842 -168 l 842 231 l 414 231 l 414 302 l 842 302 l 842 553 l 472 553 l 472 624 l 842 624 l 842 1133 m 69 403 q 35 486 53 451 q 359 1139 245 761 l 436 1114 q 304 793 387 968 l 304 -167 l 231 -167 l 231 652 q 69 403 148 503 m 1099 708 l 1038 755 q 1227 1000 1140 869 l 1292 956 q 1099 708 1200 830 m 467 957 l 526 999 q 708 761 621 880 l 646 714 q 467 957 555 846 z "},"伶":{"ha":1389,"x_min":37,"x_max":1361,"o":"m 515 172 l 561 232 q 843 56 717 136 l 1153 367 l 457 367 l 457 437 l 1249 437 l 1249 358 l 909 12 q 1100 -110 980 -28 l 1050 -174 q 515 172 751 27 m 37 494 q 349 1139 227 766 l 428 1117 q 290 787 363 944 l 290 -167 l 216 -167 l 216 643 q 79 416 159 536 q 37 494 56 464 m 1308 593 q 865 1019 1021 768 q 407 570 700 760 q 354 635 378 610 q 854 1145 682 825 l 936 1133 l 907 1083 q 1361 664 1085 799 q 1308 593 1335 633 m 751 739 l 808 781 q 974 574 888 692 l 911 529 q 751 739 828 646 z "},"伸":{"ha":1389,"x_min":33,"x_max":1275,"o":"m 838 1139 l 913 1139 l 913 905 l 1275 905 l 1275 150 l 1202 150 l 1202 231 l 913 231 l 913 -168 l 838 -168 l 838 231 l 549 231 l 549 150 l 475 150 l 475 905 l 838 905 l 838 1139 m 33 486 q 323 1135 229 794 l 396 1116 q 275 790 341 943 l 275 -167 l 201 -167 l 201 635 q 71 412 142 519 q 33 486 54 450 m 549 838 l 549 602 l 838 602 l 838 838 l 549 838 m 549 534 l 549 298 l 838 298 l 838 534 l 549 534 m 1202 838 l 913 838 l 913 602 l 1202 602 l 1202 838 m 913 534 l 913 298 l 1202 298 l 1202 534 l 913 534 z "},"伺":{"ha":1389,"x_min":35,"x_max":1282,"o":"m 511 541 l 1000 541 l 1000 129 l 511 129 l 511 541 m 498 999 l 498 1067 l 1276 1067 l 1276 9 q 1105 -150 1282 -152 q 1048 -151 1084 -151 q 924 -153 973 -153 q 908 -74 921 -119 q 996 -78 955 -77 q 1095 -79 1038 -79 q 1204 21 1210 -84 l 1204 999 l 498 999 m 69 390 q 35 471 60 416 q 326 1128 237 758 l 400 1108 q 294 803 352 943 l 294 -168 l 222 -168 l 222 644 q 69 390 155 513 m 583 475 l 583 195 l 928 195 l 928 475 l 583 475 m 457 806 l 1099 806 l 1099 739 l 457 739 l 457 806 z "},"似":{"ha":1389,"x_min":33,"x_max":1357,"o":"m 1140 1099 l 1214 1099 q 1206 779 1214 937 q 1103 211 1190 390 q 1357 -83 1262 32 l 1292 -134 q 1068 147 1173 21 q 762 -167 989 3 q 705 -104 741 -138 q 1031 239 958 74 q 1132 778 1114 398 q 1140 1099 1139 906 m 68 410 q 33 492 55 443 q 321 1136 207 741 l 392 1120 q 288 823 346 969 l 288 -170 l 215 -170 l 215 663 q 68 410 151 530 m 571 155 q 908 375 725 251 q 918 293 909 336 q 571 62 700 156 q 513 12 536 36 l 454 83 q 498 207 499 129 l 498 990 l 571 990 l 571 155 m 700 1088 l 764 1120 q 940 802 860 952 l 873 765 q 700 1088 792 921 z "},"佃":{"ha":1389,"x_min":29,"x_max":1278,"o":"m 509 1021 l 1278 1021 l 1278 -154 l 1204 -154 l 1204 -37 l 582 -37 l 582 -157 l 509 -157 l 509 1021 m 68 415 q 29 492 54 449 q 336 1136 225 763 l 411 1114 q 292 806 346 925 l 292 -168 l 220 -168 l 220 659 q 68 415 144 519 m 582 464 l 582 32 l 857 32 l 857 464 l 582 464 m 929 464 l 929 32 l 1204 32 l 1204 464 l 929 464 m 582 950 l 582 533 l 857 533 l 857 950 l 582 950 m 1204 950 l 929 950 l 929 533 l 1204 533 l 1204 950 z "},"但":{"ha":1389,"x_min":35,"x_max":1350,"o":"m 541 1044 l 1242 1044 l 1242 233 l 541 233 l 541 1044 m 615 977 l 615 672 l 1166 672 l 1166 977 l 615 977 m 615 606 l 615 301 l 1166 301 l 1166 606 l 615 606 m 68 412 q 35 500 54 458 q 347 1125 236 769 l 424 1101 q 288 775 361 924 l 288 -167 l 212 -167 l 212 633 q 68 412 149 521 m 416 -7 l 1350 -7 l 1350 -78 l 416 -78 l 416 -7 z "},"位":{"ha":1389,"x_min":33,"x_max":1356,"o":"m 1150 710 l 1226 686 q 968 -31 1076 249 l 1356 -31 l 1356 -100 l 403 -100 l 403 -31 l 886 -31 q 1150 710 1030 331 m 72 406 q 33 489 54 451 q 336 1137 219 749 l 410 1114 q 302 833 353 948 l 302 -171 l 229 -171 l 229 673 q 72 406 153 526 m 441 885 l 1320 885 l 1320 815 l 441 815 l 441 885 m 701 109 q 524 686 623 397 l 597 708 q 779 132 682 455 l 701 109 m 799 1114 l 868 1139 q 961 918 929 1000 l 890 890 q 799 1114 836 1031 z "},"低":{"ha":1389,"x_min":25,"x_max":1364,"o":"m 464 -49 q 495 6 486 -21 q 504 77 504 34 l 504 1026 q 1293 1076 911 1036 l 1318 1008 q 1002 982 1202 996 q 961 979 975 980 q 977 606 961 806 l 1341 606 l 1341 538 l 981 538 q 1125 4 1003 190 q 1222 -71 1170 -68 q 1274 -7 1263 -70 q 1297 171 1289 80 q 1364 150 1340 153 q 1337 -43 1351 15 q 1225 -146 1318 -146 q 1060 -28 1131 -145 q 905 538 932 159 l 578 538 l 578 20 q 832 165 699 86 q 848 93 835 140 q 583 -62 696 9 q 518 -113 559 -79 l 464 -49 m 57 436 q 30 505 46 469 q 25 515 26 513 q 355 1139 231 776 l 428 1114 q 290 802 358 935 l 290 -170 l 218 -170 l 218 669 q 57 436 138 533 m 900 606 q 886 975 891 750 q 578 960 713 964 l 578 606 l 900 606 m 778 -25 l 829 17 q 854 -6 838 9 q 965 -119 931 -80 l 909 -167 q 778 -25 861 -108 z "},"住":{"ha":1389,"x_min":35,"x_max":1349,"o":"m 515 472 l 856 472 l 856 831 l 478 831 l 478 901 l 1308 901 l 1308 831 l 930 831 l 930 472 l 1270 472 l 1270 401 l 930 401 l 930 -18 l 1349 -18 l 1349 -89 l 439 -89 l 439 -18 l 856 -18 l 856 401 l 515 401 l 515 472 m 71 396 q 35 478 58 435 q 372 1137 248 768 l 447 1117 q 322 822 381 945 l 322 -168 l 248 -168 l 248 675 q 71 396 172 536 m 812 1118 l 880 1140 q 964 928 911 1063 l 892 904 q 812 1118 850 1022 z "},"佑":{"ha":1389,"x_min":32,"x_max":1339,"o":"m 428 896 l 766 896 q 842 1133 808 1008 l 918 1117 q 846 896 884 998 l 1339 896 l 1339 825 l 818 825 q 671 532 755 667 l 1249 532 l 1249 -160 l 1174 -160 l 1174 -50 l 668 -50 l 668 -160 l 595 -160 l 595 415 q 395 170 508 296 q 352 212 382 183 q 338 225 342 220 q 739 825 609 509 l 428 825 l 428 896 m 668 463 l 668 18 l 1174 18 l 1174 463 l 668 463 m 65 428 q 32 513 58 452 q 351 1131 236 789 l 427 1109 q 281 775 361 935 l 281 -168 l 207 -168 l 207 642 q 65 428 142 532 z "},"体":{"ha":1389,"x_min":29,"x_max":1356,"o":"m 380 68 q 321 125 361 92 q 742 786 625 399 l 414 786 l 414 854 l 806 854 l 806 1136 l 878 1136 l 878 854 l 1299 854 l 1299 786 l 942 786 q 1356 154 1072 392 q 1300 92 1323 124 q 884 786 1000 363 l 878 786 l 878 187 l 1104 187 l 1104 121 l 878 121 l 878 -168 l 806 -168 l 806 121 l 579 121 l 579 187 l 806 187 l 806 786 l 802 786 q 380 68 682 348 m 62 416 q 29 496 48 456 q 342 1135 227 764 l 414 1116 q 282 787 357 949 l 282 -168 l 210 -168 l 210 644 q 62 416 140 517 z "},"何":{"ha":1389,"x_min":32,"x_max":1352,"o":"m 519 743 l 951 743 l 951 196 l 519 196 l 519 743 m 472 1023 l 1352 1023 l 1352 954 l 1234 954 l 1234 40 q 1057 -146 1240 -147 q 864 -149 991 -149 q 847 -68 859 -104 q 1035 -74 941 -74 q 1132 -49 1106 -75 q 1158 43 1159 -24 l 1158 954 l 472 954 l 472 1023 m 68 435 q 32 513 54 473 q 358 1131 237 777 l 432 1109 q 313 833 374 962 l 313 -168 l 239 -168 l 239 693 q 68 435 153 544 m 591 676 l 591 264 l 879 264 l 879 676 l 591 676 z "},"余":{"ha":1389,"x_min":43,"x_max":1341,"o":"m 334 696 l 1054 696 l 1054 627 l 742 627 l 742 407 l 1303 407 l 1303 336 l 742 336 l 742 -1 q 579 -160 749 -159 q 508 -161 543 -161 q 471 -161 491 -161 q 419 -161 454 -161 q 407 -83 415 -121 q 554 -87 482 -87 q 643 -66 619 -88 q 667 12 667 -45 l 667 336 l 85 336 l 85 407 l 667 407 l 667 627 l 334 627 l 334 696 m 1295 585 q 694 1035 901 766 q 92 568 487 779 q 43 639 71 603 q 689 1152 476 843 l 772 1135 q 741 1093 762 1120 q 737 1088 739 1089 q 1341 659 970 800 q 1295 585 1313 617 m 1251 -90 q 920 200 1058 89 l 972 252 q 1311 -29 1148 112 l 1251 -90 m 380 254 l 447 205 q 139 -109 317 62 q 79 -50 106 -73 q 380 254 235 82 z "},"佛":{"ha":1389,"x_min":32,"x_max":1318,"o":"m 433 639 l 661 639 l 661 864 l 412 864 l 412 929 l 661 929 l 661 1128 l 732 1128 l 732 929 l 922 929 l 922 1126 l 993 1126 l 993 929 l 1251 929 l 1251 574 l 993 574 l 993 359 l 1318 359 q 1308 131 1317 232 q 1175 -7 1299 -2 q 1124 -9 1149 -8 q 1097 -9 1112 -9 q 1060 -9 1085 -9 q 1043 64 1053 28 q 1153 60 1088 60 q 1240 146 1238 56 q 1246 294 1245 226 l 993 294 l 993 -147 l 922 -147 l 922 294 l 714 294 q 441 -167 687 22 q 386 -109 417 -137 q 640 294 610 66 l 390 294 l 433 639 m 64 416 q 32 494 52 450 q 317 1137 222 785 l 386 1120 q 271 796 338 952 l 271 -168 l 200 -168 l 200 646 q 64 416 143 535 m 732 864 l 732 639 l 922 639 l 922 864 l 732 864 m 1182 864 l 993 864 l 993 639 l 1182 639 l 1182 864 m 732 574 q 722 359 730 425 l 922 359 l 922 574 l 732 574 m 650 359 q 661 574 659 435 l 494 574 l 468 359 l 650 359 z "},"作":{"ha":1389,"x_min":32,"x_max":1350,"o":"m 468 547 q 406 595 439 572 q 700 1140 597 827 l 774 1121 q 690 921 737 1023 l 1350 921 l 1350 850 l 857 850 l 857 589 l 1278 589 l 1278 519 l 857 519 l 857 248 l 1314 248 l 1314 178 l 857 178 l 857 -168 l 783 -168 l 783 850 l 657 850 q 468 547 579 692 m 77 403 q 32 475 51 448 q 350 1139 226 753 l 424 1118 q 300 807 365 953 l 300 -168 l 227 -168 l 227 656 q 77 403 155 520 z "},"你":{"ha":1389,"x_min":36,"x_max":1352,"o":"m 69 395 q 36 481 52 444 q 358 1139 245 768 l 436 1114 q 310 803 383 960 l 310 -168 l 236 -168 l 236 657 q 69 395 152 502 m 1161 629 l 1254 851 l 657 851 q 511 596 590 720 q 447 640 476 624 q 701 1131 599 865 l 777 1108 q 692 921 735 1013 l 1329 921 l 1329 846 l 1235 607 q 1161 629 1194 622 m 864 720 l 939 720 l 939 24 q 771 -149 944 -150 q 625 -150 717 -150 q 608 -73 618 -108 q 755 -77 673 -77 q 864 28 868 -80 l 864 720 m 443 85 q 643 528 567 313 l 713 503 q 514 50 628 281 q 443 85 472 74 m 1280 62 q 1076 501 1181 297 l 1141 530 q 1352 97 1250 317 l 1280 62 z "},"佣":{"ha":1389,"x_min":33,"x_max":1290,"o":"m 917 -104 l 844 -104 l 844 283 l 549 283 q 412 -167 537 39 q 345 -121 383 -143 q 456 148 429 12 q 485 553 486 286 l 485 1065 l 1283 1065 l 1283 3 q 1132 -151 1290 -152 q 1081 -153 1109 -152 q 1052 -153 1067 -153 q 1014 -153 1038 -153 q 996 -77 1006 -112 q 1120 -81 1059 -81 q 1211 4 1214 -83 l 1211 283 l 917 283 l 917 -104 m 71 428 q 33 507 54 468 q 315 1139 220 791 l 390 1121 q 282 822 347 979 l 282 -168 l 211 -168 l 211 668 q 71 428 140 526 m 1211 997 l 917 997 l 917 707 l 1211 707 l 1211 997 m 917 640 l 917 350 l 1211 350 l 1211 640 l 917 640 m 557 547 q 553 350 557 435 l 844 350 l 844 640 l 557 640 l 557 547 m 557 997 l 557 707 l 844 707 l 844 997 l 557 997 z "},"佩":{"ha":1389,"x_min":35,"x_max":1358,"o":"m 1258 -57 q 1291 3 1284 -58 q 1301 170 1299 86 q 1358 150 1335 155 q 1343 -25 1354 49 q 1264 -144 1326 -144 q 1132 231 1132 -146 l 1132 1006 l 484 1006 l 484 568 q 457 153 484 298 q 353 -157 432 6 q 296 -111 323 -130 q 395 176 370 33 q 421 568 422 316 l 421 1067 l 1194 1067 l 1194 241 q 1258 -57 1196 -47 m 974 126 l 974 553 l 832 553 l 832 -144 l 771 -144 l 771 553 l 639 553 l 639 20 l 579 20 l 579 611 l 771 611 l 771 786 l 562 786 l 562 844 l 1050 844 l 1050 786 l 832 786 l 832 611 l 1034 611 l 1034 123 q 958 28 1036 31 q 931 26 945 27 q 890 26 919 26 q 878 90 886 58 q 939 87 911 87 q 974 126 975 86 m 74 421 q 35 498 52 471 q 261 1132 195 767 l 330 1120 q 244 802 296 954 l 244 -168 l 182 -168 l 182 635 q 74 421 131 513 z "},"佳":{"ha":1389,"x_min":36,"x_max":1346,"o":"m 844 484 l 920 484 l 920 301 l 1287 301 l 1287 232 l 920 232 l 920 -33 l 1346 -33 l 1346 -104 l 418 -104 l 418 -33 l 844 -33 l 844 232 l 488 232 l 488 301 l 844 301 l 844 484 m 844 1128 l 920 1128 l 920 926 l 1274 926 l 1274 857 l 920 857 l 920 616 l 1325 616 l 1325 546 l 441 546 l 441 616 l 844 616 l 844 857 l 493 857 l 493 926 l 844 926 l 844 1128 m 74 443 q 36 524 57 484 q 355 1137 240 788 l 431 1116 q 297 806 368 949 l 297 -168 l 224 -168 l 224 668 q 74 443 161 558 z "},"使":{"ha":1389,"x_min":36,"x_max":1346,"o":"m 414 949 l 836 949 l 836 1135 l 908 1135 l 908 949 l 1346 949 l 1346 884 l 908 884 l 908 722 l 1275 722 l 1275 319 l 1203 319 l 1203 375 l 900 375 q 798 60 884 165 q 1335 -87 950 -45 q 1299 -157 1307 -132 q 747 5 912 -108 q 399 -174 652 -81 q 351 -109 378 -138 q 686 53 593 -26 q 513 264 596 128 l 574 301 q 737 106 658 171 q 828 375 810 194 l 468 375 l 468 722 l 836 722 l 836 884 l 414 884 l 414 949 m 72 419 q 36 496 54 464 q 328 1133 229 783 l 400 1116 q 277 785 351 953 l 277 -172 l 204 -172 l 204 637 q 72 419 151 534 m 908 600 q 904 439 908 513 l 1203 439 l 1203 659 l 908 659 l 908 600 m 832 439 q 836 597 836 510 l 836 659 l 541 659 l 541 439 l 832 439 z "},"侄":{"ha":1389,"x_min":32,"x_max":1350,"o":"m 1236 481 q 1215 511 1229 491 q 1169 575 1184 553 q 517 547 673 563 l 482 619 q 574 699 529 648 q 778 975 688 829 l 475 975 l 475 1042 l 1303 1042 l 1303 975 l 873 975 q 604 623 731 772 q 932 633 703 625 q 1122 640 1062 638 q 990 814 1064 721 l 1048 852 q 1301 524 1173 699 l 1236 481 m 840 488 l 916 488 l 916 290 l 1287 290 l 1287 224 l 916 224 l 916 -45 l 1350 -45 l 1350 -113 l 407 -113 l 407 -45 l 840 -45 l 840 224 l 472 224 l 472 290 l 840 290 l 840 488 m 66 427 q 32 511 51 473 q 355 1141 239 786 l 431 1120 q 286 781 359 926 l 286 -170 l 214 -170 l 214 646 q 66 427 155 545 z "},"侈":{"ha":1389,"x_min":31,"x_max":1312,"o":"m 460 110 q 407 168 439 138 q 865 551 701 331 l 940 524 q 876 449 907 484 l 1312 449 l 1312 382 q 408 -179 1059 -62 q 399 -162 405 -174 q 366 -110 378 -127 q 1229 385 1001 5 l 815 385 q 713 289 767 335 q 748 264 724 281 q 899 153 850 191 l 846 103 q 663 250 758 177 q 460 110 575 181 m 463 718 q 407 774 450 734 q 815 1141 661 928 l 884 1112 q 802 1011 832 1044 l 1284 1011 l 1284 940 q 465 439 1053 599 q 419 504 450 467 q 1203 947 959 635 l 742 947 q 677 885 711 916 q 876 743 760 828 l 822 692 q 629 842 709 783 q 463 718 550 776 m 69 429 q 31 500 56 464 q 363 1131 238 748 l 435 1109 q 300 790 365 918 l 300 -170 l 228 -170 l 228 660 q 69 429 157 543 z "},"例":{"ha":1389,"x_min":37,"x_max":1297,"o":"m 439 1054 l 920 1054 l 920 989 l 664 989 q 610 761 638 861 l 864 761 l 864 699 q 431 -160 817 161 q 375 -104 404 -129 q 798 697 754 205 l 590 697 q 524 524 564 612 q 685 407 608 467 l 642 350 q 496 469 543 435 q 397 298 454 386 q 342 346 368 328 q 595 989 526 606 l 439 989 l 439 1054 m 69 400 q 66 410 68 404 q 37 484 47 465 q 326 1139 220 751 l 397 1121 q 292 827 349 969 l 292 -170 l 221 -170 l 221 668 q 69 400 156 536 m 1223 1124 l 1295 1124 l 1295 20 q 1153 -140 1297 -134 q 1084 -142 1123 -142 q 1043 -143 1066 -143 q 985 -143 1024 -143 q 966 -62 979 -104 q 1125 -68 1057 -67 q 1223 24 1228 -72 l 1223 1124 m 1054 154 l 985 154 l 985 922 l 1054 922 l 1054 154 z "},"侍":{"ha":1389,"x_min":32,"x_max":1353,"o":"m 473 950 l 850 950 l 850 1137 l 924 1137 l 924 950 l 1286 950 l 1286 885 l 924 885 l 924 661 l 1353 661 l 1353 596 l 404 596 l 404 661 l 850 661 l 850 885 l 473 885 l 473 950 m 1039 525 l 1112 525 l 1112 396 l 1353 396 l 1353 330 l 1112 330 l 1112 3 q 937 -150 1116 -149 q 860 -151 899 -151 q 821 -151 842 -151 q 765 -151 802 -151 q 750 -73 764 -120 q 830 -76 795 -75 q 868 -77 848 -77 q 924 -77 885 -77 q 1015 -54 992 -77 q 1039 29 1040 -33 l 1039 330 l 412 330 l 412 396 l 1039 396 l 1039 525 m 68 428 q 36 502 54 465 q 32 510 33 507 q 353 1139 228 761 l 425 1116 q 304 822 365 950 l 304 -170 l 232 -170 l 232 681 q 68 428 151 533 m 525 218 l 578 268 q 778 82 724 135 l 721 31 q 525 218 610 143 z "},"供":{"ha":1389,"x_min":32,"x_max":1344,"o":"m 1028 1133 l 1100 1133 l 1100 838 l 1289 838 l 1289 770 l 1100 770 l 1100 350 l 1344 350 l 1344 282 l 380 282 l 380 350 l 621 350 l 621 770 l 439 770 l 439 838 l 621 838 l 621 1133 l 693 1133 l 693 838 l 1028 838 l 1028 1133 m 693 770 l 693 350 l 1028 350 l 1028 770 l 693 770 m 65 435 q 32 513 50 476 q 343 1131 231 782 l 416 1109 q 297 817 355 939 l 297 -171 l 225 -171 l 225 677 q 65 435 159 560 m 700 201 l 765 154 q 432 -163 593 -28 q 374 -104 412 -137 q 700 201 556 39 m 966 154 l 1022 203 q 1343 -107 1158 79 l 1284 -161 q 966 154 1164 -33 z "},"依":{"ha":1389,"x_min":32,"x_max":1353,"o":"m 361 215 q 313 275 349 233 q 814 843 625 504 l 410 843 l 410 911 l 867 911 q 778 1112 829 1005 l 846 1137 q 939 933 897 1034 l 879 911 l 1344 911 l 1344 843 l 893 843 q 889 836 892 840 q 878 817 882 823 q 971 452 916 589 q 1234 657 1126 564 l 1284 603 q 999 386 1159 503 q 1353 -18 1092 172 q 1301 -79 1325 -45 q 823 726 899 197 q 669 511 745 602 l 669 -28 q 911 111 770 24 q 923 52 911 99 q 926 39 925 43 q 676 -113 812 -23 q 607 -165 628 -146 l 553 -96 q 587 -38 578 -64 q 596 29 596 -11 l 596 429 q 361 215 486 313 m 65 435 q 32 513 50 476 q 343 1131 231 782 l 416 1109 q 285 790 355 933 l 285 -171 l 212 -171 l 212 656 q 65 435 152 551 z "},"侠":{"ha":1389,"x_min":28,"x_max":1350,"o":"m 851 1135 l 926 1135 q 925 930 926 1017 l 1289 930 l 1289 865 l 924 865 q 920 696 923 805 q 918 637 919 654 q 903 429 914 513 l 1349 429 l 1349 364 l 922 364 q 1350 -87 1006 61 q 1297 -155 1323 -117 q 872 317 950 23 q 425 -167 808 33 q 372 -102 395 -125 q 814 364 758 82 l 401 364 l 401 429 l 828 429 q 846 643 844 519 q 850 865 847 710 l 471 865 l 471 930 l 850 930 q 851 1020 850 972 q 851 1070 851 1044 q 851 1135 851 1094 m 62 412 q 28 497 50 450 q 358 1135 237 777 l 433 1112 q 294 787 365 930 l 294 -165 l 221 -165 l 221 650 q 62 412 148 526 m 1090 525 l 1031 570 q 1204 764 1119 658 l 1265 722 q 1090 525 1183 623 m 482 725 l 541 765 q 701 578 614 686 l 637 532 q 482 725 559 639 z "},"侣":{"ha":1389,"x_min":35,"x_max":1280,"o":"m 461 433 l 1280 433 l 1280 -168 l 1207 -168 l 1207 -65 l 534 -65 l 534 -168 l 461 -168 l 461 433 m 514 1061 l 1226 1061 l 1226 619 l 514 619 l 514 1061 m 534 367 l 534 0 l 1207 0 l 1207 367 l 534 367 m 587 994 l 587 686 l 1153 686 l 1153 994 l 587 994 m 65 412 q 35 490 50 456 q 315 1133 216 770 l 387 1111 q 269 789 336 943 l 269 -168 l 196 -168 l 196 632 q 65 412 129 502 z "},"侥":{"ha":1389,"x_min":32,"x_max":1341,"o":"m 435 444 q 400 509 424 472 q 804 652 619 562 q 686 861 733 742 l 414 812 l 399 878 l 661 924 q 602 1128 629 1013 l 672 1143 q 732 936 705 1006 l 1239 1026 l 1253 962 l 757 873 q 871 685 796 780 q 1156 869 1017 761 l 1203 819 q 916 631 1060 710 q 1136 521 1019 517 q 1234 593 1204 520 q 1272 720 1259 661 l 1339 696 q 1297 561 1323 626 q 1137 453 1255 452 q 848 596 975 449 q 435 444 672 507 m 386 366 l 1308 366 l 1308 301 l 994 301 l 994 12 q 1014 -52 994 -35 q 1084 -71 1033 -71 l 1164 -71 q 1257 11 1246 -76 q 1275 154 1265 52 l 1341 126 q 1325 -9 1338 71 q 1177 -138 1307 -142 l 1057 -138 q 921 0 918 -140 l 921 301 l 717 301 q 718 257 718 281 q 400 -172 718 -52 q 353 -106 374 -132 q 583 50 530 -28 q 644 301 642 126 l 386 301 l 386 366 m 32 493 q 342 1136 223 747 l 414 1118 q 286 789 354 941 l 286 -168 l 214 -168 l 214 642 q 69 415 153 526 q 32 493 56 450 z "},"侦":{"ha":1389,"x_min":33,"x_max":1331,"o":"m 798 1139 l 872 1139 l 872 979 l 1331 979 l 1331 911 l 872 911 l 872 732 l 1249 732 l 1249 121 l 1175 121 l 1175 663 l 571 663 l 571 121 l 497 121 l 497 732 l 798 732 l 798 1139 m 72 440 q 33 513 61 468 q 363 1141 235 765 l 437 1121 q 286 777 359 918 l 286 -170 l 214 -170 l 214 647 q 72 440 149 539 m 1276 -161 q 848 119 1094 -32 q 431 -174 774 -55 q 385 -107 416 -149 q 828 342 839 15 q 836 567 836 439 l 909 567 q 900 334 910 443 q 854 131 890 215 l 895 172 q 1326 -100 1082 60 l 1276 -161 z "},"侧":{"ha":1389,"x_min":32,"x_max":1297,"o":"m 397 1061 l 875 1061 l 875 232 l 808 232 l 808 994 l 464 994 l 464 232 l 397 232 l 397 1061 m 61 425 q 39 490 52 458 q 32 509 34 503 q 289 1133 205 794 l 357 1116 q 248 793 311 953 l 248 -170 l 180 -170 l 180 640 q 61 425 119 514 m 602 848 l 668 848 l 668 570 q 621 147 670 277 l 656 183 q 940 -57 852 20 l 885 -111 q 614 129 772 -5 q 351 -167 565 -15 q 301 -109 325 -132 q 547 148 500 27 q 602 568 604 265 l 602 848 m 1223 1136 l 1292 1136 l 1292 17 q 1158 -146 1297 -142 q 1097 -148 1129 -147 q 1064 -149 1082 -149 q 1019 -149 1049 -149 q 1006 -74 1015 -102 q 1124 -78 1061 -78 q 1202 -55 1182 -79 q 1223 32 1224 -33 l 1223 1136 m 1079 154 l 1013 154 l 1013 1025 l 1079 1025 l 1079 154 z "},"侨":{"ha":1389,"x_min":21,"x_max":1352,"o":"m 1255 1003 q 904 979 1059 987 q 868 739 895 829 l 1325 739 l 1325 671 l 981 671 q 1352 359 1093 450 q 1311 290 1332 332 q 909 671 1009 422 l 843 671 q 422 269 760 454 q 376 335 404 301 q 765 671 679 485 l 444 671 l 444 739 l 793 739 q 831 977 827 844 q 779 975 814 976 q 519 966 611 967 q 507 1035 515 1000 q 1242 1071 865 1040 l 1255 1003 m 62 419 q 21 489 46 452 q 353 1133 231 762 l 425 1111 q 281 771 357 920 l 281 -164 l 210 -164 l 210 642 q 62 419 145 528 m 637 244 q 640 298 639 269 q 640 330 640 313 q 640 374 640 345 l 713 374 q 712 303 713 326 q 710 249 711 277 q 469 -174 711 -25 q 419 -115 447 -142 q 637 244 640 17 m 1040 374 l 1112 374 l 1112 -154 l 1040 -154 l 1040 374 z "},"侮":{"ha":1389,"x_min":36,"x_max":1357,"o":"m 475 56 l 513 396 l 386 396 l 386 461 l 519 461 l 557 802 l 1222 802 q 1215 461 1221 691 l 1357 461 l 1357 396 l 1213 396 q 1203 119 1207 214 l 1317 119 l 1317 56 l 1200 56 q 1199 45 1200 52 q 1198 36 1198 39 q 1002 -147 1194 -146 q 930 -149 968 -148 q 891 -149 913 -149 q 835 -149 873 -149 q 817 -74 829 -112 q 986 -78 892 -78 q 1126 39 1123 -80 l 1126 56 l 475 56 m 1131 119 q 1141 396 1139 294 l 585 396 l 555 119 l 1131 119 m 623 737 l 591 461 l 1143 461 q 1149 711 1147 557 q 1150 737 1150 728 l 623 737 m 72 435 q 43 498 62 461 q 36 511 38 508 q 332 1137 223 786 l 403 1118 q 282 811 349 960 l 282 -167 l 211 -167 l 211 667 q 72 435 143 539 m 447 728 q 400 781 433 747 q 656 1145 554 928 l 726 1131 q 713 1105 722 1122 q 661 1010 680 1040 l 1329 1010 l 1329 945 l 621 945 q 447 728 549 833 m 751 294 l 791 338 q 951 216 885 271 l 907 168 q 751 294 820 243 m 782 640 l 822 685 q 978 566 906 625 l 935 517 q 782 640 848 592 z "},"侯":{"ha":1389,"x_min":35,"x_max":1354,"o":"m 375 -106 q 799 211 754 14 l 386 211 l 386 277 l 817 277 q 833 481 831 349 l 583 481 q 468 336 527 400 q 408 379 433 363 q 619 684 549 529 l 689 659 q 625 545 659 601 l 1271 545 l 1271 481 l 907 481 q 890 277 905 364 l 1349 277 l 1349 211 l 918 211 q 1354 -87 1018 -3 q 1310 -157 1328 -121 q 864 171 961 -57 q 422 -171 807 -42 q 375 -106 396 -130 m 386 798 l 1100 798 l 1116 987 l 515 987 l 515 1051 l 1192 1051 l 1177 798 l 1349 798 l 1349 732 l 386 732 l 386 798 m 68 422 q 35 504 46 481 q 342 1136 236 776 l 415 1118 q 288 791 351 924 l 288 -170 l 215 -170 l 215 652 q 68 422 159 548 z "},"侵":{"ha":1389,"x_min":32,"x_max":1311,"o":"m 484 293 l 484 354 l 1175 354 l 1175 288 q 924 32 1063 123 q 1310 -86 1055 -34 q 1271 -155 1284 -123 q 852 -8 1000 -91 q 414 -168 697 -94 q 375 -98 402 -138 q 781 35 633 -32 q 554 293 651 126 l 484 293 m 472 1067 l 1214 1067 l 1214 647 l 457 647 l 457 708 l 1140 708 l 1140 827 l 510 827 l 510 888 l 1140 888 l 1140 1006 l 472 1006 l 472 1067 m 71 416 q 32 486 54 450 q 323 1129 222 762 l 395 1109 q 275 783 334 918 l 275 -167 l 204 -167 l 204 639 q 71 416 154 544 m 376 529 l 1311 529 l 1311 347 l 1239 347 l 1239 468 l 449 468 l 449 343 l 376 343 l 376 529 m 1095 293 l 637 293 q 851 72 735 146 q 1095 293 979 149 z "},"便":{"ha":1389,"x_min":32,"x_max":1350,"o":"m 452 1054 l 1331 1054 l 1331 990 l 913 990 l 913 836 l 1272 836 l 1272 241 l 1202 241 l 1202 298 l 899 298 q 798 45 878 138 q 1350 -78 960 -47 q 1311 -150 1326 -114 q 745 -5 904 -108 q 422 -171 647 -90 q 378 -104 408 -146 q 681 33 591 -36 q 505 211 593 100 l 562 254 q 733 83 645 145 q 825 298 803 161 l 476 298 l 476 836 l 842 836 l 842 990 l 452 990 l 452 1054 m 66 393 q 32 471 54 427 q 340 1129 243 764 l 411 1109 q 290 778 357 925 l 290 -171 l 220 -171 l 220 636 q 66 393 147 505 m 833 361 q 842 538 842 438 l 547 538 l 547 361 l 833 361 m 905 361 l 1202 361 l 1202 538 l 913 538 q 905 361 913 457 m 547 774 l 547 600 l 842 600 l 842 774 l 547 774 m 1202 774 l 913 774 l 913 600 l 1202 600 l 1202 774 z "},"促":{"ha":1389,"x_min":32,"x_max":1352,"o":"m 399 -161 q 339 -113 374 -138 q 538 452 530 79 l 610 444 q 590 256 600 318 q 847 -9 684 33 l 847 615 l 513 615 l 513 1055 l 1227 1055 l 1227 615 l 921 615 l 921 357 l 1295 357 l 1295 289 l 921 289 l 921 -25 q 963 -28 934 -27 q 985 -29 977 -28 q 1166 -31 1064 -31 q 1352 -31 1271 -32 q 1324 -106 1335 -64 q 974 -100 1111 -106 q 568 149 690 -95 q 399 -161 532 3 m 586 987 l 586 684 l 1154 684 l 1154 987 l 586 987 m 66 393 q 32 471 54 427 q 343 1129 242 758 l 416 1109 q 285 765 357 925 l 285 -171 l 212 -171 l 212 623 q 66 393 148 505 z "},"俄":{"ha":1389,"x_min":29,"x_max":1356,"o":"m 361 250 l 339 323 q 576 375 458 347 l 576 652 l 342 652 l 342 720 l 576 720 l 576 932 q 467 916 539 926 q 410 908 428 911 q 389 975 402 947 q 818 1047 637 1004 l 840 979 q 647 943 752 961 l 647 720 l 924 720 q 920 1137 920 932 l 991 1137 q 996 720 991 955 l 1354 720 l 1354 652 l 999 652 q 1032 254 1007 410 q 1242 536 1143 369 l 1305 501 q 1048 171 1176 290 q 1203 -75 1102 -83 q 1265 1 1250 -77 q 1289 176 1279 66 q 1341 156 1299 171 q 1356 151 1351 153 q 1331 -25 1346 52 q 1204 -150 1306 -153 q 987 118 1055 -156 q 750 -45 890 35 q 701 14 723 -6 q 971 196 861 95 q 926 652 938 371 l 647 652 l 647 392 q 842 439 768 420 q 842 426 842 435 q 848 368 845 389 q 647 322 774 352 l 647 18 q 648 -3 648 9 q 492 -146 648 -147 q 382 -147 457 -147 q 364 -73 379 -112 q 420 -75 391 -74 q 449 -75 433 -75 q 488 -75 463 -75 q 557 -58 539 -76 q 576 8 577 -40 l 576 304 q 361 250 447 273 m 65 441 q 29 517 54 471 q 306 1139 205 778 l 376 1122 q 265 812 326 956 l 265 -171 l 195 -171 l 195 661 q 65 441 138 551 m 1068 990 l 1118 1035 q 1305 863 1216 953 l 1251 814 q 1068 990 1131 938 z "},"俊":{"ha":1389,"x_min":35,"x_max":1352,"o":"m 456 139 q 404 191 430 171 q 750 550 623 353 l 818 522 q 736 414 765 448 l 1174 414 l 1174 343 q 933 64 1067 163 q 1352 -77 1073 -14 q 1314 -147 1334 -104 q 869 20 1026 -75 q 401 -168 703 -85 q 359 -100 382 -127 q 803 62 650 -26 q 612 273 695 144 q 456 139 532 196 m 68 429 q 35 511 59 455 q 370 1136 245 781 l 443 1112 q 297 791 372 935 l 297 -161 l 225 -161 l 225 663 q 68 429 157 548 m 1264 690 q 1183 770 1227 728 q 595 743 821 759 q 490 730 530 739 l 454 808 q 555 878 500 830 q 818 1143 699 999 l 896 1104 q 579 808 729 937 q 735 815 631 810 q 1120 832 994 827 q 1070 878 1103 847 q 979 962 1010 934 l 1034 1006 q 1321 739 1179 878 l 1264 690 m 685 351 q 663 326 674 341 q 868 106 751 188 q 1096 351 994 194 l 685 351 m 382 498 q 697 696 543 581 l 747 643 q 431 437 570 519 q 382 498 415 464 m 966 640 l 1011 697 q 1336 524 1204 601 l 1292 463 q 966 640 1118 567 z "},"俏":{"ha":1389,"x_min":32,"x_max":1312,"o":"m 847 1137 l 922 1137 l 922 754 l 1284 754 l 1284 24 q 1122 -142 1293 -140 q 966 -144 1066 -144 q 950 -66 960 -104 q 1107 -71 1018 -71 q 1187 -49 1165 -71 q 1210 29 1211 -27 l 1210 150 l 566 150 l 566 -165 l 490 -165 l 490 754 l 847 754 l 847 1137 m 566 686 l 566 485 l 1210 485 l 1210 686 l 566 686 m 566 418 l 566 216 l 1210 216 l 1210 418 l 566 418 m 65 412 q 32 500 49 460 q 317 1126 216 786 l 390 1107 q 268 786 337 943 l 268 -168 l 195 -168 l 195 631 q 65 412 137 520 m 1129 828 l 1071 875 q 1251 1088 1169 980 l 1312 1044 q 1129 828 1230 941 m 467 1042 l 522 1086 q 703 890 611 997 l 640 840 q 467 1042 555 949 z "},"俐":{"ha":1389,"x_min":28,"x_max":1295,"o":"m 375 729 l 608 729 l 608 982 q 416 966 486 971 q 401 1032 411 1001 q 847 1078 657 1048 l 865 1013 q 677 989 779 1000 l 677 729 l 879 729 l 879 665 l 677 665 l 677 486 l 722 519 q 900 323 845 389 l 846 281 q 677 472 800 336 l 677 -165 l 608 -165 l 608 538 q 386 104 525 276 q 332 158 353 139 q 600 665 509 370 l 375 665 l 375 729 m 68 428 q 28 497 54 456 q 307 1139 220 785 l 376 1125 q 272 817 323 940 l 272 -168 l 203 -168 l 203 663 q 68 428 142 543 m 1219 1121 l 1289 1121 l 1289 17 q 1147 -136 1295 -134 q 1084 -138 1122 -138 q 1043 -139 1065 -139 q 990 -139 1023 -139 q 970 -65 985 -106 q 1029 -67 994 -66 q 1069 -68 1047 -68 q 1122 -68 1087 -68 q 1199 -47 1179 -68 q 1219 28 1220 -28 l 1219 1121 m 1043 154 l 975 154 l 975 922 l 1043 922 l 1043 154 z "},"俗":{"ha":1389,"x_min":25,"x_max":1341,"o":"m 529 370 l 1189 370 l 1189 -170 l 1116 -170 l 1116 -77 l 603 -77 l 603 -170 l 529 -170 l 529 370 m 603 302 l 603 -9 l 1116 -9 l 1116 302 l 603 302 m 54 443 q 25 522 42 485 q 345 1137 224 783 l 414 1114 q 272 787 348 938 l 272 -170 l 200 -170 l 200 656 q 54 443 122 525 m 1295 363 q 859 742 985 517 q 412 347 699 505 q 363 410 394 372 q 852 869 704 588 l 925 847 q 897 802 913 826 q 1341 427 1040 563 q 1295 363 1307 391 m 718 1095 l 779 1050 q 471 743 592 853 l 412 798 q 718 1095 596 953 m 933 1050 l 986 1097 q 1315 819 1194 930 l 1261 764 q 933 1050 1114 902 z "},"俘":{"ha":1389,"x_min":33,"x_max":1350,"o":"m 374 288 l 842 288 l 842 372 l 1136 547 l 479 547 l 479 615 l 1242 615 l 1242 539 l 917 339 l 917 288 l 1350 288 l 1350 218 l 917 218 l 917 3 q 745 -154 925 -157 q 675 -155 711 -155 q 595 -155 642 -155 q 579 -78 589 -117 q 737 -82 650 -82 q 819 -60 795 -83 q 842 17 842 -38 l 842 218 l 374 218 l 374 288 m 65 447 q 33 533 51 496 q 332 1131 231 802 l 407 1111 q 285 814 349 948 l 285 -168 l 211 -168 l 211 675 q 65 447 149 566 m 1308 1014 q 463 964 882 981 q 449 1035 460 996 q 1291 1084 918 1049 l 1308 1014 m 1109 673 l 1051 710 q 1204 939 1137 825 l 1270 905 q 1109 673 1199 795 m 479 867 l 539 899 q 672 705 616 793 l 608 669 q 479 867 544 773 m 783 922 l 848 943 q 942 729 913 803 l 872 704 q 783 922 835 808 z "},"保":{"ha":1389,"x_min":32,"x_max":1353,"o":"m 507 1065 l 1231 1065 l 1231 636 l 507 636 l 507 1065 m 406 -82 q 354 -21 385 -51 q 774 364 638 124 l 382 364 l 382 432 l 831 432 l 831 585 l 903 585 l 903 432 l 1349 432 l 1349 364 l 958 364 q 1353 4 1089 126 q 1304 -61 1334 -15 q 903 346 1015 90 l 903 -168 l 831 -168 l 831 345 q 406 -82 690 62 m 581 997 l 581 704 l 1157 704 l 1157 997 l 581 997 m 72 416 q 32 486 59 441 q 323 1129 226 766 l 396 1109 q 282 794 337 924 l 282 -167 l 210 -167 l 210 643 q 72 416 149 530 z "},"信":{"ha":1389,"x_min":36,"x_max":1349,"o":"m 514 294 l 1255 294 l 1255 -168 l 1183 -168 l 1183 -87 l 586 -87 l 586 -168 l 514 -168 l 514 294 m 586 228 l 586 -21 l 1183 -21 l 1183 228 l 586 228 m 71 419 q 36 496 54 462 q 330 1132 227 773 l 403 1112 q 282 799 348 949 l 282 -168 l 210 -168 l 210 648 q 71 419 140 515 m 803 1112 l 871 1140 q 949 979 911 1062 l 889 954 l 1349 954 l 1349 886 l 425 886 l 425 954 l 878 954 q 803 1112 834 1053 m 500 734 l 1268 734 l 1268 667 l 500 667 l 500 734 m 500 515 l 1268 515 l 1268 447 l 500 447 l 500 515 z "},"俩":{"ha":1389,"x_min":33,"x_max":1325,"o":"m 1157 189 q 1007 392 1055 331 q 847 52 964 216 q 787 96 816 78 q 978 697 970 321 l 754 697 q 739 534 747 589 q 890 376 810 466 l 844 326 q 831 342 840 332 q 726 464 760 425 q 570 93 690 266 q 515 142 543 119 q 686 697 669 347 l 497 697 l 497 -168 l 427 -168 l 427 764 l 690 764 q 692 849 692 802 q 693 902 693 872 q 693 981 693 927 l 419 981 l 419 1048 l 1325 1048 l 1325 981 l 1053 981 q 1048 764 1053 879 l 1301 764 l 1301 0 q 1162 -150 1301 -145 q 994 -153 1078 -153 q 977 -79 989 -119 q 1140 -83 1056 -83 q 1231 4 1232 -85 l 1231 697 l 1046 697 q 1022 467 1040 562 q 1208 237 1103 372 l 1157 189 m 64 415 q 33 492 50 457 q 306 1135 209 774 l 374 1117 q 258 786 323 946 l 258 -168 l 189 -168 l 189 631 q 64 415 121 496 m 762 981 q 757 764 760 828 l 981 764 q 983 853 982 806 q 983 904 983 876 q 983 981 983 928 l 762 981 z "},"俭":{"ha":1389,"x_min":31,"x_max":1354,"o":"m 69 419 q 31 494 52 458 q 359 1133 234 758 l 432 1111 q 294 786 363 924 l 294 -165 l 222 -165 l 222 652 q 69 419 150 528 m 387 -28 l 974 -28 q 1157 464 1088 245 l 1231 439 q 1047 -28 1130 165 l 1328 -28 l 1328 -96 l 387 -96 l 387 -28 m 1304 621 q 867 1022 1034 773 q 432 604 718 788 q 378 667 408 635 q 861 1150 702 852 l 937 1135 q 925 1114 933 1128 q 905 1082 912 1092 q 1354 689 1088 820 q 1304 621 1318 648 m 545 639 l 1168 639 l 1168 572 l 545 572 l 545 639 m 472 410 l 541 429 q 656 87 581 323 l 582 65 q 472 410 537 226 m 770 463 l 840 479 q 929 151 882 345 l 856 134 q 770 463 827 272 z "},"修":{"ha":1389,"x_min":35,"x_max":1353,"o":"m 582 717 q 532 762 562 739 q 777 1135 689 928 l 842 1114 q 833 1096 839 1107 q 783 1000 802 1031 l 1236 1000 l 1236 930 q 1013 686 1142 783 q 1353 567 1144 610 q 1321 498 1337 537 q 951 644 1085 560 q 558 469 805 549 q 518 532 547 492 q 892 685 739 594 q 710 879 787 762 q 582 717 645 787 m 65 414 q 35 493 51 458 q 285 1136 201 787 l 353 1122 q 264 838 317 982 l 264 -170 l 195 -170 l 195 665 q 65 414 124 509 m 1264 244 l 1312 189 q 533 -171 998 -57 q 498 -106 514 -129 q 1264 244 954 -1 m 399 87 l 399 921 l 468 921 l 468 87 l 399 87 m 1160 936 l 746 936 q 951 725 836 804 q 1160 936 1073 812 m 1147 407 l 1196 351 q 618 56 948 169 q 578 119 604 83 q 1147 407 923 231 m 1017 545 l 1063 490 q 616 268 861 354 q 578 330 600 300 q 1017 545 824 410 z "},"俯":{"ha":1389,"x_min":33,"x_max":1344,"o":"m 829 1131 l 899 1146 q 950 966 913 1102 l 1344 966 l 1344 900 l 507 900 l 507 472 q 481 102 508 228 q 379 -160 456 -26 q 319 -113 352 -135 q 414 125 393 12 q 436 484 437 237 l 436 966 l 873 966 q 829 1131 850 1061 m 69 415 q 33 496 60 441 q 298 1139 213 791 l 370 1124 q 261 799 318 945 l 261 -168 l 192 -168 l 192 640 q 69 415 131 517 m 838 627 l 1132 627 l 1132 835 l 1203 835 l 1203 627 l 1340 627 l 1340 561 l 1203 561 l 1203 39 q 1028 -146 1214 -145 q 976 -148 1003 -147 q 947 -149 963 -149 q 909 -149 935 -149 q 893 -74 905 -111 q 944 -76 913 -75 q 977 -77 959 -77 q 1019 -77 992 -77 q 1107 -50 1084 -77 q 1132 45 1133 -24 l 1132 561 l 838 561 l 838 627 m 575 298 q 522 349 556 320 q 779 859 692 564 l 850 840 q 758 610 810 721 l 758 -165 l 689 -165 l 689 473 q 575 298 645 395 m 974 182 q 851 425 916 308 l 913 453 q 1039 214 982 328 l 974 182 z "},"俱":{"ha":1389,"x_min":28,"x_max":1357,"o":"m 368 241 l 518 241 l 518 1072 l 1207 1072 l 1207 241 l 1357 241 l 1357 179 l 368 179 l 368 241 m 65 429 q 28 500 55 460 q 353 1131 229 745 l 424 1109 q 294 796 355 918 l 294 -170 l 222 -170 l 222 663 q 65 429 158 551 m 590 390 l 590 241 l 1135 241 l 1135 390 l 590 390 m 590 597 l 590 452 l 1135 452 l 1135 597 l 590 597 m 590 804 l 590 659 l 1135 659 l 1135 804 l 590 804 m 590 1011 l 590 865 l 1135 865 l 1135 1011 l 590 1011 m 701 138 l 758 89 q 444 -171 602 -63 l 395 -113 q 701 138 564 0 m 965 90 l 1017 139 q 1322 -107 1177 17 l 1268 -163 q 965 90 1141 -46 z "},"俺":{"ha":1389,"x_min":33,"x_max":1356,"o":"m 371 534 q 323 597 353 561 q 669 880 551 711 l 407 880 l 407 945 l 710 945 q 799 1137 760 1030 l 869 1118 q 790 945 832 1021 l 1304 945 l 1304 880 l 977 880 q 1341 624 1089 709 q 1297 558 1312 584 q 901 880 1023 667 l 753 880 q 486 606 654 721 l 790 606 l 790 765 l 861 765 l 861 606 l 1185 606 l 1185 119 l 861 119 l 861 21 q 886 -50 861 -31 q 974 -71 909 -71 l 1131 -71 q 1265 17 1249 -75 q 1289 154 1278 76 q 1356 134 1328 139 q 1329 -16 1348 60 q 1141 -136 1300 -139 l 953 -136 q 790 12 785 -140 l 790 119 l 541 119 l 541 41 l 469 41 l 469 595 q 371 534 423 564 m 33 492 q 319 1133 222 766 l 393 1114 q 282 808 343 953 l 282 -168 l 211 -168 l 211 654 q 69 412 138 509 q 33 492 53 455 m 861 182 l 1114 182 l 1114 334 l 861 334 l 861 182 m 541 334 l 541 182 l 790 182 l 790 334 l 541 334 m 1114 543 l 861 543 l 861 395 l 1114 395 l 1114 543 m 541 543 l 541 395 l 790 395 l 790 543 l 541 543 z "},"倍":{"ha":1389,"x_min":29,"x_max":1354,"o":"m 524 355 l 1232 355 l 1232 -168 l 1160 -168 l 1160 -79 l 596 -79 l 596 -168 l 524 -168 l 524 355 m 596 290 l 596 -14 l 1160 -14 l 1160 290 l 596 290 m 61 414 q 29 492 50 447 q 325 1129 226 774 l 400 1109 q 269 779 336 923 l 269 -168 l 197 -168 l 197 636 q 61 414 132 517 m 400 585 l 1354 585 l 1354 518 l 400 518 l 400 585 m 450 940 l 1307 940 l 1307 873 l 450 873 l 450 940 m 1046 604 l 985 643 q 1124 842 1057 729 l 1187 806 q 1046 604 1126 707 m 574 800 l 631 839 q 777 647 696 760 l 714 606 q 574 800 635 722 m 790 1105 l 854 1140 q 957 982 908 1063 l 889 945 q 790 1105 843 1027 z "},"倒":{"ha":1389,"x_min":28,"x_max":1301,"o":"m 64 427 q 28 501 52 459 q 285 1141 189 771 l 357 1128 q 265 852 313 982 l 265 -170 l 197 -170 l 197 685 q 64 427 135 543 m 876 532 q 856 570 869 545 q 835 608 842 596 q 385 581 587 597 l 358 644 q 440 732 402 675 q 578 978 520 852 l 389 978 l 389 1043 l 900 1043 l 900 978 l 661 978 q 463 652 577 823 q 802 669 678 661 q 711 821 760 741 l 771 850 q 939 566 865 701 l 876 532 m 607 525 l 676 525 l 676 361 l 892 361 l 892 294 l 676 294 l 676 28 q 829 47 728 34 q 936 61 900 56 q 939 -5 936 21 q 355 -82 683 -35 l 339 -9 q 423 -1 368 -6 q 607 20 545 12 l 607 294 l 387 294 l 387 361 l 607 361 l 607 525 m 1222 1133 l 1292 1133 l 1292 17 q 1128 -147 1301 -150 q 991 -150 1036 -150 q 977 -75 987 -110 q 1116 -79 1058 -79 q 1200 -58 1179 -80 q 1222 25 1223 -37 l 1222 1133 m 999 922 l 1068 922 l 1068 158 l 999 158 l 999 922 z "},"倔":{"ha":1389,"x_min":35,"x_max":1303,"o":"m 549 578 q 387 -170 559 87 q 326 -119 362 -146 q 445 174 416 32 q 476 575 477 315 l 476 1069 l 1289 1069 l 1289 750 l 549 750 l 549 578 m 1234 -168 l 1234 -87 l 619 -87 l 619 228 l 689 228 l 689 -24 l 925 -24 l 925 345 l 673 345 l 673 625 l 743 625 l 743 408 l 925 408 l 925 700 l 996 700 l 996 408 l 1178 408 l 1178 624 l 1247 624 l 1247 345 l 996 345 l 996 -24 l 1234 -24 l 1234 229 l 1303 229 l 1303 -168 l 1234 -168 m 549 1006 l 549 814 l 1218 814 l 1218 1006 l 549 1006 m 68 412 q 35 489 54 452 q 306 1135 217 779 l 375 1116 q 271 811 326 946 l 271 -167 l 200 -167 l 200 647 q 68 412 135 513 z "},"倘":{"ha":1389,"x_min":36,"x_max":1293,"o":"m 836 1139 l 908 1139 l 908 747 l 1286 747 l 1286 -4 q 1145 -157 1289 -157 q 965 -160 1082 -160 q 946 -85 959 -122 q 1118 -90 1025 -90 q 1193 -70 1173 -91 q 1214 3 1215 -50 l 1214 681 l 530 681 l 530 -168 l 458 -168 l 458 747 l 836 747 l 836 1139 m 688 514 l 1057 514 l 1057 110 l 688 110 l 688 514 m 69 437 q 36 515 53 481 q 329 1136 218 776 l 397 1117 q 277 808 338 945 l 277 -168 l 205 -168 l 205 663 q 69 437 138 532 m 757 450 l 757 174 l 987 174 l 987 450 l 757 450 m 460 1031 l 514 1076 q 713 880 635 962 l 653 829 q 460 1031 545 949 m 1097 828 l 1042 878 q 1234 1078 1137 964 l 1293 1032 q 1097 828 1190 919 z "},"候":{"ha":1389,"x_min":25,"x_max":1357,"o":"m 612 357 q 549 393 587 376 q 713 701 663 538 l 783 685 q 737 575 757 615 l 1284 575 l 1284 510 l 985 510 q 972 300 985 402 l 1353 300 l 1353 233 l 986 233 q 1357 -86 1075 8 q 1310 -154 1334 -113 q 939 186 1014 -34 q 510 -171 880 -45 q 465 -106 485 -131 q 886 233 851 22 l 525 233 l 525 300 l 897 300 q 911 510 911 405 l 707 510 q 612 357 669 437 m 58 429 q 25 505 47 463 q 300 1137 216 798 l 370 1122 q 258 798 313 928 l 258 -172 l 191 -172 l 191 652 q 58 429 125 528 m 629 1069 l 1200 1069 l 1168 810 l 1341 810 l 1341 745 l 551 745 l 551 810 l 1095 810 l 1121 1006 l 629 1006 l 629 1069 m 400 945 l 468 945 l 468 87 l 400 87 l 400 945 z "},"倚":{"ha":1389,"x_min":36,"x_max":1350,"o":"m 489 411 l 914 411 l 914 58 l 489 58 l 489 411 m 847 1137 l 920 1137 q 913 989 920 1055 l 1303 989 l 1303 924 l 900 924 q 879 867 890 886 q 1253 689 1059 784 l 1210 628 q 846 812 1014 732 q 507 616 758 699 q 464 679 487 651 q 827 924 786 772 l 447 924 l 447 989 l 840 989 q 847 1137 847 1045 m 387 593 l 1350 593 l 1350 528 l 1211 528 l 1211 -5 q 1061 -153 1215 -150 q 888 -155 977 -155 q 868 -81 882 -125 q 1046 -85 957 -85 q 1139 -1 1139 -85 l 1139 528 l 387 528 l 387 593 m 75 429 q 36 507 54 477 q 345 1137 242 789 l 418 1117 q 292 800 357 937 l 292 -168 l 221 -168 l 221 660 q 75 429 153 534 m 559 347 l 559 123 l 843 123 l 843 347 l 559 347 z "},"借":{"ha":1389,"x_min":32,"x_max":1341,"o":"m 503 449 l 1229 449 l 1229 -168 l 1156 -168 l 1156 -77 l 576 -77 l 576 -168 l 503 -168 l 503 449 m 444 946 l 636 946 l 636 1132 l 710 1132 l 710 946 l 1017 946 l 1017 1132 l 1090 1132 l 1090 946 l 1303 946 l 1303 880 l 1090 880 l 1090 671 l 1341 671 l 1341 606 l 404 606 l 404 671 l 636 671 l 636 880 l 444 880 l 444 946 m 74 416 q 33 484 64 435 q 32 486 33 486 q 330 1129 226 764 l 401 1109 q 285 793 349 940 l 285 -167 l 212 -167 l 212 644 q 74 416 155 538 m 576 154 l 576 -12 l 1156 -12 l 1156 154 l 576 154 m 576 385 l 576 216 l 1156 216 l 1156 385 l 576 385 m 710 880 l 710 671 l 1017 671 l 1017 880 l 710 880 z "},"倡":{"ha":1389,"x_min":33,"x_max":1272,"o":"m 465 436 l 1272 436 l 1272 -170 l 1200 -170 l 1200 -94 l 538 -94 l 538 -170 l 465 -170 l 465 436 m 521 1084 l 1214 1084 l 1214 576 l 521 576 l 521 1084 m 75 416 q 33 489 59 454 q 323 1122 225 770 l 395 1103 q 282 794 338 928 l 282 -167 l 210 -167 l 210 642 q 75 416 155 540 m 538 140 l 538 -32 l 1200 -32 l 1200 140 l 538 140 m 538 374 l 538 201 l 1200 201 l 1200 374 l 538 374 m 593 1022 l 593 861 l 1141 861 l 1141 1022 l 593 1022 m 593 800 l 593 639 l 1141 639 l 1141 800 l 593 800 z "},"倦":{"ha":1389,"x_min":32,"x_max":1358,"o":"m 1317 231 q 945 554 1057 352 l 755 554 q 597 372 696 456 l 1078 372 q 1067 191 1074 262 q 935 71 1058 73 q 804 69 893 69 q 790 138 800 104 q 921 134 857 134 q 999 199 993 133 q 1006 307 1004 244 l 631 307 l 631 35 q 750 -71 626 -75 l 1028 -71 q 1166 7 1148 -74 q 1196 143 1183 64 q 1267 117 1241 124 q 1234 -20 1250 33 q 1039 -138 1200 -140 l 736 -138 q 559 29 557 -140 l 559 340 q 354 201 476 275 q 307 262 342 222 q 667 554 555 397 l 361 554 l 361 621 l 708 621 q 768 772 747 692 l 416 772 l 416 839 l 783 839 q 825 1135 810 960 l 897 1135 q 856 839 884 983 l 1301 839 l 1301 772 l 842 772 q 791 621 823 690 l 1344 621 l 1344 554 l 1019 554 q 1358 296 1134 386 q 1317 231 1338 269 m 65 414 q 32 493 56 441 q 302 1136 218 783 l 375 1122 q 256 766 330 945 l 256 -170 l 184 -170 l 184 615 q 65 414 134 515 m 1034 924 q 1175 1101 1109 1006 l 1234 1064 q 1088 882 1164 969 l 1034 924 m 484 1054 l 538 1093 q 677 930 612 1013 l 619 888 q 484 1054 549 981 z "},"债":{"ha":1389,"x_min":33,"x_max":1344,"o":"m 488 833 l 833 833 l 833 950 l 439 950 l 439 1013 l 833 1013 l 833 1133 l 905 1133 l 905 1013 l 1305 1013 l 1305 950 l 905 950 l 905 833 l 1239 833 l 1239 772 l 905 772 l 905 650 l 1344 650 l 1344 587 l 383 587 l 383 650 l 833 650 l 833 772 l 488 772 l 488 833 m 77 419 q 37 481 68 433 q 33 486 34 485 q 307 1137 222 778 l 380 1124 q 275 807 329 949 l 275 -168 l 203 -168 l 203 640 q 77 419 150 532 m 486 469 l 1223 469 l 1223 79 l 1152 79 l 1152 407 l 558 407 l 558 72 l 486 72 l 486 469 m 1272 -157 q 857 78 1088 -45 q 410 -171 784 -92 q 371 -103 395 -140 q 807 143 758 -30 q 825 224 820 182 q 829 338 829 266 l 903 338 q 879 136 902 201 q 1314 -93 1147 2 l 1272 -157 z "},"值":{"ha":1389,"x_min":24,"x_max":1350,"o":"m 827 1136 l 900 1136 l 900 997 l 1324 997 l 1324 933 l 900 933 l 900 782 l 1225 782 l 1225 -57 l 1350 -57 l 1350 -121 l 367 -121 l 367 -57 l 503 -57 l 503 782 l 827 782 l 827 933 l 429 933 l 429 997 l 827 997 l 827 1136 m 65 422 q 24 488 47 455 q 332 1136 220 777 l 403 1118 q 265 771 334 918 l 265 -163 l 193 -163 l 193 628 q 65 422 137 526 m 576 720 l 576 571 l 1152 571 l 1152 720 l 576 720 m 576 510 l 576 361 l 1152 361 l 1152 510 l 576 510 m 576 90 l 576 -57 l 1152 -57 l 1152 90 l 576 90 m 576 300 l 576 151 l 1152 151 l 1152 300 l 576 300 z "},"倾":{"ha":1389,"x_min":33,"x_max":1346,"o":"m 732 802 l 918 802 l 968 994 l 675 994 l 675 1061 l 1339 1061 l 1339 994 l 1044 994 l 996 802 l 1292 802 l 1292 131 l 1222 131 l 1222 736 l 802 736 l 802 126 l 732 126 l 732 802 m 74 419 q 33 486 60 443 q 297 1137 203 755 l 367 1124 q 268 817 326 968 l 268 -168 l 199 -168 l 199 648 q 74 419 140 524 m 1286 -151 q 1007 172 1192 -35 q 644 -172 953 -18 q 597 -111 632 -154 q 911 130 848 13 q 981 530 984 242 l 981 636 l 1050 636 l 1050 529 q 1028 248 1050 357 q 1346 -98 1213 52 l 1286 -151 m 501 138 q 671 231 593 187 q 675 157 671 198 q 504 62 584 110 q 443 17 469 41 l 393 83 q 424 129 416 103 q 432 203 432 155 l 432 1105 l 501 1105 l 501 734 l 652 734 l 652 668 l 501 668 l 501 138 z "},"假":{"ha":1389,"x_min":31,"x_max":1365,"o":"m 807 1061 l 807 660 l 492 660 l 492 469 l 770 469 l 770 406 l 492 406 l 492 214 l 787 214 l 787 150 l 492 150 l 492 -170 l 421 -170 l 421 1061 l 807 1061 m 817 461 l 817 526 l 1278 526 l 1278 463 q 1108 98 1223 240 q 1365 -90 1198 -1 q 1318 -153 1340 -121 q 1061 46 1160 -59 q 734 -174 947 -70 q 688 -111 718 -147 q 1015 100 901 -16 q 863 461 907 240 l 817 461 m 66 411 q 31 485 49 451 q 269 1136 190 772 l 340 1121 q 260 840 309 985 l 260 -170 l 191 -170 l 191 656 q 66 411 127 511 m 885 1054 l 1265 1054 l 1265 660 l 876 660 l 876 725 l 1196 725 l 1196 989 l 885 989 l 885 1054 m 492 997 l 492 724 l 737 724 l 737 997 l 492 997 m 1206 461 l 933 461 q 1063 155 972 280 q 1206 461 1159 277 z "},"偎":{"ha":1389,"x_min":31,"x_max":1349,"o":"m 472 1074 l 1265 1074 l 1265 558 l 472 558 l 472 1074 m 575 -54 q 842 89 699 9 l 847 9 q 572 -135 730 -43 q 514 -174 536 -155 l 465 -109 q 496 -64 488 -85 q 504 -9 504 -44 l 504 358 l 371 358 l 371 421 l 1340 421 l 1340 358 l 851 358 q 974 154 909 227 q 1227 314 1160 262 l 1280 257 q 1022 103 1171 189 q 1349 -66 1122 8 q 1305 -132 1318 -107 q 779 358 888 11 l 575 358 l 575 -54 m 64 414 q 31 492 52 452 q 301 1131 212 776 l 371 1112 q 264 796 320 938 l 264 -168 l 193 -168 l 193 636 q 64 414 135 521 m 542 787 l 542 619 l 836 619 l 836 787 l 542 787 m 905 787 l 905 619 l 1196 619 l 1196 787 l 905 787 m 542 1013 l 542 848 l 836 848 l 836 1013 l 542 1013 m 1196 1013 l 905 1013 l 905 848 l 1196 848 l 1196 1013 z "},"偏":{"ha":1389,"x_min":35,"x_max":1305,"o":"m 643 -165 l 578 -165 l 578 543 l 1297 543 l 1297 -12 q 1189 -147 1305 -146 q 1103 -150 1145 -150 q 1090 -87 1102 -129 q 1122 -89 1109 -88 q 1154 -89 1132 -89 q 1218 -72 1203 -90 q 1232 -3 1233 -57 l 1232 184 l 1078 184 l 1078 -74 l 1014 -74 l 1014 184 l 861 184 l 861 -86 l 798 -86 l 798 184 l 643 184 l 643 -165 m 815 1131 l 885 1145 q 922 991 908 1061 l 1275 991 l 1275 689 l 509 689 l 509 595 q 481 148 510 287 q 364 -163 456 3 q 304 -119 350 -150 q 416 165 392 31 q 441 595 443 296 l 441 991 l 851 991 q 815 1131 834 1068 m 509 929 l 509 751 l 1208 751 l 1208 929 l 509 929 m 69 416 q 35 492 54 452 q 325 1136 220 760 l 393 1118 q 267 775 334 928 l 267 -170 l 199 -170 l 199 635 q 69 416 145 530 m 643 479 l 643 249 l 798 249 l 798 479 l 643 479 m 1232 479 l 1078 479 l 1078 249 l 1232 249 l 1232 479 m 861 479 l 861 249 l 1014 249 l 1014 479 l 861 479 z "},"做":{"ha":1389,"x_min":25,"x_max":1357,"o":"m 1304 -144 q 1088 106 1160 -10 q 839 -171 1004 -25 q 785 -111 810 -135 q 1046 178 964 45 q 925 642 955 350 q 854 510 890 568 q 804 566 833 535 q 1022 1136 956 816 l 1093 1126 q 1021 878 1060 993 l 1346 878 l 1346 815 l 1275 815 q 1128 175 1243 385 q 1357 -78 1204 46 q 1304 -144 1326 -113 m 564 1128 l 633 1128 l 633 851 l 850 851 l 850 787 l 633 787 l 633 500 l 791 500 l 791 29 l 475 29 l 475 -62 l 406 -62 l 406 500 l 564 500 l 564 787 l 349 787 l 349 851 l 564 851 l 564 1128 m 62 429 q 25 510 52 462 q 292 1133 194 775 l 361 1117 q 267 842 313 960 l 267 -168 l 197 -168 l 197 677 q 62 429 126 529 m 475 436 l 475 93 l 722 93 l 722 436 l 475 436 m 1088 254 q 1204 815 1180 438 l 999 815 q 990 791 996 808 q 977 757 981 768 q 1088 254 1009 421 z "},"停":{"ha":1389,"x_min":33,"x_max":1333,"o":"m 524 821 l 1186 821 l 1186 576 l 524 576 l 524 821 m 64 414 q 33 494 52 451 q 306 1135 220 793 l 375 1117 q 275 825 330 960 l 275 -167 l 204 -167 l 204 665 q 64 414 138 528 m 511 269 l 1196 269 l 1196 207 l 932 207 l 932 -9 q 798 -147 939 -148 q 642 -150 728 -150 q 628 -77 638 -120 q 771 -81 692 -80 q 860 -8 866 -85 l 860 207 l 511 207 l 511 269 m 376 468 l 1333 468 l 1333 283 l 1264 283 l 1264 404 l 446 404 l 446 283 l 376 283 l 376 468 m 810 1121 l 875 1135 q 913 989 895 1062 l 1320 989 l 1320 925 l 411 925 l 411 989 l 846 989 q 821 1078 838 1019 q 810 1121 814 1107 m 595 758 l 595 639 l 1116 639 l 1116 758 l 595 758 z "},"健":{"ha":1389,"x_min":28,"x_max":1349,"o":"m 669 210 l 932 210 l 932 346 l 701 346 l 701 404 l 932 404 l 932 538 l 717 538 l 717 596 l 932 596 l 932 733 l 654 733 l 654 793 l 932 793 l 932 930 l 729 930 l 729 989 l 932 989 l 932 1137 l 999 1137 l 999 989 l 1253 989 l 1253 793 l 1346 793 l 1346 733 l 1253 733 l 1253 538 l 999 538 l 999 404 l 1276 404 l 1276 346 l 999 346 l 999 210 l 1296 210 l 1296 151 l 999 151 l 999 14 l 932 14 l 932 151 l 669 151 l 669 210 m 964 -110 q 515 46 645 -94 q 355 -163 462 -49 q 301 -114 342 -149 q 468 103 419 10 q 343 401 392 208 l 406 419 q 501 176 450 258 q 568 529 548 292 l 358 529 l 358 599 l 579 935 l 374 935 l 374 997 l 652 997 l 652 926 l 432 591 l 635 591 l 635 529 q 547 111 611 246 q 977 -45 665 -35 q 1190 -50 1076 -50 q 1349 -47 1256 -50 q 1324 -118 1333 -81 q 964 -110 1116 -117 m 66 429 q 28 494 56 452 q 282 1136 208 793 l 350 1125 q 250 806 307 961 l 250 -163 l 183 -163 l 183 647 q 66 429 134 541 m 1186 930 l 999 930 l 999 793 l 1186 793 l 1186 930 m 999 596 l 1186 596 l 1186 733 l 999 733 l 999 596 z "},"偶":{"ha":1389,"x_min":31,"x_max":1306,"o":"m 519 -171 l 447 -171 l 447 416 l 839 416 l 839 554 l 498 554 l 498 1063 l 1253 1063 l 1253 554 l 911 554 l 911 416 l 1305 416 l 1305 0 q 1306 -19 1306 -9 q 1154 -146 1306 -148 q 996 -149 1086 -148 q 979 -78 990 -106 q 1139 -81 1080 -81 q 1213 -61 1194 -81 q 1234 9 1234 -42 l 1234 354 l 911 354 l 911 151 q 926 152 916 151 q 1064 160 987 155 q 1046 207 1058 176 q 1023 264 1030 245 l 1084 283 q 1102 239 1090 269 q 1178 41 1147 127 l 1112 20 q 1102 52 1109 31 q 1084 103 1090 87 q 950 94 1046 100 q 599 71 692 77 l 590 138 q 813 147 661 140 q 839 149 830 148 l 839 354 l 519 354 l 519 -171 m 68 453 q 31 529 53 486 q 326 1137 212 773 l 397 1120 q 282 828 342 963 l 282 -168 l 210 -168 l 210 682 q 68 453 143 555 m 911 779 l 911 615 l 1181 615 l 1181 779 l 911 779 m 571 779 l 571 615 l 839 615 l 839 779 l 571 779 m 1181 1002 l 911 1002 l 911 839 l 1181 839 l 1181 1002 m 571 1002 l 571 839 l 839 839 l 839 1002 l 571 1002 z "},"偷":{"ha":1389,"x_min":35,"x_max":1352,"o":"m 518 -163 l 450 -163 l 450 621 l 819 621 l 819 -29 q 690 -153 825 -151 q 651 -154 671 -153 q 631 -154 642 -154 q 606 -154 622 -154 q 593 -86 602 -120 q 629 -87 611 -87 q 649 -87 638 -87 q 677 -87 658 -87 q 751 -20 757 -92 l 751 144 l 518 144 l 518 -163 m 35 493 q 338 1136 235 802 l 410 1118 q 269 775 349 941 l 269 -168 l 200 -168 l 200 640 q 65 419 140 532 q 35 493 49 463 m 1308 671 q 850 1038 1010 817 q 396 646 677 804 q 350 707 373 681 q 836 1143 671 876 l 913 1132 q 899 1110 907 1125 q 889 1095 892 1100 q 1352 737 1074 852 q 1308 671 1324 701 m 1160 637 l 1227 637 l 1227 1 q 1080 -150 1232 -148 q 1029 -151 1055 -151 q 1002 -151 1017 -151 q 966 -151 990 -151 q 954 -79 962 -116 q 1074 -83 1010 -83 q 1160 8 1164 -88 l 1160 637 m 518 558 l 518 412 l 751 412 l 751 558 l 518 558 m 518 351 l 518 205 l 751 205 l 751 351 l 518 351 m 958 571 l 1025 571 l 1025 86 l 958 86 l 958 571 m 636 803 l 1065 803 l 1065 741 l 636 741 l 636 803 z "},"偿":{"ha":1389,"x_min":37,"x_max":1328,"o":"m 428 318 l 1307 318 l 1307 253 l 857 253 q 579 -45 690 58 q 711 -39 625 -43 q 1117 -22 993 -26 q 1084 10 1106 -12 q 958 132 995 98 l 1015 172 q 1308 -109 1195 9 l 1247 -157 q 1200 -106 1234 -142 q 1179 -85 1186 -92 q 602 -111 906 -94 q 478 -125 517 -114 l 440 -56 q 536 11 484 -36 q 754 253 661 127 l 428 253 l 428 318 m 75 386 q 37 471 60 431 q 342 1125 233 743 l 416 1105 q 296 786 365 946 l 296 -164 l 222 -164 l 222 631 q 75 386 151 490 m 833 1125 l 907 1125 l 907 806 l 1328 806 l 1328 587 l 1255 587 l 1255 742 l 489 742 l 489 587 l 416 587 l 416 806 l 833 806 l 833 1125 m 574 557 l 1168 557 l 1168 492 l 574 492 l 574 557 m 1040 917 q 1187 1075 1129 1001 l 1249 1032 q 1100 871 1202 978 l 1040 917 m 505 1031 l 561 1071 q 717 916 643 996 l 652 872 q 505 1031 576 960 z "},"傀":{"ha":1389,"x_min":33,"x_max":1353,"o":"m 475 987 l 729 987 q 777 1139 754 1061 l 850 1124 q 802 987 823 1043 l 1250 987 l 1250 407 l 857 407 q 406 -170 785 83 q 351 -104 377 -131 q 782 407 716 128 l 475 407 l 475 987 m 66 408 q 33 485 52 448 q 332 1135 237 781 l 403 1117 q 283 789 349 939 l 283 -167 l 212 -167 l 212 643 q 66 408 157 538 m 840 329 l 911 329 l 911 24 q 1008 -69 906 -73 l 1152 -69 q 1267 8 1253 -71 q 1284 157 1277 68 q 1353 136 1316 146 q 1331 -12 1344 52 q 1158 -136 1307 -138 l 997 -136 q 840 11 838 -138 l 840 329 m 895 667 q 871 469 888 550 l 1178 469 l 1178 667 l 895 667 m 1178 925 l 899 925 l 899 828 q 898 775 899 810 q 897 728 897 743 l 1178 728 l 1178 925 m 547 925 l 547 728 l 825 728 q 826 774 825 743 q 827 827 827 808 l 827 925 l 547 925 m 798 469 q 822 667 816 559 l 547 667 l 547 469 l 798 469 m 1013 139 q 1162 150 1067 142 q 1131 231 1152 176 q 1124 248 1126 242 l 1175 265 q 1255 65 1215 179 l 1202 45 q 1200 49 1201 46 q 1182 98 1187 81 q 958 77 1038 88 l 937 131 q 1051 349 985 175 l 1111 330 q 1013 139 1061 225 z "},"傅":{"ha":1389,"x_min":36,"x_max":1350,"o":"m 1168 321 l 1168 406 l 886 406 l 886 309 l 818 309 l 818 406 l 538 406 l 538 296 l 471 296 l 471 803 l 818 803 l 818 911 l 403 911 l 403 974 l 818 974 l 818 1137 l 886 1137 l 886 974 l 1320 974 l 1320 911 l 886 911 l 886 803 l 1235 803 l 1235 321 l 1168 321 m 71 421 q 36 493 54 463 q 311 1137 224 794 l 379 1120 q 272 808 331 949 l 272 -167 l 204 -167 l 204 656 q 71 421 142 530 m 1064 292 l 1133 292 l 1133 216 l 1350 216 l 1350 154 l 1133 154 l 1133 -1 q 972 -151 1139 -155 q 907 -153 945 -152 q 867 -153 888 -153 q 814 -153 847 -153 q 799 -81 808 -117 q 965 -86 890 -86 q 1064 1 1068 -90 l 1064 154 l 368 154 l 368 216 l 1064 216 l 1064 292 m 886 574 l 886 465 l 1168 465 l 1168 574 l 886 574 m 1168 742 l 886 742 l 886 633 l 1168 633 l 1168 742 m 538 742 l 538 633 l 818 633 l 818 742 l 538 742 m 538 574 l 538 465 l 818 465 l 818 574 l 538 574 m 509 98 l 551 147 q 753 7 647 86 l 707 -46 q 509 98 603 37 m 1200 1047 l 1168 994 q 1006 1075 1093 1036 l 1036 1124 q 1200 1047 1122 1086 z "},"傍":{"ha":1389,"x_min":35,"x_max":1343,"o":"m 407 -170 q 351 -111 383 -138 q 572 93 524 -3 q 628 399 626 185 l 387 399 l 387 461 l 1343 461 l 1343 399 l 700 399 q 692 252 698 315 l 1190 252 q 1173 35 1184 133 q 951 -140 1164 -143 q 880 -142 918 -142 q 842 -143 863 -143 q 793 -143 825 -143 q 779 -69 790 -106 q 854 -73 823 -73 q 890 -74 870 -74 q 946 -74 906 -74 q 1100 36 1092 -80 q 1112 189 1110 116 l 682 189 q 407 -170 652 -21 m 72 435 q 39 506 60 472 q 35 513 36 511 q 321 1136 218 801 l 393 1118 q 282 829 340 966 l 282 -161 l 210 -161 l 210 672 q 72 435 143 539 m 428 713 l 939 713 q 1064 901 1010 812 l 1131 865 q 1014 713 1073 786 l 1303 713 l 1303 533 l 1231 533 l 1231 650 l 498 650 l 498 532 l 428 532 l 428 713 m 794 1116 l 859 1141 q 937 1003 899 1080 l 882 978 l 1296 978 l 1296 916 l 450 916 l 450 978 l 868 978 q 794 1116 829 1057 m 589 867 l 647 901 q 757 755 696 842 l 692 718 q 589 867 645 795 m 782 607 l 840 639 q 933 500 899 559 l 868 467 q 782 607 823 546 z "},"储":{"ha":1389,"x_min":26,"x_max":1350,"o":"m 872 1136 l 942 1136 l 942 962 l 1131 962 l 1131 900 l 942 900 l 942 686 l 1006 686 q 1250 1023 1147 836 l 1312 990 q 1096 686 1205 808 l 1350 686 l 1350 623 l 1038 623 q 867 471 957 540 l 1249 471 l 1249 -163 l 1179 -163 l 1179 -69 l 847 -69 l 847 -164 l 778 -164 l 778 404 q 625 301 684 338 q 585 358 608 330 q 943 623 783 469 l 633 623 l 633 686 l 872 686 l 872 900 l 681 900 l 681 962 l 872 962 l 872 1136 m 64 431 q 26 505 57 452 q 283 1140 195 763 l 354 1129 q 258 821 310 956 l 258 -170 l 191 -170 l 191 661 q 64 431 138 551 m 519 54 q 667 168 576 97 q 684 100 673 131 q 517 -24 599 40 q 460 -75 492 -43 l 415 -26 q 452 78 454 17 l 452 625 l 332 625 l 332 689 l 519 689 l 519 54 m 847 408 l 847 231 l 1179 231 l 1179 408 l 847 408 m 847 170 l 847 -7 l 1179 -7 l 1179 170 l 847 170 m 536 821 q 418 1043 478 939 l 475 1071 q 596 852 536 969 l 536 821 z "},"催":{"ha":1389,"x_min":35,"x_max":1344,"o":"m 857 760 l 916 793 q 995 684 945 756 q 1010 663 1006 669 l 954 631 l 1333 631 l 1333 570 l 975 570 l 975 416 l 1304 416 l 1304 355 l 975 355 l 975 200 l 1304 200 l 1304 139 l 975 139 l 975 -21 l 1344 -21 l 1344 -82 l 589 -82 l 589 -168 l 517 -168 l 517 468 q 396 315 477 412 q 342 367 385 329 q 628 799 509 539 l 694 774 q 619 631 659 699 l 945 631 q 857 760 890 717 m 66 418 q 35 500 52 462 q 321 1136 229 781 l 396 1118 q 281 803 338 933 l 281 -168 l 208 -168 l 208 652 q 66 418 144 529 m 500 828 l 500 1083 l 572 1083 l 572 889 l 851 889 l 851 1136 l 924 1136 l 924 889 l 1207 889 l 1207 1083 l 1279 1083 l 1279 828 l 500 828 m 589 139 l 589 -21 l 903 -21 l 903 139 l 589 139 m 589 355 l 589 200 l 903 200 l 903 355 l 589 355 m 589 570 l 589 416 l 903 416 l 903 570 l 589 570 z "},"傲":{"ha":1389,"x_min":28,"x_max":1357,"o":"m 1305 -154 q 1095 118 1169 -15 q 856 -165 1015 -14 q 802 -114 842 -151 q 1057 195 972 42 q 939 685 969 379 q 868 561 916 640 q 819 616 849 587 q 1032 1140 961 835 l 1104 1128 q 1029 889 1063 980 l 1352 889 l 1352 823 l 1280 823 q 1136 193 1250 408 q 1357 -97 1210 50 q 1305 -154 1326 -129 m 585 1135 l 653 1135 l 653 964 l 863 964 l 863 903 l 653 903 l 653 760 l 823 760 l 823 699 l 653 699 l 653 554 l 861 554 l 861 492 l 541 492 q 538 354 541 436 l 832 354 q 819 56 828 202 q 660 -113 815 -111 q 620 -115 642 -114 q 596 -115 609 -115 q 566 -115 585 -115 q 546 -41 555 -64 q 652 -45 594 -44 q 750 62 747 -54 q 762 293 758 157 l 533 293 q 372 -163 526 29 q 314 -115 349 -140 q 441 130 416 20 q 471 492 471 237 l 343 492 l 343 554 l 585 554 l 585 699 l 397 699 l 397 760 l 585 760 l 585 903 l 367 903 l 367 964 l 585 964 l 585 1135 m 65 428 q 28 503 58 449 q 286 1137 198 764 l 357 1126 q 260 815 309 946 l 260 -170 l 192 -170 l 192 657 q 65 428 142 553 m 1003 823 q 994 802 1000 816 q 987 787 989 792 q 1099 277 1022 456 q 1211 823 1187 473 l 1003 823 z "},"傻":{"ha":1389,"x_min":32,"x_max":1350,"o":"m 479 1004 l 729 1004 q 766 1114 743 1039 q 774 1141 771 1132 l 847 1128 q 802 1004 835 1086 l 1264 1004 l 1264 532 l 479 532 l 479 1004 m 550 943 l 550 593 l 1193 593 l 1193 943 l 550 943 m 465 65 q 422 118 454 86 q 746 383 621 238 l 807 353 q 791 336 802 347 q 750 293 765 307 l 1179 293 l 1179 225 q 942 17 1075 95 q 1350 -82 1089 -50 q 1317 -149 1329 -116 q 869 -21 1021 -102 q 412 -168 697 -108 q 376 -104 402 -144 q 798 20 641 -49 q 629 180 711 77 q 465 65 564 126 m 69 418 q 32 490 58 447 q 354 1131 240 764 l 425 1111 q 293 789 358 924 l 293 -163 l 222 -163 l 222 654 q 69 418 150 527 m 629 878 l 668 924 q 700 907 678 918 q 884 807 815 845 q 1057 930 973 862 l 1104 888 q 945 772 1033 828 q 977 754 956 766 q 1126 667 1088 690 l 1084 616 q 885 734 1006 664 q 632 610 766 664 q 596 665 621 630 q 822 771 720 713 q 794 787 812 777 q 629 878 674 853 m 689 233 q 683 227 688 231 q 677 222 679 224 q 869 54 767 115 q 1096 233 998 124 l 689 233 m 375 326 q 664 496 522 399 l 713 449 q 422 271 567 351 q 383 317 415 282 q 375 326 377 323 m 993 443 l 1034 494 q 1329 353 1179 434 l 1289 297 q 993 443 1140 379 z "},"像":{"ha":1389,"x_min":26,"x_max":1332,"o":"m 410 736 q 359 791 400 753 q 694 1141 578 945 l 766 1124 q 697 1025 734 1072 l 1083 1025 l 1083 964 l 958 827 l 1258 827 l 1258 559 l 838 559 q 800 513 821 535 q 921 361 880 443 q 1208 532 1095 452 l 1250 476 q 1079 376 1164 422 q 1332 0 1139 127 q 1279 -57 1303 -25 q 1022 345 1082 92 q 958 311 1001 332 q 946 304 950 307 q 978 66 979 206 q 768 -146 984 -146 q 724 -147 749 -146 q 697 -147 712 -147 q 659 -147 684 -147 q 643 -74 652 -109 q 707 -78 681 -77 q 764 -79 733 -79 q 908 71 913 -86 q 899 201 909 142 q 401 -110 726 10 q 355 -52 380 -78 q 882 269 701 69 q 839 367 869 317 q 404 94 677 186 q 358 151 387 125 q 807 414 656 249 q 754 469 784 443 q 400 283 644 376 q 355 342 390 303 q 754 559 652 441 l 475 559 l 475 789 q 410 736 442 760 m 66 418 q 26 490 54 448 q 323 1131 216 762 l 392 1111 q 277 802 337 943 l 277 -163 l 207 -163 l 207 654 q 66 418 142 529 m 997 966 l 652 966 q 517 827 587 890 l 871 827 l 997 966 m 1189 768 l 917 768 q 871 618 899 676 l 1189 618 l 1189 768 m 545 768 l 545 618 l 798 618 q 847 768 836 687 l 545 768 z "},"僚":{"ha":1389,"x_min":32,"x_max":1353,"o":"m 1235 873 l 1286 825 q 1111 705 1219 774 q 1353 586 1204 635 q 1311 524 1324 552 q 1194 578 1246 551 l 1194 205 l 890 205 l 890 9 q 891 -9 891 0 q 725 -147 891 -150 q 614 -149 686 -149 q 606 -99 613 -134 q 602 -78 603 -85 q 648 -80 623 -79 q 676 -81 661 -81 q 721 -81 690 -81 q 797 -63 779 -81 q 817 5 817 -46 l 817 205 l 494 205 l 494 562 q 406 518 453 541 q 358 575 383 547 q 611 713 517 642 q 447 827 497 794 l 492 875 q 664 757 600 806 q 785 937 745 834 l 425 937 l 425 999 l 803 999 q 827 1146 819 1065 l 901 1146 q 875 999 890 1058 l 1321 999 l 1321 937 l 924 937 q 1060 749 987 817 q 1235 873 1148 805 m 66 412 q 32 490 52 451 q 330 1131 232 781 l 403 1111 q 286 806 345 941 l 286 -163 l 214 -163 l 214 654 q 66 412 153 537 m 567 395 l 567 265 l 1122 265 l 1122 395 l 567 395 m 567 578 l 567 453 l 1122 453 l 1122 578 l 567 578 m 1092 637 q 856 929 947 731 q 619 637 797 754 l 1092 637 m 599 150 l 654 102 q 408 -100 534 -5 q 355 -45 390 -74 q 599 150 500 54 m 1265 -98 q 1022 96 1141 6 l 1069 146 q 1317 -40 1223 33 l 1265 -98 z "},"僧":{"ha":1389,"x_min":26,"x_max":1271,"o":"m 447 947 l 708 947 q 585 1108 666 1010 l 642 1147 q 770 986 704 1072 l 714 947 l 929 947 q 1074 1145 987 1018 l 1139 1108 q 1013 947 1061 1006 l 1271 947 l 1271 509 l 447 509 l 447 947 m 503 386 l 1214 386 l 1214 -168 l 1143 -168 l 1143 -109 l 574 -109 l 574 -168 l 503 -168 l 503 386 m 62 418 q 26 490 47 454 q 334 1131 221 755 l 406 1111 q 282 798 353 957 l 282 -171 l 210 -171 l 210 653 q 62 418 151 543 m 1202 889 l 892 889 l 892 567 l 1202 567 l 1202 889 m 517 889 l 517 567 l 823 567 l 823 889 l 517 889 m 574 110 l 574 -49 l 1143 -49 l 1143 110 l 574 110 m 574 326 l 574 168 l 1143 168 l 1143 326 l 574 326 m 1139 785 q 1015 636 1086 714 l 964 676 q 1084 822 1040 761 l 1139 785 m 578 790 l 629 828 q 750 682 705 741 l 694 642 q 578 790 637 723 z "},"僵":{"ha":1389,"x_min":35,"x_max":1346,"o":"m 452 370 l 1247 370 l 1247 22 l 452 22 l 452 370 m 452 936 l 1249 936 l 1249 590 l 452 590 l 452 936 m 69 435 q 35 513 54 475 q 301 1133 213 784 l 370 1118 q 265 808 328 963 l 265 -165 l 197 -165 l 197 656 q 69 435 132 526 m 345 -68 l 1346 -68 l 1346 -119 l 345 -119 l 345 -68 m 359 507 l 1344 507 l 1344 456 l 359 456 l 359 507 m 400 1076 l 1320 1076 l 1320 1025 l 400 1025 l 400 1076 m 519 172 l 519 74 l 815 74 l 815 172 l 519 172 m 884 172 l 884 74 l 1179 74 l 1179 172 l 884 172 m 884 739 l 884 642 l 1181 642 l 1181 739 l 884 739 m 519 739 l 519 642 l 815 642 l 815 739 l 519 739 m 1181 885 l 884 885 l 884 789 l 1181 789 l 1181 885 m 519 318 l 519 222 l 815 222 l 815 318 l 519 318 m 1179 318 l 884 318 l 884 222 l 1179 222 l 1179 318 m 519 885 l 519 789 l 815 789 l 815 885 l 519 885 z "},"僻":{"ha":1389,"x_min":25,"x_max":1343,"o":"m 415 1051 l 793 1051 l 793 625 l 482 625 q 336 14 482 265 q 282 68 313 39 q 389 349 363 216 q 415 741 416 481 l 415 1051 m 488 421 l 802 421 l 802 -121 l 734 -121 l 734 -35 l 554 -35 l 554 -132 l 488 -132 l 488 421 m 872 250 l 1063 250 l 1063 492 l 839 492 l 839 558 l 1096 558 q 1222 859 1166 706 l 1291 832 q 1168 558 1231 695 l 1343 558 l 1343 492 l 1132 492 l 1132 250 l 1312 250 l 1312 183 l 1132 183 l 1132 -168 l 1063 -168 l 1063 183 l 872 183 l 872 250 m 54 429 l 25 510 q 285 1133 196 779 l 355 1116 q 258 828 312 965 l 258 -168 l 191 -168 l 191 671 q 54 429 123 532 m 484 690 l 725 690 l 725 986 l 484 986 l 484 690 m 554 355 l 554 29 l 734 29 l 734 355 l 554 355 m 1025 1126 l 1090 1146 q 1102 1113 1095 1135 q 1150 965 1135 1019 l 1311 965 l 1311 899 l 868 899 l 868 965 l 1080 965 q 1025 1126 1053 1054 m 901 829 l 962 854 q 1064 624 1006 762 l 999 597 q 901 829 956 709 z "},"儒":{"ha":1389,"x_min":32,"x_max":1320,"o":"m 515 -170 l 447 -170 l 447 281 l 757 281 l 783 407 l 401 407 l 401 464 l 1320 464 l 1320 407 l 851 407 l 819 281 l 1274 281 l 1274 -18 q 1158 -150 1280 -151 q 1071 -151 1134 -151 l 1059 -85 q 1149 -87 1105 -87 q 1206 -18 1208 -90 l 1206 224 l 1018 224 l 1018 -125 l 951 -125 l 951 224 l 768 224 l 768 -125 l 701 -125 l 701 224 l 515 224 l 515 -170 m 464 1071 l 1250 1071 l 1250 1014 l 890 1014 l 890 907 l 1312 907 l 1312 699 l 1246 699 l 1246 850 l 890 850 l 890 541 l 822 541 l 822 850 l 465 850 l 465 699 l 399 699 l 399 907 l 822 907 l 822 1014 l 464 1014 l 464 1071 m 32 493 q 311 1136 224 783 l 380 1118 q 271 803 332 953 l 271 -168 l 203 -168 l 203 654 q 64 415 143 534 q 37 480 56 437 q 32 493 34 489 m 957 618 l 1219 618 l 1219 567 l 957 567 l 957 618 m 511 618 l 751 618 l 751 567 l 511 567 l 511 618 m 962 757 l 1178 757 l 1178 705 l 962 705 l 962 757 m 538 757 l 751 757 l 751 705 l 538 705 l 538 757 z "},"儡":{"ha":1389,"x_min":33,"x_max":1310,"o":"m 463 1057 l 1208 1057 l 1208 578 l 463 578 l 463 1057 m 884 457 l 1310 457 l 1310 -149 l 1250 -149 l 1250 -79 l 943 -79 l 943 -149 l 884 -149 l 884 457 m 359 457 l 775 457 l 775 -149 l 715 -149 l 715 -79 l 419 -79 l 419 -149 l 359 -149 l 359 457 m 33 490 q 315 1136 225 781 l 383 1120 q 250 754 319 914 l 250 -168 l 184 -168 l 184 616 q 64 416 121 499 q 33 490 47 468 m 868 790 l 868 635 l 1141 635 l 1141 790 l 868 790 m 529 790 l 529 635 l 803 635 l 803 790 l 529 790 m 529 1000 l 529 846 l 803 846 l 803 1000 l 529 1000 m 1141 1000 l 868 1000 l 868 846 l 1141 846 l 1141 1000 m 1125 164 l 1125 -22 l 1250 -22 l 1250 164 l 1125 164 m 943 164 l 943 -22 l 1067 -22 l 1067 164 l 943 164 m 1250 400 l 1125 400 l 1125 220 l 1250 220 l 1250 400 m 596 164 l 596 -22 l 715 -22 l 715 164 l 596 164 m 943 400 l 943 220 l 1067 220 l 1067 400 l 943 400 m 419 164 l 419 -22 l 538 -22 l 538 164 l 419 164 m 715 400 l 596 400 l 596 220 l 715 220 l 715 400 m 419 400 l 419 220 l 538 220 l 538 400 l 419 400 z "},"儿":{"ha":1389,"x_min":40,"x_max":1350,"o":"m 385 1105 l 463 1105 l 463 667 q 389 182 465 346 q 102 -157 317 10 q 40 -90 74 -124 q 314 214 246 58 q 385 667 387 367 l 385 1105 m 806 1114 l 884 1114 l 884 72 q 909 -20 883 5 q 997 -46 932 -47 l 1107 -46 q 1247 58 1235 -51 q 1274 318 1265 178 q 1350 297 1323 302 q 1320 33 1335 125 q 1116 -121 1299 -125 l 982 -121 q 806 65 797 -130 l 806 1114 z "},"允":{"ha":1389,"x_min":60,"x_max":1343,"o":"m 871 904 l 929 947 q 1322 550 1089 792 l 1260 500 q 1205 558 1242 518 q 1156 611 1173 593 q 951 604 1093 609 q 867 600 895 602 l 867 68 q 891 -20 866 4 q 978 -45 915 -45 l 1107 -45 q 1250 66 1236 -52 q 1270 233 1261 134 q 1343 212 1314 217 q 1325 54 1334 111 q 1111 -118 1305 -127 l 966 -118 q 791 50 789 -121 l 791 597 q 584 588 723 595 q 536 586 552 587 q 533 497 536 561 q 533 492 534 497 q 534 454 534 475 q 114 -167 534 33 q 60 -106 96 -142 q 369 136 300 24 q 457 488 448 247 q 460 545 458 503 q 461 583 460 572 q 299 575 406 580 q 262 574 275 574 q 243 572 256 573 q 149 561 188 570 l 111 642 q 208 705 163 664 q 614 1145 427 894 l 693 1103 q 258 648 521 899 q 1090 679 505 656 q 927 847 1035 737 q 871 904 888 886 z "},"元":{"ha":1389,"x_min":54,"x_max":1349,"o":"m 54 650 l 1336 650 l 1336 579 l 904 579 l 904 68 q 926 -21 903 1 q 1013 -45 948 -45 l 1112 -45 q 1255 66 1241 -52 q 1275 233 1266 123 q 1349 212 1322 216 q 1331 54 1338 101 q 1117 -118 1310 -127 l 1000 -118 q 829 50 825 -123 l 829 579 l 521 579 q 519 535 520 566 q 518 492 519 505 q 519 450 519 476 q 114 -167 519 22 q 60 -102 94 -138 q 359 135 294 24 q 441 488 433 240 q 444 547 442 503 q 446 579 445 569 l 54 579 l 54 650 m 184 1046 l 1208 1046 l 1208 975 l 184 975 l 184 1046 z "},"兄":{"ha":1389,"x_min":41,"x_max":1346,"o":"m 200 1079 l 1179 1079 l 1179 469 l 876 469 l 876 53 q 901 -34 876 -10 q 989 -57 924 -58 l 1131 -57 q 1247 26 1236 -61 q 1274 221 1263 113 q 1346 197 1316 204 q 1321 5 1331 62 q 1146 -130 1296 -133 l 966 -130 q 800 33 798 -132 l 800 469 l 538 469 q 534 406 538 441 q 90 -176 547 -31 q 41 -110 74 -151 q 367 87 288 -16 q 458 404 451 184 q 460 459 458 420 q 461 469 461 466 l 200 469 l 200 1079 m 277 1008 l 277 539 l 1103 539 l 1103 1008 l 277 1008 z "},"充":{"ha":1389,"x_min":50,"x_max":1349,"o":"m 1223 366 q 1193 396 1213 376 q 1129 460 1152 437 q 876 453 1036 458 l 876 45 q 900 -48 876 -24 q 989 -73 922 -73 l 1112 -73 q 1258 22 1246 -77 q 1275 167 1270 96 q 1349 140 1302 154 q 1329 -8 1342 60 q 1112 -142 1310 -149 l 970 -142 q 802 24 795 -148 l 802 452 q 642 446 747 450 q 568 443 592 444 q 470 54 564 166 q 100 -168 385 -66 q 50 -102 77 -130 q 402 92 323 -12 q 493 440 490 191 q 354 435 443 437 q 211 421 251 429 l 171 498 q 282 570 224 522 q 597 875 478 730 l 72 875 l 72 945 l 688 945 q 633 1118 663 1032 l 705 1136 q 765 945 737 1038 l 1329 945 l 1329 875 l 631 875 l 686 846 q 310 501 504 663 q 1063 525 656 511 q 872 701 962 622 l 926 747 q 1284 418 1117 580 l 1223 366 z "},"兆":{"ha":1389,"x_min":53,"x_max":1349,"o":"m 1165 261 q 840 458 1024 351 l 840 78 q 960 -49 836 -53 l 1114 -49 q 1253 54 1238 -54 q 1276 236 1266 119 q 1349 214 1305 226 q 1320 26 1335 98 q 1120 -121 1293 -126 l 945 -121 q 765 71 761 -125 l 765 1126 l 840 1126 l 840 534 q 1211 332 998 452 l 1165 261 m 456 1126 l 530 1126 l 530 581 q 446 133 534 279 q 110 -170 365 -20 q 53 -103 84 -134 q 452 457 458 96 q 431 445 445 453 q 102 245 231 325 l 60 322 q 454 536 216 397 q 455 555 454 543 q 456 578 456 570 l 456 1126 m 904 689 q 1171 925 1042 795 l 1226 873 q 956 632 1101 752 l 904 689 m 85 861 l 135 909 q 390 693 254 815 l 334 635 q 85 861 195 771 z "},"先":{"ha":1389,"x_min":39,"x_max":1361,"o":"m 694 1137 l 770 1137 l 770 872 l 1254 872 l 1254 803 l 770 803 l 770 514 l 1335 514 l 1335 443 l 897 443 l 897 36 q 996 -60 892 -64 l 1152 -60 q 1268 25 1251 -60 q 1289 203 1282 100 q 1361 182 1331 188 q 1336 4 1348 55 q 1160 -131 1308 -129 l 981 -131 q 823 25 821 -134 l 823 443 l 524 443 q 524 405 524 427 q 83 -170 524 -22 q 39 -97 58 -123 q 451 406 451 20 q 450 443 451 429 l 64 443 l 64 514 l 694 514 l 694 803 l 318 803 q 192 603 266 706 q 126 647 151 633 q 368 1100 279 840 l 443 1078 q 353 872 395 954 l 694 872 l 694 1137 z "},"光":{"ha":1389,"x_min":33,"x_max":1354,"o":"m 656 1137 l 730 1137 l 730 567 l 1344 567 l 1344 496 l 897 496 l 897 35 q 1004 -65 896 -66 l 1153 -65 q 1264 17 1251 -66 q 1282 200 1276 88 q 1354 176 1323 184 q 1332 -4 1346 79 q 1162 -136 1310 -136 l 989 -136 q 822 25 825 -134 l 822 496 l 522 496 q 524 448 524 468 q 85 -168 524 -4 q 33 -98 59 -129 q 448 456 448 31 q 447 496 448 480 l 50 496 l 50 567 l 656 567 l 656 1137 m 971 684 l 914 734 q 1174 1023 1059 878 l 1236 978 q 971 684 1115 831 m 153 982 l 211 1025 q 457 745 326 901 l 390 693 q 153 982 273 844 z "},"克":{"ha":1389,"x_min":46,"x_max":1353,"o":"m 659 1143 l 732 1143 l 732 985 l 1335 985 l 1335 918 l 732 918 l 732 739 l 1174 739 l 1174 315 l 872 315 l 872 21 q 971 -69 868 -73 l 1152 -69 q 1261 14 1246 -71 q 1282 168 1272 68 q 1287 166 1284 168 q 1353 146 1332 151 q 1331 -5 1344 65 q 1161 -139 1306 -139 l 950 -139 q 799 12 797 -141 l 799 315 l 557 315 q 83 -172 565 -70 q 46 -102 71 -142 q 484 315 493 -15 l 218 315 l 218 739 l 659 739 l 659 918 l 49 918 l 49 985 l 659 985 l 659 1143 m 290 673 l 290 380 l 1101 380 l 1101 673 l 290 673 z "},"免":{"ha":1389,"x_min":39,"x_max":1352,"o":"m 89 628 q 39 686 66 659 q 469 1143 317 893 l 543 1114 q 463 1000 504 1054 l 1007 1000 l 1007 926 l 835 754 l 1181 754 l 1181 338 l 779 338 l 779 31 q 903 -64 773 -68 l 1125 -64 q 1255 33 1238 -66 q 1279 211 1268 98 q 1352 191 1314 199 q 1324 11 1339 88 q 1140 -132 1296 -135 l 878 -132 q 707 24 705 -134 l 707 338 l 673 338 q 97 -174 568 9 q 50 -102 78 -139 q 593 338 478 50 l 199 338 l 199 720 q 89 628 147 676 m 1107 688 l 733 688 q 694 404 727 525 l 1107 404 l 1107 688 m 272 688 l 272 404 l 618 404 q 659 688 656 533 l 272 688 m 918 935 l 410 935 q 236 754 330 840 l 736 754 l 918 935 z "},"兑":{"ha":1389,"x_min":39,"x_max":1346,"o":"m 184 892 l 786 892 q 958 1141 875 1010 l 1032 1107 q 1002 1066 1023 1094 q 873 892 913 942 l 1197 892 l 1197 364 l 876 364 l 876 53 q 901 -34 876 -10 q 989 -57 924 -58 l 1131 -57 q 1247 26 1236 -61 q 1274 221 1263 113 q 1346 197 1316 204 q 1321 5 1331 62 q 1146 -130 1296 -133 l 966 -130 q 800 33 798 -132 l 800 364 l 545 364 q 545 335 545 349 q 90 -176 545 -40 q 39 -110 71 -149 q 375 75 296 -18 q 469 364 462 164 l 184 364 l 184 892 m 261 822 l 261 433 l 1121 433 l 1121 822 l 261 822 m 354 1099 l 415 1137 q 581 940 514 1026 l 515 899 q 354 1099 454 981 z "},"兔":{"ha":1389,"x_min":37,"x_max":1352,"o":"m 87 625 q 37 689 64 658 q 488 1143 312 871 l 570 1120 q 490 1014 536 1071 l 1008 1014 l 1008 936 l 833 761 l 1178 761 l 1178 347 l 779 347 l 779 31 q 903 -64 773 -68 l 1125 -64 q 1255 33 1238 -66 q 1279 211 1268 98 q 1352 191 1314 199 q 1324 11 1339 88 q 1140 -132 1296 -135 l 878 -132 q 707 24 705 -134 l 707 347 l 668 347 q 90 -175 564 7 q 41 -103 68 -136 q 586 347 472 49 l 199 347 l 199 713 q 87 625 158 678 m 1105 694 l 724 694 q 688 414 720 545 l 1105 414 l 1105 694 m 271 694 l 271 414 l 610 414 q 648 694 646 535 l 271 694 m 918 949 l 437 949 q 254 761 354 850 l 733 761 l 918 949 m 905 225 l 954 272 q 1140 118 1038 208 l 1089 65 q 905 225 978 167 z "},"党":{"ha":1389,"x_min":75,"x_max":1350,"o":"m 289 642 l 1100 642 l 1100 262 l 869 262 l 869 40 q 979 -66 863 -72 l 1114 -66 q 1250 8 1239 -71 q 1278 175 1265 66 q 1297 169 1284 173 q 1350 154 1334 157 q 1321 -18 1343 78 q 1131 -135 1299 -138 l 958 -135 q 794 26 792 -137 l 794 262 l 582 262 q 583 231 583 243 q 122 -178 583 -79 q 75 -109 106 -151 q 414 26 332 -49 q 507 262 504 98 l 289 262 l 289 642 m 364 578 l 364 325 l 1025 325 l 1025 578 l 364 578 m 656 1139 l 730 1139 l 730 868 l 1296 868 l 1296 599 l 1221 599 l 1221 803 l 167 803 l 167 599 l 92 599 l 92 868 l 656 868 l 656 1139 m 947 903 l 899 957 q 1120 1104 991 1011 l 1171 1053 q 947 903 1052 968 m 221 1060 l 267 1107 q 478 957 380 1033 l 422 904 q 221 1060 333 980 z "},"兜":{"ha":1389,"x_min":45,"x_max":1352,"o":"m 456 1002 l 619 1002 q 664 1141 648 1087 l 741 1124 q 693 1002 719 1062 l 933 1002 l 933 370 l 456 370 l 456 1002 m 522 939 l 522 715 l 867 715 l 867 939 l 522 939 m 522 656 l 522 432 l 867 432 l 867 656 l 522 656 m 93 364 q 116 401 111 383 q 122 452 122 418 l 122 978 q 353 1053 232 1006 l 386 983 q 192 922 277 945 l 192 419 q 371 510 268 457 q 382 435 373 471 q 205 347 286 391 q 143 304 176 331 l 93 364 m 818 258 l 892 258 l 892 28 q 915 -47 891 -27 q 999 -68 937 -68 l 1139 -68 q 1263 7 1253 -72 q 1280 153 1275 75 q 1352 131 1317 140 q 1328 -20 1340 38 q 1150 -138 1305 -140 l 982 -138 q 818 17 812 -142 l 818 258 m 1035 419 l 1196 419 l 1196 942 l 1032 942 l 1032 1006 l 1265 1006 l 1265 355 l 1035 355 l 1035 419 m 454 186 q 456 217 456 201 q 457 260 457 231 l 532 260 q 528 180 532 220 q 82 -170 530 -78 q 45 -98 63 -131 q 454 186 456 -25 z "},"兢":{"ha":1389,"x_min":20,"x_max":1358,"o":"m 693 970 l 965 970 l 965 1136 l 1035 1136 l 1035 970 l 1317 970 l 1317 904 l 1035 904 l 1035 722 l 1275 722 l 1275 364 l 1120 364 l 1120 -21 q 1174 -77 1118 -79 l 1214 -77 q 1280 -16 1272 -78 q 1296 139 1290 40 q 1358 119 1331 125 q 1340 -29 1350 23 q 1229 -138 1322 -138 l 1157 -138 q 1053 -32 1053 -137 l 1053 364 l 935 364 q 654 -168 946 -1 q 606 -110 635 -141 q 868 364 876 31 l 724 364 l 724 722 l 965 722 l 965 904 l 693 904 l 693 970 m 64 970 l 314 970 l 314 1137 l 383 1137 l 383 970 l 621 970 l 621 904 l 383 904 l 383 722 l 599 722 l 599 364 l 472 364 l 472 9 q 635 161 564 92 q 669 97 651 126 q 486 -61 581 24 q 427 -122 451 -94 l 375 -74 q 406 14 407 -37 l 406 364 l 290 364 q 242 45 289 148 q 66 -161 199 -61 q 20 -107 45 -133 q 180 75 142 -18 q 224 364 223 170 l 96 364 l 96 722 l 314 722 l 314 904 l 64 904 l 64 970 m 790 659 l 790 428 l 1208 428 l 1208 659 l 790 659 m 163 659 l 163 428 l 532 428 l 532 659 l 163 659 z "},"入":{"ha":1389,"x_min":39,"x_max":1349,"o":"m 427 1071 l 484 1118 q 806 650 657 986 q 1349 -45 1017 148 q 1286 -121 1313 -84 q 742 608 949 115 q 684 729 705 688 q 100 -131 527 191 q 39 -61 73 -95 q 633 823 482 243 q 427 1071 539 987 z "},"全":{"ha":1389,"x_min":33,"x_max":1349,"o":"m 262 623 l 1125 623 l 1125 553 l 733 553 l 733 309 l 1175 309 l 1175 239 l 733 239 l 733 -25 l 1296 -25 l 1296 -97 l 94 -97 l 94 -25 l 656 -25 l 656 239 l 212 239 l 212 309 l 656 309 l 656 553 l 262 553 l 262 623 m 1299 582 q 697 1047 892 777 q 86 570 459 760 q 33 632 55 610 q 684 1152 477 862 l 766 1135 q 758 1123 764 1131 q 741 1100 747 1107 q 1349 648 958 819 q 1299 582 1333 631 z "},"八":{"ha":1389,"x_min":35,"x_max":1353,"o":"m 447 1067 l 529 1061 q 102 -143 505 262 q 35 -82 71 -111 q 447 1067 427 292 m 829 1080 l 909 1086 q 1353 -65 924 286 q 1287 -134 1321 -94 q 829 1080 848 259 z "},"公":{"ha":1389,"x_min":37,"x_max":1350,"o":"m 1193 -167 q 1096 -45 1145 -104 q 329 -77 635 -56 q 193 -92 250 -81 l 155 -9 q 253 61 210 18 q 623 585 453 283 l 703 545 q 306 -1 519 256 q 394 1 336 0 q 1039 26 778 18 q 812 300 957 128 l 873 346 q 1263 -113 1060 130 l 1193 -167 m 821 1068 l 895 1095 q 1350 542 1028 739 q 1289 471 1314 503 q 821 1068 953 711 m 100 440 q 37 504 75 470 q 492 1072 340 726 l 567 1042 q 100 440 399 684 z "},"六":{"ha":1389,"x_min":50,"x_max":1339,"o":"m 50 753 l 1339 753 l 1339 679 l 50 679 l 50 753 m 572 1080 l 642 1120 q 815 844 694 1042 l 742 803 q 572 1080 654 956 m 469 507 l 549 476 q 134 -135 353 123 q 65 -79 98 -102 q 469 507 307 191 m 831 472 l 899 509 q 1305 -68 1081 258 l 1234 -114 q 831 472 1043 174 z "},"兰":{"ha":1389,"x_min":46,"x_max":1341,"o":"m 90 844 l 789 844 q 1013 1135 901 979 l 1082 1096 q 880 844 974 956 l 1297 844 l 1297 772 l 90 772 l 90 844 m 46 5 l 1341 5 l 1341 -66 l 46 -66 l 46 5 m 195 429 l 1194 429 l 1194 357 l 195 357 l 195 429 m 309 1092 l 367 1135 q 557 916 447 1047 l 494 869 q 309 1092 385 1008 z "},"共":{"ha":1389,"x_min":41,"x_max":1346,"o":"m 920 1125 l 994 1125 l 994 857 l 1292 857 l 1292 787 l 994 787 l 994 382 l 1346 382 l 1346 313 l 41 313 l 41 382 l 393 382 l 393 787 l 96 787 l 96 857 l 393 857 l 393 1125 l 468 1125 l 468 857 l 920 857 l 920 1125 m 468 787 l 468 382 l 920 382 l 920 787 l 468 787 m 503 200 l 559 142 q 107 -150 322 -28 q 57 -85 84 -114 q 503 200 299 47 m 821 142 l 869 199 q 1304 -83 1107 50 l 1254 -146 q 821 142 1023 14 z "},"关":{"ha":1389,"x_min":56,"x_max":1336,"o":"m 106 -170 q 67 -117 92 -149 q 56 -103 60 -108 q 631 425 583 81 l 71 425 l 71 494 l 642 494 q 656 778 654 580 l 150 778 l 150 847 l 787 847 q 1008 1136 903 984 l 1078 1099 q 878 847 969 954 l 1242 847 l 1242 778 l 732 778 q 717 494 730 607 l 1324 494 l 1324 425 l 742 425 q 1336 -83 868 33 q 1289 -154 1315 -112 q 690 376 795 1 q 106 -170 618 18 m 302 1093 l 363 1132 q 553 909 446 1042 l 488 867 q 302 1093 385 998 z "},"兴":{"ha":1389,"x_min":45,"x_max":1346,"o":"m 45 489 l 1346 489 l 1346 416 l 45 416 l 45 489 m 476 307 l 543 261 q 134 -154 364 39 q 74 -94 109 -125 q 476 307 287 66 m 848 258 l 907 306 q 1317 -90 1139 89 l 1257 -147 q 848 258 1107 12 m 140 989 l 208 1021 q 416 639 313 838 l 345 604 q 140 989 228 836 m 1028 610 l 957 648 q 1190 1040 1092 839 l 1264 1008 q 1028 610 1156 806 m 590 1090 l 667 1108 q 793 669 721 924 l 713 648 q 590 1090 653 895 z "},"兵":{"ha":1389,"x_min":45,"x_max":1343,"o":"m 45 307 l 281 307 l 281 1038 q 1143 1093 661 1042 l 1171 1019 q 357 968 750 981 l 357 720 l 1270 720 l 1270 650 l 965 650 l 965 307 l 1343 307 l 1343 237 l 45 237 l 45 307 m 357 650 l 357 307 l 890 307 l 890 650 l 357 650 m 458 164 l 518 109 q 104 -172 285 -66 q 53 -107 79 -138 q 458 164 284 23 m 857 109 l 908 164 q 1305 -102 1154 3 l 1253 -163 q 857 109 1135 -75 z "},"其":{"ha":1389,"x_min":41,"x_max":1349,"o":"m 71 957 l 282 957 l 282 1133 l 355 1133 l 355 957 l 1029 957 l 1029 1133 l 1103 1133 l 1103 957 l 1320 957 l 1320 890 l 1103 890 l 1103 235 l 1349 235 l 1349 168 l 41 168 l 41 235 l 282 235 l 282 890 l 71 890 l 71 957 m 355 412 l 355 235 l 1029 235 l 1029 412 l 355 412 m 355 652 l 355 478 l 1029 478 l 1029 652 l 355 652 m 355 890 l 355 717 l 1029 717 l 1029 890 l 355 890 m 511 107 l 557 41 q 86 -174 314 -85 q 45 -103 71 -140 q 511 107 281 -20 m 828 41 l 867 107 q 1343 -94 1126 2 l 1303 -165 q 828 41 1097 -66 z "},"具":{"ha":1389,"x_min":37,"x_max":1350,"o":"m 37 200 l 237 200 l 237 1072 l 1153 1072 l 1153 200 l 1350 200 l 1350 135 l 37 135 l 37 200 m 310 791 l 310 636 l 1080 636 l 1080 791 l 310 791 m 310 355 l 310 200 l 1080 200 l 1080 355 l 310 355 m 310 574 l 310 418 l 1080 418 l 1080 574 l 310 574 m 310 1008 l 310 854 l 1080 854 l 1080 1008 l 310 1008 m 507 74 l 554 12 q 103 -175 324 -94 q 60 -110 89 -147 q 507 74 326 -13 m 835 4 l 875 68 q 1331 -93 1200 -43 l 1293 -161 q 835 4 1088 -79 z "},"典":{"ha":1389,"x_min":57,"x_max":1336,"o":"m 818 1135 l 890 1135 l 890 958 l 1206 958 l 1206 256 l 1336 256 l 1336 186 l 57 186 l 57 256 l 187 256 l 187 958 l 503 958 l 503 1135 l 575 1135 l 575 958 l 818 958 l 818 1135 m 890 541 l 890 256 l 1133 256 l 1133 541 l 890 541 m 260 541 l 260 256 l 503 256 l 503 541 l 260 541 m 575 541 l 575 256 l 818 256 l 818 541 l 575 541 m 1133 890 l 890 890 l 890 607 l 1133 607 l 1133 890 m 575 890 l 575 607 l 818 607 l 818 890 l 575 890 m 260 890 l 260 607 l 503 607 l 503 890 l 260 890 m 1278 -161 q 831 45 1032 -38 l 871 110 q 1320 -89 1123 3 l 1278 -161 m 507 113 l 551 47 q 106 -167 336 -62 q 66 -94 88 -130 q 507 113 302 3 z "},"养":{"ha":1389,"x_min":47,"x_max":1343,"o":"m 94 147 q 47 214 73 184 q 526 472 432 332 l 66 472 l 66 538 l 566 538 q 615 689 597 602 l 178 689 l 178 753 l 625 753 q 636 900 634 827 l 129 900 l 129 965 l 475 965 q 332 1109 418 1025 l 389 1152 q 541 1010 480 1067 l 481 965 l 829 965 q 994 1147 920 1057 l 1060 1107 q 925 965 983 1024 l 1258 965 l 1258 900 l 710 900 q 699 753 707 825 l 1193 753 l 1193 689 l 689 689 q 643 538 674 607 l 1322 538 l 1322 472 l 871 472 q 1343 235 1002 301 q 1297 165 1320 209 q 791 472 932 251 l 611 472 q 94 147 521 290 m 429 271 l 504 271 q 440 -6 503 78 q 195 -174 380 -96 q 142 -113 174 -145 q 376 35 326 -37 q 429 271 432 104 m 872 271 l 947 271 l 947 -151 l 872 -151 l 872 271 z "},"兼":{"ha":1389,"x_min":35,"x_max":1343,"o":"m 146 772 l 476 772 l 476 914 l 47 914 l 47 978 l 486 978 q 397 1073 467 1002 q 370 1101 378 1093 l 425 1145 q 553 1015 532 1040 l 505 978 l 799 978 q 914 1145 879 1086 l 981 1105 q 884 978 941 1049 l 1341 978 l 1341 914 l 839 914 l 839 772 l 1169 772 l 1169 561 l 1343 561 l 1343 497 l 1169 497 l 1169 283 l 854 283 q 1308 -52 1012 71 q 1263 -115 1283 -80 q 839 211 982 16 l 839 -170 l 768 -170 l 768 283 l 547 283 l 547 -170 l 476 -170 l 476 195 q 85 -123 347 7 q 35 -62 68 -99 q 468 283 330 75 l 121 283 l 121 346 l 476 346 l 476 497 l 47 497 l 47 561 l 476 561 l 476 710 l 146 710 l 146 772 m 839 346 l 1100 346 l 1100 497 l 839 497 l 839 346 m 1100 710 l 839 710 l 839 561 l 1100 561 l 1100 710 m 547 497 l 547 346 l 768 346 l 768 497 l 547 497 m 547 710 l 547 561 l 768 561 l 768 710 l 547 710 m 547 914 l 547 772 l 768 772 l 768 914 l 547 914 z "},"兽":{"ha":1389,"x_min":50,"x_max":1337,"o":"m 171 972 l 519 972 q 382 1099 442 1047 l 432 1146 q 579 1018 508 1085 l 530 972 l 796 972 q 962 1145 883 1056 l 1022 1100 q 888 972 966 1044 l 1217 972 l 1217 510 l 171 510 l 171 972 m 241 214 l 1146 214 l 1146 -168 l 1075 -168 l 1075 -97 l 313 -97 l 313 -168 l 241 -168 l 241 214 m 313 151 l 313 -35 l 1075 -35 l 1075 151 l 313 151 m 50 395 l 1337 395 l 1337 330 l 50 330 l 50 395 m 728 711 l 728 572 l 1146 572 l 1146 711 l 728 711 m 241 711 l 241 572 l 659 572 l 659 711 l 241 711 m 1146 909 l 728 909 l 728 772 l 1146 772 l 1146 909 m 241 909 l 241 772 l 659 772 l 659 909 l 241 909 z "},"冀":{"ha":1389,"x_min":46,"x_max":1341,"o":"m 196 739 l 1196 739 l 1196 371 l 965 371 l 965 267 l 1274 267 l 1274 207 l 965 207 l 965 98 l 1341 98 l 1341 39 l 46 39 l 46 98 l 425 98 l 425 207 l 110 207 l 110 267 l 425 267 l 425 371 l 196 371 l 196 739 m 1295 1043 q 864 956 1078 994 l 864 932 q 887 873 863 889 q 972 857 911 857 l 1162 857 q 1260 901 1248 854 q 1280 982 1271 931 q 1341 958 1315 966 q 1317 873 1329 907 q 1166 800 1295 797 l 945 800 q 798 922 793 798 l 798 1137 l 864 1137 l 864 1011 q 1272 1099 1088 1050 l 1295 1043 m 81 1051 l 496 1051 l 496 1137 l 562 1137 l 562 793 l 496 793 l 496 871 q 64 800 281 838 l 46 860 q 496 925 250 886 l 496 996 l 81 996 l 81 1051 m 493 207 l 493 98 l 897 98 l 897 207 l 493 207 m 493 371 l 493 267 l 897 267 l 897 371 l 493 371 m 728 529 l 728 429 l 1129 429 l 1129 529 l 728 529 m 262 529 l 262 429 l 663 429 l 663 529 l 262 529 m 1129 679 l 728 679 l 728 586 l 1129 586 l 1129 679 m 262 679 l 262 586 l 663 586 l 663 679 l 262 679 m 518 8 l 555 -47 q 79 -172 342 -119 q 49 -109 66 -141 q 518 8 295 -66 m 847 -43 l 872 16 q 1335 -107 1118 -43 l 1308 -170 q 847 -43 1065 -97 z "},"内":{"ha":1389,"x_min":154,"x_max":1234,"o":"m 661 1133 l 739 1133 q 739 990 739 1035 q 737 897 739 937 l 1232 897 l 1232 24 q 1068 -139 1234 -135 q 985 -141 1031 -140 q 936 -142 962 -142 q 872 -142 913 -142 q 857 -57 868 -103 q 1050 -62 954 -62 q 1157 39 1161 -66 l 1157 825 l 734 825 q 734 800 734 817 q 733 777 733 784 q 688 521 726 614 l 729 559 q 1083 244 903 414 l 1023 186 q 682 507 829 379 q 338 164 619 333 q 286 229 313 201 q 658 742 658 412 q 657 777 658 765 q 658 800 657 785 q 659 825 659 817 l 229 825 l 229 -154 l 154 -154 l 154 897 l 660 897 q 661 991 661 939 q 661 1048 661 1016 q 661 1133 661 1076 z "},"冈":{"ha":1389,"x_min":121,"x_max":1280,"o":"m 121 1042 l 1271 1042 l 1271 47 q 1075 -146 1280 -149 q 987 -148 1034 -147 q 878 -149 942 -149 q 860 -65 871 -106 q 1059 -71 948 -71 q 1166 -43 1137 -71 q 1196 56 1196 -16 l 1196 970 l 196 970 l 196 -155 l 121 -155 l 121 1042 m 297 136 q 654 467 486 283 q 339 802 517 618 l 393 850 q 412 831 399 844 q 704 522 600 635 q 972 868 853 690 l 1035 828 q 755 468 910 643 q 1064 129 920 288 l 999 75 q 704 411 806 300 q 351 75 525 216 q 297 136 326 107 z "},"册":{"ha":1389,"x_min":39,"x_max":1350,"o":"m 39 581 l 197 581 l 197 1068 l 606 1068 l 606 581 l 783 581 l 783 1068 l 1204 1068 l 1204 581 l 1350 581 l 1350 511 l 1204 511 l 1204 -4 q 1071 -142 1208 -142 q 1009 -143 1040 -142 q 976 -143 994 -143 q 930 -143 961 -143 q 918 -68 928 -109 q 933 -68 924 -68 q 1047 -73 1006 -73 q 1114 -55 1097 -73 q 1132 9 1133 -39 l 1132 511 l 856 511 q 826 110 856 237 q 707 -165 799 -21 q 640 -122 685 -149 q 755 133 731 16 q 783 511 783 248 l 606 511 l 606 25 q 484 -106 608 -104 q 436 -107 463 -106 q 405 -107 423 -107 q 355 -107 391 -107 q 345 -33 353 -77 q 387 -35 364 -35 q 413 -36 399 -36 q 453 -36 425 -36 q 516 -20 500 -37 q 533 41 534 -4 l 533 511 l 269 511 q 241 113 269 244 q 131 -165 216 -18 q 85 -136 116 -155 q 64 -122 71 -127 q 171 134 149 16 q 197 511 197 250 l 39 511 l 39 581 m 856 1000 l 856 581 l 1132 581 l 1132 1000 l 856 1000 m 269 1000 l 269 581 l 533 581 l 533 1000 l 269 1000 z "},"再":{"ha":1389,"x_min":40,"x_max":1349,"o":"m 40 282 l 215 282 l 215 814 l 657 814 l 657 994 l 87 994 l 87 1060 l 1301 1060 l 1301 994 l 730 994 l 730 814 l 1173 814 l 1173 282 l 1349 282 l 1349 216 l 1173 216 l 1173 -8 q 1015 -146 1182 -146 q 839 -149 940 -149 q 827 -73 835 -104 q 1004 -77 876 -77 q 1080 -60 1061 -77 q 1099 3 1099 -45 l 1099 216 l 289 216 l 289 -165 l 215 -165 l 215 216 l 40 216 l 40 282 m 289 489 l 289 282 l 657 282 l 657 489 l 289 489 m 730 489 l 730 282 l 1099 282 l 1099 489 l 730 489 m 289 751 l 289 551 l 657 551 l 657 751 l 289 751 m 1099 751 l 730 751 l 730 551 l 1099 551 l 1099 751 z "},"冒":{"ha":1389,"x_min":147,"x_max":1240,"o":"m 249 539 l 1140 539 l 1140 -168 l 1068 -168 l 1068 -106 l 321 -106 l 321 -168 l 249 -168 l 249 539 m 147 1071 l 1240 1071 l 1240 624 l 1168 624 l 1168 1010 l 220 1010 l 220 624 l 147 624 l 147 1071 m 321 478 l 321 343 l 1068 343 l 1068 478 l 321 478 m 321 283 l 321 149 l 1068 149 l 1068 283 l 321 283 m 321 89 l 321 -45 l 1068 -45 l 1068 89 l 321 89 m 292 720 l 1100 720 l 1100 660 l 292 660 l 292 720 m 292 892 l 1100 892 l 1100 832 l 292 832 l 292 892 z "},"冕":{"ha":1389,"x_min":58,"x_max":1343,"o":"m 118 334 q 71 387 97 363 q 447 701 317 529 l 521 684 q 461 615 484 639 l 1036 615 l 1036 555 l 930 440 l 1183 440 l 1183 164 l 811 164 l 811 14 q 833 -57 810 -37 q 913 -77 854 -77 l 1143 -77 q 1258 3 1244 -81 q 1275 111 1267 39 q 1343 89 1310 95 q 1324 -31 1335 17 q 1152 -139 1302 -142 l 895 -139 q 741 -1 732 -146 l 741 164 l 690 164 q 97 -171 610 -66 q 58 -104 87 -145 q 612 164 519 -16 l 227 164 l 227 404 q 118 334 174 366 m 115 1074 l 1250 1074 l 1250 708 l 1179 708 l 1179 1017 l 186 1017 l 186 708 l 115 708 l 115 1074 m 956 559 l 408 559 q 275 440 344 494 l 842 440 l 956 559 m 1114 382 l 742 382 q 713 222 733 292 l 1114 222 l 1114 382 m 296 382 l 296 222 l 640 222 q 673 382 665 283 l 296 382 m 307 789 l 1050 789 l 1050 733 l 307 733 l 307 789 m 307 932 l 1050 932 l 1050 876 l 307 876 l 307 932 z "},"冗":{"ha":1389,"x_min":54,"x_max":1352,"o":"m 960 664 l 960 33 q 1050 -61 954 -66 l 1137 -61 q 1253 12 1240 -64 q 1278 200 1267 77 q 1352 175 1320 183 q 1322 -14 1337 56 q 1146 -134 1301 -137 l 1029 -134 q 882 29 877 -139 l 882 593 l 467 593 l 467 395 q 469 336 469 361 q 104 -170 469 -13 q 54 -102 81 -134 q 323 93 258 -7 q 389 395 391 189 l 389 664 l 960 664 m 123 1031 l 1267 1031 l 1267 737 l 1190 737 l 1190 958 l 200 958 l 200 737 l 123 737 l 123 1031 z "},"写":{"ha":1389,"x_min":39,"x_max":1295,"o":"m 244 415 l 350 918 l 428 918 l 395 758 l 1197 758 l 1197 688 l 380 688 l 339 486 l 1232 486 q 1210 75 1223 244 q 953 -140 1204 -144 q 707 -143 823 -143 q 689 -57 701 -101 q 943 -62 810 -62 q 1131 81 1123 -69 q 1150 415 1145 241 l 244 415 m 96 1061 l 1295 1061 l 1295 833 l 1218 833 l 1218 990 l 172 990 l 172 833 l 96 833 l 96 1061 m 39 216 l 1008 216 l 1008 146 l 39 146 l 39 216 z "},"军":{"ha":1389,"x_min":54,"x_max":1344,"o":"m 54 126 l 699 126 l 699 343 l 216 343 l 216 421 q 404 700 310 545 l 90 700 l 90 770 l 444 770 q 547 957 487 840 l 627 939 q 595 884 616 920 q 529 770 551 807 l 1295 770 l 1295 700 l 486 700 q 297 410 416 583 l 699 410 l 699 614 l 774 614 l 774 410 l 1227 410 l 1227 343 l 774 343 l 774 126 l 1344 126 l 1344 57 l 774 57 l 774 -171 l 699 -171 l 699 57 l 54 57 l 54 126 m 103 1072 l 1299 1072 l 1299 859 l 1223 859 l 1223 1003 l 178 1003 l 178 859 l 103 859 l 103 1072 z "},"农":{"ha":1389,"x_min":33,"x_max":1356,"o":"m 1310 -53 q 643 688 755 195 q 479 427 582 547 l 479 -43 q 833 107 643 23 q 840 28 834 64 q 507 -114 685 -31 q 415 -168 458 -136 l 361 -102 q 397 -53 388 -77 q 406 20 406 -28 l 406 349 q 81 97 271 218 q 33 160 69 115 q 629 865 530 458 l 212 865 l 212 644 l 139 644 l 139 935 l 646 935 q 667 1140 663 1021 l 743 1133 q 721 935 736 1018 l 1271 935 l 1271 689 l 1197 689 l 1197 865 l 704 865 q 681 783 691 810 q 843 407 751 546 q 1171 618 1028 515 l 1223 561 q 885 347 1082 463 q 1356 14 1021 161 q 1310 -53 1326 -20 z "},"冠":{"ha":1389,"x_min":29,"x_max":1352,"o":"m 244 354 l 244 449 l 79 449 l 79 514 l 699 514 l 699 449 l 558 449 l 558 25 q 672 -58 555 -60 l 1105 -58 q 1254 43 1238 -60 q 1276 249 1268 127 q 1352 228 1312 236 q 1322 18 1338 98 q 1122 -126 1299 -131 l 660 -126 q 486 18 487 -125 l 486 449 l 317 449 l 317 355 q 317 321 317 340 q 85 -170 317 27 q 29 -113 61 -142 q 244 354 255 66 m 1064 847 l 1136 847 l 1136 690 l 1310 690 l 1310 624 l 1136 624 l 1136 218 q 972 64 1141 66 q 911 62 946 63 q 875 62 895 62 q 828 62 858 62 q 810 138 821 100 q 960 134 877 134 q 1064 224 1066 132 l 1064 624 l 699 624 l 699 690 l 1064 690 l 1064 847 m 90 1061 l 1286 1061 l 1286 839 l 1214 839 l 1214 994 l 163 994 l 163 827 l 90 827 l 90 1061 m 160 782 l 624 782 l 624 717 l 160 717 l 160 782 m 762 488 l 822 517 q 942 311 872 437 l 879 277 q 762 488 819 393 z "},"冤":{"ha":1389,"x_min":57,"x_max":1352,"o":"m 118 476 q 66 534 93 509 q 518 949 338 695 l 583 920 q 503 815 544 863 l 1022 815 l 1022 753 l 886 586 l 1214 586 l 1214 249 l 812 249 l 812 36 q 832 -47 812 -27 q 908 -69 850 -70 l 1145 -69 q 1268 9 1257 -75 q 1284 122 1280 75 q 1352 97 1318 107 q 1335 -16 1348 49 q 1156 -134 1313 -137 l 892 -134 q 741 9 734 -140 l 741 249 l 693 249 q 96 -174 611 -57 q 57 -102 80 -137 q 619 249 544 12 l 220 249 l 220 549 q 199 534 213 544 q 118 476 148 496 m 102 1054 l 1286 1054 l 1286 798 l 1214 798 l 1214 990 l 174 990 l 174 791 l 102 791 l 102 1054 m 1143 526 l 751 526 q 714 309 743 401 l 1143 309 l 1143 526 m 939 755 l 450 755 q 267 586 368 665 l 800 586 l 939 755 m 290 526 l 290 309 l 642 309 q 679 526 674 409 l 290 526 m 922 146 l 964 193 q 1150 64 1056 134 l 1104 11 q 922 146 1029 73 z "},"冬":{"ha":1389,"x_min":43,"x_max":1350,"o":"m 1315 351 q 722 561 940 430 q 79 321 495 430 q 43 403 57 376 q 653 606 410 474 q 375 879 506 707 q 144 650 273 758 q 90 705 115 684 q 478 1145 332 895 l 551 1117 q 481 1013 506 1046 l 1153 1013 l 1153 943 q 796 606 989 729 q 1350 433 1016 480 q 1315 351 1335 402 m 1057 943 l 428 943 q 424 936 426 938 q 725 647 555 760 q 1057 943 913 764 m 229 17 l 257 89 q 1068 -87 652 7 l 1042 -163 q 229 17 626 -64 m 401 296 l 429 368 q 991 237 769 294 l 962 163 q 401 296 679 238 z "},"冯":{"ha":1389,"x_min":52,"x_max":1310,"o":"m 579 905 l 545 525 l 1051 525 l 1088 999 l 403 999 l 403 1069 l 1169 1069 l 1126 525 l 1310 525 q 1286 57 1301 237 q 1055 -142 1272 -136 q 950 -144 1007 -143 q 890 -144 922 -144 q 810 -144 861 -144 q 793 -64 804 -103 q 1046 -68 889 -68 q 1211 72 1200 -68 q 1231 454 1225 241 l 463 454 l 504 905 l 579 905 m 363 232 l 1101 232 l 1101 161 l 363 161 l 363 232 m 52 -33 q 240 509 153 201 q 315 465 269 489 q 131 -77 226 215 l 52 -33 m 244 715 q 74 1019 153 887 l 136 1054 q 313 755 224 913 l 244 715 z "},"冰":{"ha":1389,"x_min":62,"x_max":1352,"o":"m 807 1133 l 880 1133 l 880 953 q 983 600 922 749 q 1251 856 1121 719 l 1307 804 q 1010 538 1156 662 q 1352 78 1135 255 q 1291 16 1320 50 q 880 739 972 317 l 880 28 q 724 -146 889 -142 q 659 -148 693 -147 q 623 -149 642 -149 q 575 -149 607 -149 q 559 -69 570 -110 q 705 -74 623 -74 q 807 31 812 -79 l 807 1133 m 399 714 l 399 781 l 710 781 l 710 704 q 350 -28 648 248 q 290 29 322 1 q 640 714 590 290 l 399 714 m 62 -75 q 258 497 166 179 q 334 463 301 475 q 140 -110 242 204 l 62 -75 m 261 747 q 77 1031 170 899 l 138 1069 q 330 791 245 921 l 261 747 z "},"冲":{"ha":1389,"x_min":54,"x_max":1272,"o":"m 838 1137 l 913 1137 l 913 871 l 1272 871 l 1272 227 l 1198 227 l 1198 292 l 913 292 l 913 -170 l 838 -170 l 838 292 l 551 292 l 551 227 l 478 227 l 478 871 l 838 871 l 838 1137 m 551 800 l 551 363 l 838 363 l 838 800 l 551 800 m 1198 800 l 913 800 l 913 363 l 1198 363 l 1198 800 m 54 -74 q 253 496 165 204 q 330 461 298 473 q 135 -113 233 186 l 54 -74 m 257 746 q 69 1029 153 915 l 132 1068 q 326 791 231 937 l 257 746 z "},"决":{"ha":1389,"x_min":41,"x_max":1350,"o":"m 750 1132 l 827 1132 q 827 984 827 1031 q 825 888 826 929 l 1187 888 l 1187 458 l 1350 458 l 1350 389 l 840 389 q 1337 -75 979 57 q 1286 -147 1311 -108 q 782 359 897 25 q 323 -170 725 66 q 267 -104 299 -136 q 720 389 665 121 l 378 389 l 378 458 l 733 458 q 749 819 747 557 l 456 819 l 456 888 l 749 888 q 750 983 749 928 q 750 1043 750 1010 q 750 1132 750 1072 m 1112 819 l 825 819 q 811 458 821 566 l 1112 458 l 1112 819 m 41 -9 q 267 559 170 290 q 342 522 302 539 q 121 -52 231 255 l 41 -9 m 311 736 q 72 994 185 880 l 126 1040 q 372 787 254 914 l 311 736 z "},"况":{"ha":1389,"x_min":40,"x_max":1350,"o":"m 661 472 l 463 472 l 463 1068 l 1236 1068 l 1236 472 l 1000 472 l 1000 36 q 1082 -60 997 -64 l 1162 -60 q 1258 20 1244 -65 q 1279 184 1270 75 q 1350 157 1311 170 q 1328 -8 1343 69 q 1171 -130 1305 -132 l 1063 -130 q 925 35 922 -134 l 925 472 l 734 472 q 652 83 733 206 q 334 -171 576 -46 q 281 -109 309 -136 q 586 118 520 9 q 661 472 661 223 m 536 999 l 536 542 l 1161 542 l 1161 999 l 536 999 m 40 -43 q 265 489 165 203 q 340 447 293 470 q 117 -87 258 258 l 40 -43 m 275 739 q 54 987 173 862 l 110 1031 q 338 789 226 913 l 275 739 z "},"冶":{"ha":1389,"x_min":45,"x_max":1350,"o":"m 479 403 l 1226 403 l 1226 -170 l 1152 -170 l 1152 -77 l 554 -77 l 554 -170 l 479 -170 l 479 403 m 554 336 l 554 -9 l 1152 -9 l 1152 336 l 554 336 m 1282 513 q 1232 582 1265 535 q 1202 625 1212 611 q 545 595 803 611 q 437 581 476 590 l 401 654 q 485 725 446 679 q 774 1139 646 911 l 852 1105 q 532 665 718 900 q 1153 692 883 682 q 987 909 1076 796 l 1048 950 q 1350 557 1206 751 l 1282 513 m 45 -22 q 243 525 153 247 q 318 492 274 508 q 121 -64 213 215 l 45 -22 m 279 746 q 66 987 183 861 l 122 1034 q 342 796 227 924 l 279 746 z "},"冷":{"ha":1389,"x_min":64,"x_max":1358,"o":"m 496 168 l 542 228 q 823 50 644 165 l 1140 367 l 418 367 l 418 437 l 1235 437 l 1235 358 l 890 8 q 1080 -114 961 -33 l 1031 -178 q 496 168 717 33 m 1305 593 q 847 1029 1000 775 q 370 581 676 779 q 315 647 345 616 q 833 1149 666 848 l 917 1137 q 903 1116 912 1130 q 889 1093 894 1100 q 1358 665 1062 812 q 1305 593 1331 633 m 229 489 q 306 457 273 469 q 144 -111 227 198 l 64 -81 q 229 489 149 189 m 271 768 q 71 1000 170 892 l 131 1046 q 338 821 228 945 l 271 768 m 732 741 l 787 779 q 953 575 876 673 l 890 529 q 732 741 812 640 z "},"冻":{"ha":1389,"x_min":56,"x_max":1352,"o":"m 924 743 l 924 503 l 1322 503 l 1322 433 l 924 433 l 924 5 q 786 -146 928 -145 q 625 -149 725 -149 q 606 -71 618 -108 q 761 -74 662 -74 q 830 -54 812 -75 q 848 22 849 -34 l 848 433 l 443 433 l 443 510 q 625 875 546 694 l 397 875 l 397 945 l 654 945 q 734 1146 691 1026 l 814 1129 q 734 945 773 1029 l 1335 945 l 1335 875 l 704 875 q 529 503 604 654 l 848 503 l 848 743 l 924 743 m 56 -74 q 268 489 177 212 q 345 458 305 472 q 135 -113 234 172 l 56 -74 m 595 304 l 663 268 q 404 -89 537 79 l 340 -41 q 595 304 481 119 m 1039 281 l 1099 317 q 1352 -25 1230 145 l 1283 -68 q 1039 281 1161 114 m 256 746 q 71 1028 176 880 l 135 1065 q 326 787 231 934 l 256 746 z "},"净":{"ha":1389,"x_min":62,"x_max":1344,"o":"m 414 704 q 359 758 391 730 q 693 1146 566 931 l 764 1121 q 684 1004 713 1044 l 1100 1004 l 1100 932 l 940 753 l 1214 753 l 1214 510 l 1344 510 l 1344 446 l 1214 446 l 1214 118 l 1140 118 l 1140 197 l 847 197 l 847 32 q 661 -143 855 -142 q 604 -144 633 -144 q 574 -144 589 -144 q 534 -144 559 -144 q 519 -66 530 -105 q 571 -70 543 -69 q 602 -71 584 -71 q 647 -71 616 -71 q 747 -45 722 -71 q 774 49 774 -22 l 774 197 l 429 197 l 429 260 l 774 260 l 774 446 l 361 446 l 361 510 l 774 510 l 774 690 l 460 690 l 460 746 l 414 704 m 1019 942 l 637 942 q 465 753 559 843 l 851 753 l 1019 942 m 847 446 l 847 260 l 1140 260 l 1140 446 l 847 446 m 1140 690 l 847 690 l 847 510 l 1140 510 l 1140 690 m 62 -5 q 208 484 146 224 q 283 452 228 471 q 142 -36 199 174 l 62 -5 m 232 701 q 72 1011 171 830 l 136 1042 q 301 734 223 890 l 232 701 z "},"凄":{"ha":1389,"x_min":46,"x_max":1346,"o":"m 786 1131 l 859 1131 l 859 1025 l 1292 1025 l 1292 962 l 859 962 l 859 842 l 1221 842 l 1221 663 l 1346 663 l 1346 600 l 1221 600 l 1221 419 l 449 419 l 449 481 l 786 481 l 786 600 l 355 600 l 355 663 l 786 663 l 786 781 l 457 781 l 457 842 l 786 842 l 786 962 l 390 962 l 390 1025 l 786 1025 l 786 1131 m 371 -171 q 335 -103 355 -136 q 779 0 631 -62 q 489 97 592 64 q 593 220 543 157 l 339 220 l 339 282 l 642 282 q 720 393 686 340 l 796 370 q 729 282 761 322 l 1331 282 l 1331 220 l 1128 220 q 940 12 1048 89 q 1268 -98 1113 -43 l 1229 -164 q 869 -29 1055 -95 q 371 -171 704 -121 m 599 123 q 725 83 640 110 q 859 40 813 55 q 1046 220 970 104 l 679 220 q 599 123 640 169 m 228 529 q 301 497 261 513 q 123 -71 206 214 l 46 -41 q 228 529 147 254 m 859 600 l 859 481 l 1150 481 l 1150 600 l 859 600 m 1150 781 l 859 781 l 859 663 l 1150 663 l 1150 781 m 244 743 q 68 1029 143 920 l 129 1065 q 313 785 219 937 l 244 743 z "},"准":{"ha":1389,"x_min":61,"x_max":1348,"o":"m 357 541 q 300 595 333 566 q 633 1135 507 825 l 703 1111 q 591 888 646 984 l 1332 888 l 1332 822 l 981 822 l 981 593 l 1318 593 l 1318 528 l 981 528 l 981 298 l 1318 298 l 1318 233 l 981 233 l 981 0 l 1348 0 l 1348 -64 l 559 -64 l 559 -168 l 486 -168 l 486 715 q 357 541 426 628 m 559 233 l 559 0 l 907 0 l 907 233 l 559 233 m 559 528 l 559 298 l 907 298 l 907 528 l 559 528 m 559 822 l 559 593 l 907 593 l 907 822 l 559 822 m 61 -78 q 241 454 170 203 q 319 427 283 437 q 142 -114 219 138 l 61 -78 m 241 728 q 81 1023 174 866 l 143 1057 q 311 764 239 899 l 241 728 m 847 1096 l 909 1132 q 1031 940 976 1029 l 964 901 q 847 1096 922 981 z "},"凉":{"ha":1389,"x_min":45,"x_max":1350,"o":"m 485 741 l 1227 741 l 1227 354 l 899 354 l 899 -3 q 754 -155 904 -153 q 621 -159 685 -159 q 604 -82 614 -119 q 728 -86 667 -86 q 804 -67 783 -86 q 825 0 826 -49 l 825 354 l 485 354 l 485 741 m 557 673 l 557 421 l 1156 421 l 1156 673 l 557 673 m 777 1125 l 847 1141 q 897 974 881 1037 l 1333 974 l 1333 905 l 374 905 l 374 974 l 822 974 q 777 1125 800 1058 m 45 -49 q 248 492 152 196 q 321 458 280 474 q 121 -90 217 180 l 45 -49 m 370 -86 q 315 -31 349 -62 q 581 241 455 87 l 642 200 q 370 -86 522 59 m 1039 196 l 1093 240 q 1350 -31 1221 111 l 1291 -82 q 1039 196 1163 69 m 262 728 q 66 1028 172 880 l 129 1065 q 330 772 217 945 l 262 728 z "},"凌":{"ha":1389,"x_min":56,"x_max":1352,"o":"m 418 106 q 367 157 395 136 q 717 518 591 323 l 785 490 q 717 399 739 426 l 1175 399 l 1175 328 q 935 57 1069 153 q 1352 -79 1076 -20 q 1314 -150 1331 -113 q 867 12 1028 -81 q 389 -170 700 -85 q 347 -100 371 -132 q 798 57 650 -22 q 600 265 681 142 q 418 106 519 182 m 817 1135 l 890 1135 l 890 975 l 1254 975 l 1254 909 l 890 909 l 890 749 l 1324 749 l 1324 684 l 389 684 l 389 749 l 817 749 l 817 909 l 458 909 l 458 975 l 817 975 l 817 1135 m 1095 335 l 664 335 q 652 321 660 328 q 865 98 742 180 q 1095 335 991 182 m 56 -89 q 216 450 148 166 q 292 414 243 435 q 136 -123 206 141 l 56 -89 m 354 446 q 669 643 515 528 l 720 590 q 403 385 543 466 q 354 446 385 414 m 961 589 l 1006 646 q 1331 472 1199 549 l 1286 411 q 961 589 1107 519 m 239 730 q 71 1036 160 882 l 135 1069 q 310 768 214 939 l 239 730 z "},"减":{"ha":1389,"x_min":39,"x_max":1353,"o":"m 946 1136 l 1015 1136 q 1019 904 1015 1012 l 1344 904 l 1344 840 l 1021 840 q 1023 798 1021 827 q 1026 734 1025 757 q 1069 271 1043 412 q 1235 685 1157 429 l 1303 661 q 1092 172 1205 362 q 1131 53 1108 111 q 1222 -66 1177 -70 q 1265 -7 1255 -69 q 1287 195 1279 84 q 1353 171 1322 180 q 1332 -24 1346 62 q 1227 -143 1313 -142 q 1069 14 1131 -148 q 1040 93 1053 52 q 823 -154 954 -31 q 813 -145 821 -152 q 765 -103 775 -111 q 1018 182 928 41 q 956 724 975 359 q 950 840 953 766 l 458 840 l 458 596 q 420 153 460 296 q 264 -154 384 3 q 205 -109 243 -134 q 351 176 315 34 q 387 587 389 314 l 387 904 l 947 904 q 946 992 947 941 q 946 1049 946 1017 q 946 1136 946 1076 m 554 497 l 863 497 l 863 96 l 554 96 l 554 497 m 621 436 l 621 157 l 796 157 l 796 436 l 621 436 m 118 -18 l 39 11 q 210 515 114 187 q 281 484 231 501 q 118 -18 214 281 m 69 999 l 131 1034 q 302 753 224 887 l 236 715 q 69 999 139 887 m 534 703 l 889 703 l 889 642 l 534 642 l 534 703 m 1083 1047 l 1129 1095 q 1282 975 1192 1048 l 1234 922 q 1083 1047 1186 967 z "},"凑":{"ha":1389,"x_min":39,"x_max":1350,"o":"m 433 804 l 732 804 q 761 925 749 860 l 389 925 l 389 986 l 771 986 q 789 1143 784 1080 l 861 1143 q 843 986 854 1062 l 1276 986 l 1276 925 l 833 925 q 807 804 827 880 l 1235 804 l 1235 745 l 789 745 q 734 618 768 680 l 1329 618 l 1329 557 l 1018 557 q 1350 301 1120 396 q 1304 240 1333 283 q 943 557 1058 348 l 699 557 q 342 232 595 393 q 289 289 308 273 q 610 557 505 416 l 340 557 l 340 618 l 652 618 q 713 745 690 684 l 433 745 l 433 804 m 389 221 l 765 221 q 774 355 771 275 l 589 355 l 589 416 l 1034 416 l 1034 355 l 844 355 q 836 221 842 280 l 1215 221 l 1215 160 l 827 160 q 819 130 824 149 q 814 113 815 118 q 841 100 823 109 q 1257 -94 1155 -43 l 1217 -160 q 787 54 977 -33 q 364 -174 712 -87 q 322 -106 355 -153 q 754 160 729 -17 l 389 160 l 389 221 m 118 -18 l 39 11 q 210 515 114 187 q 281 484 231 501 q 118 -18 214 281 m 69 997 l 131 1034 q 302 753 224 887 l 236 714 q 69 997 137 889 z "},"凛":{"ha":1389,"x_min":39,"x_max":1336,"o":"m 379 871 l 1258 871 l 1258 422 l 379 422 l 379 871 m 449 818 l 449 473 l 1189 473 l 1189 818 l 449 818 m 579 742 l 1055 742 l 1055 551 l 579 551 l 579 742 m 321 192 l 1324 192 l 1324 139 l 863 139 l 863 -14 q 715 -144 869 -142 q 650 -146 686 -146 q 613 -147 633 -147 q 566 -147 595 -147 q 549 -75 558 -93 q 559 -76 552 -75 q 688 -79 635 -79 q 770 -61 749 -80 q 791 9 792 -43 l 791 139 l 321 139 l 321 192 m 322 1011 l 798 1011 q 772 1133 792 1038 l 842 1145 q 868 1011 861 1063 l 1322 1011 l 1322 956 l 322 956 l 322 1011 m 118 -18 l 39 11 q 210 515 114 187 q 281 484 231 501 q 118 -18 214 281 m 435 334 l 1198 334 l 1198 283 l 435 283 l 435 334 m 646 690 l 646 603 l 989 603 l 989 690 l 646 690 m 296 -121 q 254 -61 276 -87 q 581 90 440 16 l 624 36 q 296 -121 471 -44 m 981 31 l 1017 87 q 1336 -49 1236 -1 l 1297 -113 q 981 31 1168 -46 m 62 997 l 123 1032 q 296 751 210 897 l 229 714 q 62 997 130 889 z "}}}
